<svg xmlns="http://www.w3.org/2000/svg" viewBox="0 0 500 500"><g id="freepik--background-complete--inject-2"><polygon points="177.2484 280.8944 209.04179 316.4472 213.473 311.7863 181.8029 275.644 177.2484 280.8944" style="opacity:.3;"></polygon><polygon points="178.1244 286.7937 198.15309 311.7863 201.62349 308.1517 180.3715 284.3868 178.1244 286.7937" style="opacity:.3;"></polygon><g><path d="M187.8441,149.4049c.4948,1.7185-.6522,3.5576-2.5621,4.1075-1.9097,.5499-3.859-.3976-4.3538-2.1162-.4948-1.7186,.6522-3.5576,2.5619-4.1075,1.9098-.55,3.8591,.3975,4.354,2.1162Z" style="fill:#e0e0e0;"></path><line x1="187.5112" y1="149.3993" x2="179.2177" y2="133.7105" style="fill:none; stroke:#e0e0e0; stroke-miterlimit:10;"></line><path d="M179.1646,133.6101s2.3629,4.4698,2.3651,4.474c-.0296-.056,.4481-.4656,.4864-.4997,.9921-.8841,2.2677-1.2104,3.5703-1.2594,.9088-.0342,1.8217,.0268,2.7264-.0662,2.0258-.2082,3.5704-1.5439,4.8044-3.0779,.0988-.1231,.1959-.2477,.2915-.3735,.1403-.1848,.2794-.3721,.4059-.5669-1.5124,.2993-3.0612,.4231-4.6007,.3144-1.5147-.107-2.9966-.4965-4.5229-.4731-1.8691,.0285-3.7776,.4287-5.3764,1.4318-.0505,.0316-.1004,.0639-.15,.0965Z" style="fill:#e0e0e0;"></path></g><g><path d="M175.0599,73.8925c.4948,1.7185-.6522,3.5576-2.5621,4.1074-1.9097,.5499-3.859-.3975-4.3538-2.1161-.4949-1.7187,.6521-3.5577,2.5619-4.1076s3.8591,.3976,4.354,2.1163Z" style="fill:#e0e0e0;"></path><line x1="174.727" y1="73.8869" x2="166.4335" y2="58.198" style="fill:none; stroke:#e0e0e0; stroke-miterlimit:10;"></line><path d="M166.3804,58.0977s2.3629,4.4698,2.3651,4.474c-.0296-.056,.4481-.4656,.4864-.4997,.9921-.8842,2.2677-1.2104,3.5703-1.2594,.9088-.0342,1.8217,.0268,2.7264-.0662,2.0258-.2082,3.5703-1.5439,4.8043-3.078,.0989-.1231,.196-.2476,.2915-.3734,.1404-.1848,.2795-.3721,.406-.567-1.5124,.2993-3.0612,.4232-4.6007,.3145-1.5148-.107-2.9966-.4965-4.523-.4732-1.869,.0286-3.7776,.4287-5.3764,1.4319-.0504,.0316-.1003,.0638-.1499,.0965Z" style="fill:#e0e0e0;"></path></g><g><g><path d="M403.113,176.325c-.76991,1.6142-2.77031,2.2608-4.46811,1.4444-1.69789-.8166-2.4502-2.7871-1.6805-4.4013,.7699-1.6142,2.7703-2.2609,4.4681-1.4444,1.698,.8165,2.4503,2.787,1.68051,4.4013Z" style="fill:#e0e0e0;"></path><line x1="402.88809" y1="176.1089" x2="407.32209" y2="158.9677" style="fill:none; stroke:#e0e0e0; stroke-miterlimit:10;"></line></g><g><path d="M414.85919,181.5986c-.7698,1.6143-2.7926,2.2502-4.518,1.4206-1.7255-.8298-2.50019-2.811-1.7304-4.4254,.7697-1.6141,2.7925-2.2502,4.518-1.4204,1.7254,.8297,2.5001,2.811,1.7304,4.4252Z" style="fill:#e0e0e0;"></path><line x1="414.63449" y1="181.3825" x2="419.06829" y2="164.2414" style="fill:none; stroke:#e0e0e0; stroke-miterlimit:10;"></line></g><polygon points="417.55449 169.7148 405.70139 164.8542 406.241 162.7681 418.12709 167.5008 417.55449 169.7148" style="fill:#e0e0e0;"></polygon><polygon points="418.81779 166.652 419.75749 163.1033 407.13539 157.9285 406.20019 161.9321 418.81779 166.652" style="fill:#e0e0e0;"></polygon></g><g><g><path d="M336.04719,79.5405c.3234,1.759-.9174,3.456-2.7715,3.7907-1.854,.3346-3.6192-.82-3.9426-2.5788-.3233-1.759,.9175-3.4562,2.7715-3.7907,1.8541-.3347,3.6192,.8199,3.9426,2.5788Z" style="fill:#e0e0e0;"></path><line x1="335.73839" y1="79.4974" x2="329.275" y2="63.0139" style="fill:none; stroke:#e0e0e0; stroke-miterlimit:10;"></line></g><g><path d="M348.65389,76.9217c.3234,1.7589-.94189,3.4605-2.82589,3.8007-1.88421,.34-3.67381-.8101-3.99721-2.5691-.3235-1.7588,.9417-3.4605,2.8259-3.8005,1.884-.3402,3.6737,.8101,3.9972,2.5689Z" style="fill:#e0e0e0;"></path><line x1="348.34509" y1="76.8785" x2="341.88159" y2="60.3952" style="fill:none; stroke:#e0e0e0; stroke-miterlimit:10;"></line></g><polygon points="343.86609 65.716 331.41529 68.732 330.62859 66.726 343.03119 63.587 343.86609 65.716" style="fill:#e0e0e0;"></polygon><polygon points="343.09269 62.4945 341.77219 59.0691 328.51429 62.2818 330.10519 66.0729 343.09269 62.4945" style="fill:#e0e0e0;"></polygon></g><g><g><path d="M85.7503,187.4909c-.6488,1.3604-2.3345,1.9053-3.7654,1.2172-1.4308-.6881-2.0648-2.3487-1.4162-3.709,.6489-1.3603,2.3346-1.9053,3.7654-1.2172,1.4309,.6881,2.0649,2.3486,1.4162,3.709Z" style="fill:#e0e0e0;"></path><line x1="85.5608" y1="187.3088" x2="89.2974" y2="172.8636" style="fill:none; stroke:#e0e0e0; stroke-miterlimit:10;"></line></g><g><path d="M95.6491,191.9351c-.6488,1.3603-2.3535,1.8963-3.8075,1.1971-1.454-.6993-2.1069-2.3688-1.4582-3.7293,.6486-1.3603,2.3533-1.8963,3.8074-1.197,1.454,.6992,2.1069,2.3689,1.4583,3.7292Z" style="fill:#e0e0e0;"></path><line x1="95.4597" y1="191.753" x2="99.1961" y2="177.3079" style="fill:none; stroke:#e0e0e0; stroke-miterlimit:10;"></line></g><polygon points="97.9204 181.9204 87.9316 177.8243 88.3864 176.0663 98.403 180.0546 97.9204 181.9204" style="fill:#e0e0e0;"></polygon><polygon points="98.985 179.3394 99.7769 176.3487 89.1401 171.9879 88.3519 175.3618 98.985 179.3394" style="fill:#e0e0e0;"></polygon></g><g><g><rect x="170.7827" y="320.2099" width="27.8591" height="6.3601" transform="translate(369.42449 646.7799) rotate(180)" style="fill:#e0e0e0;"></rect><rect x="170.7827" y="329.3326" width="27.8591" height="6.3601" transform="translate(369.42449 665.0253) rotate(180)" style="fill:#e0e0e0;"></rect><rect x="170.7827" y="310.8925" width="27.8591" height="6.3601" transform="translate(369.42449 628.1451) rotate(180)" style="fill:#e0e0e0;"></rect><rect x="170.7827" y="301.5751" width="27.8591" height="6.36" transform="translate(369.42449 609.5102) rotate(180)" style="fill:#e6e6e6;"></rect><rect x="170.7827" y="292.2576" width="27.8591" height="6.3601" transform="translate(369.42449 590.8753) rotate(180)" style="fill:#ebebeb;"></rect><rect x="170.7827" y="282.9402" width="27.8591" height="6.36" transform="translate(369.42449 572.2404) rotate(180)" style="fill:#f0f0f0;"></rect><rect x="170.7827" y="273.6227" width="27.8591" height="6.3601" transform="translate(369.42449 553.6055) rotate(180)" style="fill:#f0f0f0;"></rect><rect x="170.7827" y="264.3053" width="27.8591" height="6.36" transform="translate(369.42449 534.9706) rotate(180)" style="fill:#f5f5f5;"></rect><rect x="170.7827" y="254.9879" width="27.8591" height="6.36" transform="translate(369.42449 516.3358) rotate(180)" style="fill:#fafafa;"></rect><rect x="170.7827" y="245.8698" width="27.8591" height="6.36" transform="translate(369.42449 498.0996) rotate(180)" style="fill:#fafafa;"></rect><rect x="170.7827" y="236.3088" width="27.8591" height="6.36" transform="translate(369.42449 478.9776) rotate(180)" style="fill:#fafafa;"></rect><rect x="170.7827" y="227.1907" width="27.8591" height="6.36" transform="translate(369.42449 460.7414) rotate(180)" style="fill:#fafafa;"></rect><rect x="170.7827" y="217.6297" width="27.8591" height="6.3601" transform="translate(369.42449 441.6195) rotate(180)" style="fill:#fafafa;"></rect><rect x="170.7827" y="208.5116" width="27.8591" height="6.3601" transform="translate(369.42449 423.3833) rotate(180)" style="fill:#fafafa;"></rect><rect x="170.7827" y="198.9507" width="27.8591" height="6.36" transform="translate(369.42449 404.2614) rotate(180)" style="fill:#fafafa;"></rect><rect x="170.7827" y="189.8326" width="27.8591" height="6.36" transform="translate(369.42449 386.0252) rotate(180)" style="fill:#fafafa;"></rect><rect x="170.7827" y="180.2716" width="27.8591" height="6.36" transform="translate(369.42449 366.9032) rotate(180)" style="fill:#fafafa;"></rect><rect x="170.7827" y="171.1535" width="27.8591" height="6.36" transform="translate(369.42449 348.667) rotate(180)" style="fill:#fafafa;"></rect><rect x="208.04779" y="320.2099" width="27.85921" height="6.3601" transform="translate(443.95479 646.7799) rotate(180)" style="fill:#e0e0e0;"></rect><rect x="208.04779" y="329.3326" width="27.85921" height="6.3601" transform="translate(443.95479 665.0253) rotate(180)" style="fill:#e0e0e0;"></rect><rect x="208.04779" y="310.8925" width="27.85921" height="6.3601" transform="translate(443.95479 628.1451) rotate(180)" style="fill:#e0e0e0;"></rect><rect x="208.04779" y="301.5751" width="27.85921" height="6.36" transform="translate(443.95479 609.5102) rotate(180)" style="fill:#e6e6e6;"></rect><rect x="208.04779" y="292.2576" width="27.85921" height="6.3601" transform="translate(443.95479 590.8753) rotate(180)" style="fill:#ebebeb;"></rect><rect x="208.04779" y="282.9402" width="27.85921" height="6.36" transform="translate(443.95479 572.2404) rotate(180)" style="fill:#f0f0f0;"></rect><rect x="208.04779" y="273.6227" width="27.85921" height="6.3601" transform="translate(443.95479 553.6055) rotate(180)" style="fill:#f0f0f0;"></rect><rect x="208.04779" y="264.3053" width="27.85921" height="6.36" transform="translate(443.95479 534.9706) rotate(180)" style="fill:#f5f5f5;"></rect><rect x="208.04779" y="254.9879" width="27.85921" height="6.36" transform="translate(443.95479 516.3358) rotate(180)" style="fill:#fafafa;"></rect><rect x="208.04779" y="245.8698" width="27.85921" height="6.36" transform="translate(443.95479 498.0996) rotate(180)" style="fill:#fafafa;"></rect><rect x="208.04779" y="236.3088" width="27.85921" height="6.36" transform="translate(443.95479 478.9776) rotate(180)" style="fill:#fafafa;"></rect><rect x="208.04779" y="227.1907" width="27.85921" height="6.36" transform="translate(443.95479 460.7414) rotate(180)" style="fill:#fafafa;"></rect><rect x="208.04779" y="217.6297" width="27.85921" height="6.3601" transform="translate(443.95479 441.6195) rotate(180)" style="fill:#fafafa;"></rect><rect x="208.04779" y="208.5116" width="27.85921" height="6.3601" transform="translate(443.95479 423.3833) rotate(180)" style="fill:#fafafa;"></rect><rect x="208.04779" y="198.9507" width="27.85921" height="6.36" transform="translate(443.95479 404.2614) rotate(180)" style="fill:#fafafa;"></rect><rect x="208.04779" y="189.8326" width="27.85921" height="6.36" transform="translate(443.95479 386.0252) rotate(180)" style="fill:#fafafa;"></rect><rect x="300.65179" y="320.2099" width="27.85921" height="6.3601" transform="translate(629.16279 646.7799) rotate(180)" style="fill:#e0e0e0;"></rect><rect x="300.65179" y="329.3326" width="27.85921" height="6.3601" transform="translate(629.16279 665.0253) rotate(180)" style="fill:#e0e0e0;"></rect><rect x="300.65179" y="310.8925" width="27.85921" height="6.3601" transform="translate(629.16279 628.1451) rotate(180)" style="fill:#e0e0e0;"></rect><rect x="300.65179" y="301.5751" width="27.85921" height="6.36" transform="translate(629.16279 609.5102) rotate(180)" style="fill:#e6e6e6;"></rect><rect x="300.65179" y="292.2576" width="27.85921" height="6.3601" transform="translate(629.16279 590.8753) rotate(180)" style="fill:#ebebeb;"></rect><rect x="300.65179" y="282.9402" width="27.85921" height="6.36" transform="translate(629.16279 572.2404) rotate(180)" style="fill:#f0f0f0;"></rect><rect x="300.65179" y="273.6227" width="27.85921" height="6.3601" transform="translate(629.16279 553.6055) rotate(180)" style="fill:#f0f0f0;"></rect><rect x="300.65179" y="264.3053" width="27.85921" height="6.36" transform="translate(629.16279 534.9706) rotate(180)" style="fill:#f5f5f5;"></rect><rect x="300.65179" y="254.9879" width="27.85921" height="6.36" transform="translate(629.16279 516.3358) rotate(180)" style="fill:#fafafa;"></rect><rect x="300.65179" y="245.8698" width="27.85921" height="6.36" transform="translate(629.16279 498.0996) rotate(180)" style="fill:#fafafa;"></rect><rect x="300.65179" y="236.3088" width="27.85921" height="6.36" transform="translate(629.16279 478.9776) rotate(180)" style="fill:#fafafa;"></rect><rect x="300.65179" y="227.1907" width="27.85921" height="6.36" transform="translate(629.16279 460.7414) rotate(180)" style="fill:#fafafa;"></rect><rect x="300.65179" y="217.6297" width="27.85921" height="6.3601" transform="translate(629.16279 441.6195) rotate(180)" style="fill:#fafafa;"></rect><rect x="300.65179" y="208.5116" width="27.85921" height="6.3601" transform="translate(629.16279 423.3833) rotate(180)" style="fill:#fafafa;"></rect><rect x="300.65179" y="198.9507" width="27.85921" height="6.36" transform="translate(629.16279 404.2614) rotate(180)" style="fill:#fafafa;"></rect><rect x="300.65179" y="189.8326" width="27.85921" height="6.36" transform="translate(629.16279 386.0252) rotate(180)" style="fill:#fafafa;"></rect><rect x="135.7371" y="329.1287" width="27.8592" height="6.3601" transform="translate(299.33339 664.6175) rotate(180)" style="fill:#e0e0e0;"></rect><rect x="135.7371" y="319.8113" width="27.8592" height="6.36" transform="translate(299.33339 645.9826) rotate(180)" style="fill:#e6e6e6;"></rect><rect x="135.7371" y="310.4938" width="27.8592" height="6.3601" transform="translate(299.33339 627.3477) rotate(180)" style="fill:#ebebeb;"></rect><rect x="135.7371" y="301.1764" width="27.8592" height="6.36" transform="translate(299.33339 608.7128) rotate(180)" style="fill:#f0f0f0;"></rect><rect x="135.7371" y="291.8589" width="27.8592" height="6.3601" transform="translate(299.33339 590.0779) rotate(180)" style="fill:#f0f0f0;"></rect><rect x="135.7371" y="282.5415" width="27.8592" height="6.36" transform="translate(299.33339 571.443) rotate(180)" style="fill:#f5f5f5;"></rect><rect x="135.7371" y="273.224" width="27.8592" height="6.3601" transform="translate(299.33339 552.8081) rotate(180)" style="fill:#fafafa;"></rect><rect x="135.7371" y="264.106" width="27.8592" height="6.36" transform="translate(299.33339 534.572) rotate(180)" style="fill:#fafafa;"></rect><rect x="135.7371" y="255.0862" width="27.8592" height="6.3601" transform="translate(299.33339 516.5325) rotate(180)" style="fill:#fafafa;"></rect><rect x="135.7371" y="245.9681" width="27.8592" height="6.3601" transform="translate(299.33339 498.2963) rotate(180)" style="fill:#fafafa;"></rect><rect x="135.7371" y="236.7276" width="27.8592" height="6.3601" transform="translate(299.33339 479.8153) rotate(180)" style="fill:#fafafa;"></rect><rect x="67.6568" y="329.1287" width="27.8592" height="6.3601" transform="translate(163.1728 664.6175) rotate(180)" style="fill:#e0e0e0;"></rect><rect x="67.6568" y="319.8113" width="27.8592" height="6.36" transform="translate(163.1728 645.9826) rotate(180)" style="fill:#e6e6e6;"></rect><rect x="67.6568" y="310.4938" width="27.8592" height="6.3601" transform="translate(163.1728 627.3477) rotate(180)" style="fill:#ebebeb;"></rect><rect x="67.6568" y="301.1764" width="27.8592" height="6.36" transform="translate(163.1728 608.7128) rotate(180)" style="fill:#f0f0f0;"></rect><rect x="67.6568" y="291.8589" width="27.8592" height="6.3601" transform="translate(163.1728 590.0779) rotate(180)" style="fill:#f0f0f0;"></rect><rect x="67.6568" y="282.5415" width="27.8592" height="6.36" transform="translate(163.1728 571.443) rotate(180)" style="fill:#f5f5f5;"></rect><rect x="67.6568" y="273.224" width="27.8592" height="6.3601" transform="translate(163.1728 552.8081) rotate(180)" style="fill:#fafafa;"></rect><rect x="67.6568" y="264.106" width="27.8592" height="6.36" transform="translate(163.1728 534.572) rotate(180)" style="fill:#fafafa;"></rect><rect x="102.1207" y="328.8297" width="27.8591" height="6.36" transform="translate(232.10049 664.0194) rotate(180)" style="fill:#ebebeb;"></rect><rect x="102.1207" y="319.5122" width="27.8591" height="6.3601" transform="translate(232.10049 645.3845) rotate(180)" style="fill:#f0f0f0;"></rect><rect x="102.1207" y="310.1948" width="27.8591" height="6.3601" transform="translate(232.10049 626.7497) rotate(180)" style="fill:#f0f0f0;"></rect><rect x="102.1207" y="300.8774" width="27.8591" height="6.36" transform="translate(232.10049 608.1148) rotate(180)" style="fill:#f5f5f5;"></rect><rect x="102.1207" y="291.5599" width="27.8591" height="6.3601" transform="translate(232.10049 589.4799) rotate(180)" style="fill:#fafafa;"></rect><rect x="102.1207" y="282.4418" width="27.8591" height="6.3601" transform="translate(232.10049 571.2437) rotate(180)" style="fill:#fafafa;"></rect></g><g><rect x="335.82209" y="320.2099" width="27.8591" height="6.3601" style="fill:#e0e0e0;"></rect><rect x="335.82209" y="329.3326" width="27.8591" height="6.3601" style="fill:#e0e0e0;"></rect><rect x="335.82209" y="310.8925" width="27.8591" height="6.3601" style="fill:#e0e0e0;"></rect><rect x="335.82209" y="301.5751" width="27.8591" height="6.36" style="fill:#e6e6e6;"></rect><rect x="335.82209" y="292.2576" width="27.8591" height="6.3601" style="fill:#ebebeb;"></rect><rect x="335.82209" y="282.9402" width="27.8591" height="6.36" style="fill:#f0f0f0;"></rect><rect x="335.82209" y="273.6227" width="27.8591" height="6.3601" style="fill:#f0f0f0;"></rect><rect x="335.82209" y="264.3053" width="27.8591" height="6.36" style="fill:#f5f5f5;"></rect><rect x="335.82209" y="254.9879" width="27.8591" height="6.36" style="fill:#fafafa;"></rect><rect x="335.82209" y="245.8698" width="27.8591" height="6.36" style="fill:#fafafa;"></rect><rect x="370.86759" y="329.1287" width="27.8592" height="6.3601" style="fill:#e0e0e0;"></rect><rect x="370.86759" y="319.8113" width="27.8592" height="6.36" style="fill:#e6e6e6;"></rect><rect x="370.86759" y="310.4938" width="27.8592" height="6.3601" style="fill:#ebebeb;"></rect><rect x="370.86759" y="301.1764" width="27.8592" height="6.36" style="fill:#f0f0f0;"></rect><rect x="370.86759" y="291.8589" width="27.8592" height="6.3601" style="fill:#f0f0f0;"></rect><rect x="370.86759" y="282.5415" width="27.8592" height="6.36" style="fill:#f5f5f5;"></rect><rect x="370.86759" y="273.224" width="27.8592" height="6.3601" style="fill:#fafafa;"></rect><rect x="370.86759" y="264.106" width="27.8592" height="6.36" style="fill:#fafafa;"></rect><rect x="404.484" y="328.8297" width="27.85919" height="6.36" style="fill:#ebebeb;"></rect><rect x="404.484" y="319.5122" width="27.85919" height="6.3601" style="fill:#f0f0f0;"></rect><rect x="404.484" y="310.1948" width="27.85919" height="6.3601" style="fill:#f0f0f0;"></rect><rect x="404.484" y="300.8774" width="27.85919" height="6.36" style="fill:#f5f5f5;"></rect><rect x="404.484" y="291.5599" width="27.85919" height="6.3601" style="fill:#fafafa;"></rect><rect x="404.484" y="282.4418" width="27.85919" height="6.3601" style="fill:#fafafa;"></rect></g></g><g><g><g><path d="M443.92039,319.7327h-180.7461c-3.2324,0-5.86229-2.6298-5.86229-5.8623V50.597c0-3.2324,2.62989-5.8618,5.86229-5.8618h180.7461c3.2324,0,5.8623,2.6294,5.8623,5.8618V313.8704c0,3.2325-2.6299,5.8623-5.8623,5.8623ZM263.17429,44.9852c-3.0947,0-5.61229,2.5176-5.61229,5.6118V313.8704c0,3.0948,2.51759,5.6123,5.61229,5.6123h180.7461c3.0947,0,5.6123-2.5175,5.6123-5.6123V50.597c0-3.0942-2.5176-5.6118-5.6123-5.6118h-180.7461Z" style="fill:#e0e0e0;"></path><path d="M235.49269,319.7327H54.7461c-3.2324,0-5.8618-2.6298-5.8618-5.8623V50.597c0-3.2324,2.6294-5.8618,5.8618-5.8618H235.49269c3.2324,0,5.86231,2.6294,5.86231,5.8618V313.8704c0,3.2325-2.62991,5.8623-5.86231,5.8623ZM54.7461,44.9852c-3.0942,0-5.6118,2.5176-5.6118,5.6118V313.8704c0,3.0948,2.5176,5.6123,5.6118,5.6123H235.49269c3.0947,0,5.61231-2.5175,5.61231-5.6123V50.597c0-3.0942-2.51761-5.6118-5.61231-5.6118H54.7461Z" style="fill:#e0e0e0;"></path></g><rect x="0" y="380.8021" width="500" height=".25" style="fill:#e0e0e0;"></rect></g><rect x="51.6724" y="395.0666" width="16.06" height=".25" style="fill:#e0e0e0;"></rect><rect x="170.3524" y="392.3566" width="53.53" height=".25" style="fill:#e0e0e0;"></rect><rect x="68.7324" y="404.3566" width="36.25" height=".25" style="fill:#e0e0e0;"></rect><rect x="378.35239" y="392.2266" width="43.19" height=".25" style="fill:#e0e0e0;"></rect><rect x="430.45239" y="392.2266" width="6.33" height=".25" style="fill:#e0e0e0;"></rect><rect x="316.21239" y="398.4566" width="53.89" height=".25" style="fill:#e0e0e0;"></rect></g></g><g id="freepik--Shadow--inject-2"><ellipse cx="251.26009" cy="437.27815" rx="229.19179" ry="17.06985" style="fill:#f5f5f5;"></ellipse></g><g id="freepik--Character--inject-2"><g><g><g><path d="M86.1733,365.1801c.8003-1.3337,41.0295-33.9769,52.233-45.7138,11.2034-11.737,64.458-79.0269,64.458-79.0269l.93471,51.4906-37.8466,41.561c-2.3097,2.5364-4.9749,4.7245-7.9125,6.4961l-56.2668,33.9332-15.5998-8.7402Z" style="fill:#ebb373;"></path><path d="M112.7043,385.8426c-1.841-1.2273-1.2273-4.4183-3.3137-7.9774-2.0864-3.5592-7.1183-5.6456-7.1183-5.6456,0,0-.8809-1.8619-.7561-1.9915,.1249-.1297-15.3429-5.048-15.3429-5.048,0,0-1.5685,2.1699-2.4181,2.8123-4.2679,3.2278-21.9932,17.4759-23.5887,20.2988l-.0471,.0842c-1.0134,1.8349-.8895,2.9289,1.1799,2.5951l.7716-.23c.8166,2.644,5.2313,.698,5.2313,.698,5.2773,2.7,7.5636-.7768,7.5636-.7768,0,0,.5076,1.9173,4.3334,1.6855,1.9638-.1189,11.4129-8.6826,11.7811-8.9281,.3681-.2455,8.0511-1.6336,8.0511-1.6336,4.4182,4.6638,10.3592,7.4935,12.9365,7.0026s2.5773-1.7182,.7364-2.9455Z" style="fill:#ebb373;"></path><g style="opacity:.3;"><path d="M77.2725,380.8978c-4.1694,3.6314-5.9459,6.2493-9.7201,10.4564,0,0,.9534-2.5979,3.4555-5.3839,2.958-3.2936,6.2646-5.0725,6.2646-5.0725Z"></path></g><g style="opacity:.3;"><path d="M84.4485,380.4894c-4.1694,3.6314-5.9459,6.2493-9.7201,10.4564,0,0,.9534-2.5979,3.4555-5.3838,2.958-3.2937,6.2646-5.0726,6.2646-5.0726Z"></path></g><g style="opacity:.3;"><path d="M72.166,379.3921c-3.5154,3.789-6.3209,7.1413-10.0951,11.3484,0,0,2.5929-4.1571,4.6794-6.6448,2.0864-2.4877,5.4157-4.7036,5.4157-4.7036Z"></path></g><polygon points="107.3112 369.4205 98.4076 370.1888 103.2789 372.6967 107.3112 369.4205" style="opacity:.3;"></polygon></g><polygon points="162.5363 290.7758 181.3906 316.5376 184.8745 312.7118 163.8148 289.1927 162.5363 290.7758" style="opacity:.3;"></polygon></g><g><path d="M305.719,235.7533l23.28129-20.5373,27.4365-19.2079-10.6944-62.6491,14.5605-7.8756s32.7445,71.8591,25.3965,84.6401-60.7965,56.8728-60.7965,56.8728l-19.18389-31.243Z" style="fill:#ebb373;"></path><polygon points="331.43679 213.5102 351.88949 243.9321 348.10029 247.1765 329.473 214.5213 331.43679 213.5102" style="opacity:.3;"></polygon><path d="M317.61009,120.9423c.09791,.9809,.8006,1.7958,1.715,2.164,2.2368,.9005,7.2606,2.9335,9.8862,4.079,2.2023,.9608,13.8698,6.438,16.8988,6.8426,3.029,.4047,14.6087-4.3183,14.6087-4.3183,0,0,.3551-14.6272-1.9674-18.6296-2.3225-4.0025-5.4807-9.1774-7.70639-9.4473-2.22581-.27-2.62931,1.5204-4.00191,1.7032-1.3726,.1827-3.3128-1.1749-5.3913,1.9864,0,0-5.1256-1.3756-6.15579,2.2711,0,0-2.15621-2.666-4.86251-8.594-3.0474-6.6751-3.7679-7.0021-6.162-6.2681-2.3941,.7341,.4306,8.4404,1.6823,12.0568,1.2517,3.6165,7.0356,16.5609,7.0356,16.5609h0c-1.7069-.2863-5.8788-1.6208-9.6271-2.3369-4.1915-.8009-6.142,.0291-5.9522,1.9302Z" style="fill:#ebb373;"></path><path d="M336.20509,108.9513c1.4777,3.5698,3.182,7.6528,6.0371,10.6459,.6574,.6892,1.4362,1.3141,2.363,1.5335,.9269,.2194,2.0219-.0607,2.53681-.8619,.43309-.674,.38009-1.5473,.21709-2.3316-.305-1.4673-.9337-2.8442-1.5577-4.2068-1.0298-2.2486-2.0596-4.4973-3.08939-6.746" style="fill:none; stroke:#e4873e; stroke-miterlimit:10; stroke-width:.5px;"></path><path d="M347.446,117.447c1.20129,.4136,3.05409-.4306,3.54089-1.6042s.325-2.5084,.0656-3.7522c-.4518-2.1668-1.1759-4.2766-2.15-6.2641" style="fill:none; stroke:#e4873e; stroke-miterlimit:10; stroke-width:.5px;"></path><path d="M351.303,114.5558c.65479,.4242,2.05869,.7147,2.70989,.285,.6513-.4297,1.0823-1.127,1.3715-1.8517,.6838-1.7137,.6561-3.6989-.0752-5.3929" style="fill:none; stroke:#e4873e; stroke-miterlimit:10; stroke-width:.5px;"></path><path d="M336.34769,121.2958c4.8357-.9531,10.14131,1.2011,12.9439,5.2553" style="fill:none; stroke:#e4873e; stroke-miterlimit:10; stroke-width:.5px;"></path><path d="M356.43679,196.0081s5.9557,3.0759,9.8991,5.8692c0,0-5.1864-8.6515-10.3741-8.6515l.475,2.7823Z" style="opacity:.3;"></path></g><g><ellipse cx="294.94532" cy="171.84875" rx="14.52953" ry="16.93126" transform="translate(-.20388 .35041) rotate(-.06805)" style="fill:#407BFF;"></ellipse><ellipse cx="294.94532" cy="171.84875" rx="14.52953" ry="16.93126" transform="translate(-.20388 .35041) rotate(-.06805)" style="fill:#fff; opacity:.7;"></ellipse><path d="M304.28049,171.8376c.0083,6.9763-4.8381,12.6375-10.8248,12.6446-5.98669,.0072-10.84669-5.6424-10.855-12.6187-.0083-6.9763,4.8381-12.6374,10.8248-12.6446,5.9867-.0071,10.8466,5.6425,10.855,12.6187Z" style="fill:#407BFF;"></path></g><path d="M241.56809,222.9716c.42291,0,9.8078-1.8881,9.8078-1.8881l29.1162,3.256s12.4245,.9717,12.1425,1.3947c-.2819,.4229-13.5707,27.6889-13.5707,27.6889l-16.208-2.3967s-17.9682-5.3117-17.0904-5.6164-4.1974-22.4384-4.1974-22.4384Z" style="fill:#ebb373;"></path><g><g><g><g><path d="M247.95969,233.1219s7.53331-14.9129,2.6531-39.6125c2.9889-1.3963-.964-7.5777-.839-10.0486l31.1717,23.243c-1.4461,7.6359,.01851,22.7629,1.1184,29.193l-12.0211,10.923-22.0831-13.6979Z" style="fill:#ebb373;"></path><path d="M280.133,211.2767l-18.077-1.4398c3.047,5.3619,5.19049,10.0705,18.42409,10.6119,0,0,.1116-6.6155-.34709-9.1721Z" style="opacity:.2;"></path></g><g><path d="M292.58349,137.7045c5.5538,6.5475,7.9688,25.4524-4.6992,24.8512-12.6676-.601-4.8469-36.1056,4.6992-24.8512Z" style="fill:#263238;"></path><path d="M240.64689,172.9689c7.0089,19.8895,10.956,31.247,24.1324,38.626,55.166,22.3837,48.7639-72.0842,6.1096-77.496-21.76689-2.1797-37.2504,18.9806-30.242,38.87Z" style="fill:#ebb373;"></path><path d="M249.83279,178.7774s3.70321,5.8491,10.9163,4.6834c7.2131-1.1656,8.8661-3.6646,14.4262-2.2648,5.5601,1.3997,9.2123,5.5023,15.8015,5.4046,6.58921-.0978,13.54-2.0097,13.54-2.0097,0,0,.1014,5.5213-1.7067,11.8163-.9415,3.2779-2.5218,6.763-4.6459,9.7931-3.5039,4.9986-9.214,8.7439-17.8226,8.8206-23.8492,.2124-30.5088-20.1939-30.5088-20.1939v-16.0496Z" style="opacity:.3;"></path><path d="M224.11369,147.6566c2.8574-19.3978,34.3632-18.4207,43.7959-14.9447,1.40941,.5195-12.7813,13.5545-11.8819,12.9022l-7.0288,4.9168c-9.9031,5.017,7.96411,20.9843-.5532,38.306-18.84669-2.4374-25.7841-27.0318-24.332-41.1803Z" style="fill:#263238;"></path><path d="M234.24109,192.7131c5.4514,10.1623,25.22291,12.847,20.0881-2.8394-4.0407-15.4322-27.99819-15.3296-20.0881,2.8394Z" style="fill:#ebb373;"></path><path d="M267.92529,171.3796c1.35671,4.9032,6.33271,3.3845,4.8969-1.4474-1.3564-4.9034-6.3309-3.384-4.8969,1.4474Z" style="fill:#263238;"></path><path d="M289.44789,165.6428c1.356,4.9034,6.3318,3.3848,4.8969-1.447-1.3563-4.904-6.3316-3.3836-4.8969,1.447Z" style="fill:#263238;"></path><path d="M284.58439,165.8216s9.4892,8.426,12.7848,12.0187c-2.1417,3.4256-7.4506,3.6391-7.4506,3.6391l-5.3342-15.6578Z" style="fill:#e4873e;"></path><path d="M263.245,162.1475c.34919,.0388,.71039-.1068,.93409-.4137,2.6632-3.6455,6.37491-3.5183,6.4122-3.5167,4.0248-2.6641-4.3481-3.2364-8.03729,2.3416-.46371,.5987-.05391,1.5258,.691,1.5888Z" style="fill:#263238;"></path></g><path d="M240.29019,185.1145c2.62481-5.3621,9.6449-.7287,10.9699,3.4314" style="fill:none; opacity:.2; stroke:#000; stroke-linecap:round; stroke-linejoin:round; stroke-width:.5px;"></path></g><path d="M297.99639,153.7914c.692-.3459,.7128-1.4308,.01361-1.7844-4.87841-2.6685-8.95411-.4603-9.14911-.3854-1.1441,.6018-.2041,2.4153,.9429,1.7839,.5346-.8631,4.4661-.7863,8.1926,.3859Z" style="fill:#263238;"></path></g><path d="M232.24589,178.6878s13.98211-19.9675,31.0509-29.2763c18.8977-10.3061,32.7456-7.2396,32.7456-7.2396,0,0,3.2378-3.1713,1.1557-4.9686-2.0818-1.7973-4.0214-.2236-4.0214-.2236,0,0-20.2735-21.6016-44.48-14.6958-24.20669,6.9059-32.2648,21.8551-31.2858,22.9413,4.9776,5.5214,7.8375-3.0464,7.8375-3.0464,0,0-5.8852,7.8482,.8975,23.8834l2.006,6.2773s-1.6583,7.3249,4.094,6.3483Z" style="fill:#263238;"></path><path d="M232.24589,178.6878s13.98211-19.9675,31.0509-29.2763c18.8977-10.3061,32.7456-7.2396,32.7456-7.2396,0,0,3.2378-3.1713,1.1557-4.9686-2.0818-1.7973-4.0214-.2236-4.0214-.2236,0,0-20.2735-21.6016-44.48-14.6958-24.20669,6.9059-32.2648,21.8551-31.2858,22.9413,4.9776,5.5214,7.8375-3.0464,7.8375-3.0464,0,0-5.8852,7.8482,.8975,23.8834l2.006,6.2773s-1.6583,7.3249,4.094,6.3483Z" style="fill:#fff; opacity:.7;"></path><path d="M263.70069,148.5137c2.5882-.8761,4.5006-3.4609,4.5819-6.1922,.0533-1.7948-.6042-3.5221-1.0631-5.258-.4589-1.7362-.7041-3.6648,.1153-5.2627,.7005-1.3659,2.1729-2.3014,3.707-2.355,1.53421-.0538,3.0683,.7765,3.8626,2.0903-.5746-1.0797-.1782-2.47,.6247-3.3926,.8028-.9227,1.934-1.4817,3.0335-2.0171,1.9809-.9641,4.2012-1.9523,6.3117-1.3203,2.1113,.6321,3.4486,2.7202,4.1853,4.7976,.9501,2.6793,1.2018,5.6832,.2365,8.3571-1.2914,3.5766-4.60209,6.1253-8.1756,7.4254-3.5736,1.3-7.4332,1.5298-11.2296,1.7469" style="fill:#263238;"></path><path d="M229.29669,171.8488c7.0388-13.822,21.5754-27.2035,35.63131-33.7624" style="fill:none; opacity:.3; stroke:#000; stroke-miterlimit:10; stroke-width:.25px;"></path><g><path d="M288.30969,189.019c-1.4838,2.616-2.776,5.3359-3.8663,8.1387-.5145-.1081-1.0442-.2061-1.5543-.3397-7.0243-1.5733-9.7742-4.612-10.6565-7.5266-.4072-1.4329-.4721-2.9412-.189-4.4036,.1396-.8279,.3938-1.6321,.7549-2.39,3.2284,3.0618,9.6446,5.0313,13.12851,5.9365,1.51859,.3204,2.38269,.5847,2.38269,.5847Z" style="fill:#263238;"></path><path d="M285.92179,188.4347l-1.2083,2.3715c-6.59549-1.4943-11.0397-3.412-12.6752-5.9184,.13971-.8278,.3938-1.6321,.7551-2.39,3.2488,3.0919,9.6445,5.0315,13.1284,5.9369Z" style="fill:#fff;"></path><path d="M282.804,196.7669c-7.02431-1.5736-9.68931-4.5609-10.57141-7.4755,2.6578,.6461,5.0955,1.706,7.3663,3.2311,1.4842,1.0467,2.6044,2.5305,3.20511,4.2444Z" style="fill:#c15854;"></path></g></g><g><path d="M251.73549,180.8771c5.7604,7.3659,5.3059,17.3445-1.0151,22.2878-6.3211,4.9433-16.1151,2.9794-21.8755-4.3865s-5.30589-17.3444,1.01511-22.2878c6.32109-4.9433,16.11509-2.9794,21.87549,4.3865Z" style="fill:#407BFF;"></path><path d="M251.73549,180.8771c5.7604,7.3659,5.3059,17.3445-1.0151,22.2878-6.3211,4.9433-16.1151,2.9794-21.8755-4.3865s-5.30589-17.3444,1.01511-22.2878c6.32109-4.9433,16.11509-2.9794,21.87549,4.3865Z" style="fill:#fff; opacity:.7;"></path><path d="M247.64369,184.077c4.2976,5.4954,3.9585,12.94-.7574,16.628-4.7158,3.688-12.0227,2.2228-16.32029-3.2726-4.29761-5.4953-3.95851-12.9399,.75739-16.6279,4.7158-3.688,12.0227-2.2228,16.3203,3.2725Z" style="fill:#407BFF;"></path></g><path d="M234.45109,174.2167s-5.8826-13.4275-5.1544-25.703c.7884-13.2895,12.4027-23.907,12.4027-23.907,0,0-17.3273,7.5128-16.1161,26.0859s6.5404,24.6291,6.5404,24.6291l2.3274-1.105Z" style="opacity:.3;"></path><path d="M241.69939,124.6067c-2.4512,.7095-4.6663,1.6861-6.602,2.9787,0,0-29.9273,25.0984-1.7971,61.4803l6.8552-2.4651s-30.582-38.5064,1.5439-61.9939Z" style="fill:#407BFF;"></path><path d="M284.80319,224.4468l21.29181,.5928,23.10409-11.726,21.9784,38.3581-30.341,22.7126,.2849,133.3551h-121.8236l4.02221-109.6541-16.2592,17.1021-31.7934-35.5528s40.7993-47.6697,50.3012-50.6127l36.9753-6.8675s5.3258,19.8695,27.4425,20.5218c15.9782,.4712,14.8168-18.2294,14.8168-18.2294Z" style="fill:#407BFF;"></path><path d="M284.80319,224.4468l21.29181,.5928,23.10409-11.726,21.9784,38.3581-30.341,22.7126,.2849,133.3551h-121.8236l4.02221-109.6541-16.2592,17.1021-31.7934-35.5528s40.7993-47.6697,50.3012-50.6127l36.9753-6.8675s5.3258,19.8695,27.4425,20.5218c15.9782,.4712,14.8168-18.2294,14.8168-18.2294Z" style="fill:#fff; opacity:.3;"></path><g style="opacity:.3;"><path d="M203.21819,299.125s1.30681-26.5506,0-39.8259c0,0-9.1503,20.3876,0,39.8259Z"></path></g><path d="M282.496,244.2043c4.41929-3.3339,8.68959-9.2962,7.08269-19.6246l-4.7756-.1329s1.1615,18.7006-14.8167,18.2294c-22.1167-.6523-27.4425-20.5218-27.4425-20.5218l-5.8403,1.0848c-.1922,.0363,3.8039,26.4163,33.4556,25.1911,4.4401-.1835,8.7891-1.5497,12.33681-4.226Z" style="opacity:.3;"></path><path d="M269.31469,273.0158l5.7854,11.7226c.3664,.7424,1.0746,1.2569,1.89391,1.376l12.93669,1.8798c2.0631,.2998,2.8869,2.8351,1.394,4.2903l-9.3611,9.1248c-.5928,.5779-.8633,1.4105-.7234,2.2264l2.2099,12.8844c.3524,2.0548-1.8043,3.6218-3.6496,2.6516l-11.5709-6.0832c-.7328-.3852-1.6082-.3852-2.341,0l-11.5709,6.0832c-1.8453,.9702-4.002-.5968-3.6496-2.6516l2.2098-12.8844c.14-.8159-.1305-1.6485-.7234-2.2264l-9.3611-9.1248c-1.4928-1.4552-.669-3.9905,1.3941-4.2903l12.9367-1.8798c.8192-.1191,1.5275-.6336,1.89381-1.376l5.78549-11.7226c.9227-1.8695,3.58851-1.8695,4.5112,0Z" style="fill:#fff; opacity:.7;"></path><circle cx="266.09679" cy="296.93237" r="37.63322" transform="translate(-70.03851 511.38375) rotate(-80.67232)" style="fill:#fff; opacity:.7;"></circle><path d="M320.83649,274.3843v-23.3077s10.14051,11.7843,0,23.3077Z" style="opacity:.3;"></path></g></g><g id="freepik--Device--inject-2"><rect x="13.322" y="419.6269" width="472.93329" height="8.6136" style="fill:#263238;"></rect><g><rect x="162.7856" y="380.7898" width="181.9386" height="39.4184" style="fill:#263238;"></rect><rect x="162.7856" y="380.7898" width="181.9386" height="39.4184" style="fill:#fff; opacity:.6;"></rect><rect x="168.3384" y="373.6555" width="7.1343" height="7.1343" style="fill:#263238;"></rect><rect x="179.3553" y="376.8768" width="7.1343" height="3.913" style="fill:#263238;"></rect><rect x="189.3262" y="376.8768" width="7.1343" height="3.913" style="fill:#263238;"></rect><rect x="199.29709" y="376.8768" width="7.1343" height="3.913" style="fill:#263238;"></rect><rect x="209.268" y="376.8768" width="7.13429" height="3.913" style="fill:#263238;"></rect><rect x="219.239" y="376.8768" width="7.13429" height="3.913" style="fill:#263238;"></rect><rect x="229.20989" y="376.8768" width="7.1343" height="3.913" style="fill:#263238;"></rect><rect x="239.18079" y="376.8768" width="7.1343" height="3.913" style="fill:#263238;"></rect><rect x="179.3553" y="376.8768" width="7.1343" height="3.913" style="fill:#fff; opacity:.3;"></rect><rect x="189.3262" y="376.8768" width="7.1343" height="3.913" style="fill:#fff; opacity:.3;"></rect><rect x="199.29709" y="376.8768" width="7.1343" height="3.913" style="fill:#fff; opacity:.3;"></rect><rect x="209.268" y="376.8768" width="7.13429" height="3.913" style="fill:#fff; opacity:.3;"></rect><rect x="219.239" y="376.8768" width="7.13429" height="3.913" style="fill:#fff; opacity:.3;"></rect><rect x="229.20989" y="376.8768" width="7.1343" height="3.913" style="fill:#fff; opacity:.3;"></rect><rect x="239.18079" y="376.8768" width="7.1343" height="3.913" style="fill:#fff; opacity:.3;"></rect><rect x="256.61149" y="375.1357" width="12.4399" height="5.6541" style="fill:#263238;"></rect><rect x="273.62419" y="375.1357" width="12.44" height="5.6541" style="fill:#263238;"></rect><rect x="290.63689" y="375.1357" width="12.44" height="5.6541" style="fill:#263238;"></rect><rect x="307.64969" y="375.1357" width="12.4399" height="5.6541" style="fill:#263238;"></rect><rect x="324.66239" y="375.1357" width="12.44" height="5.6541" style="fill:#263238;"></rect><rect x="171.9056" y="398.9198" width="40.9296" height="16.4006" style="opacity:.2;"></rect><g style="opacity:.2;"><path d="M178.2754,403.3936c0,.5525-.4479,1.0004-1.0004,1.0004s-1.0003-.4479-1.0003-1.0004,.4478-1.0004,1.0003-1.0004,1.0004,.4479,1.0004,1.0004Z"></path><circle cx="177.2241" cy="407.1201" r="1.0004"></circle><circle cx="177.2241" cy="410.8466" r="1.0004"></circle><path d="M182.3231,403.3936c0,.5525-.4478,1.0004-1.0003,1.0004s-1.0004-.4479-1.0004-1.0004,.4479-1.0004,1.0004-1.0004,1.0003,.4479,1.0003,1.0004Z"></path><circle cx="181.2718" cy="407.1201" r="1.0004"></circle><circle cx="181.2718" cy="410.8466" r="1.0004"></circle><rect x="186.4896" y="404.4777" width="8.5257" height=".9137"></rect><rect x="186.4896" y="406.3349" width="8.5257" height=".9137"></rect><rect x="186.4896" y="408.1922" width="8.5257" height=".9137"></rect><rect x="198.29279" y="404.4777" width="8.5256" height=".9137"></rect><rect x="198.29279" y="406.3349" width="8.5256" height=".9137"></rect><rect x="198.29279" y="408.1922" width="8.5256" height=".9137"></rect><rect x="186.5612" y="409.9099" width="8.5256" height=".9137"></rect><rect x="198.36429" y="409.9099" width="8.52571" height=".9137"></rect></g><g style="opacity:.2;"><path d="M334.94259,410.8466c0-.5525,.4478-1.0004,1.0003-1.0004s1.0004,.4479,1.0004,1.0004-.4479,1.0004-1.0004,1.0004-1.0003-.4479-1.0003-1.0004Z"></path><circle cx="335.99389" cy="407.1201" r="1.0004"></circle><circle cx="335.99389" cy="403.3936" r="1.0004"></circle><circle cx="331.89519" cy="410.8466" r="1.0004"></circle><path d="M330.94579,407.1201c0-.5525,.4479-1.0004,1.0004-1.0004s1.0003,.4479,1.0003,1.0004-.4478,1.0004-1.0003,1.0004-1.0004-.4479-1.0004-1.0004Z"></path><path d="M330.94579,403.3936c0-.5525,.4479-1.0004,1.0004-1.0004s1.0003,.4479,1.0003,1.0004-.4478,1.0004-1.0003,1.0004-1.0004-.4479-1.0004-1.0004Z"></path><rect x="318.20269" y="408.8489" width="8.5257" height=".9137" transform="translate(644.93108 818.6115) rotate(180)"></rect><rect x="318.20269" y="406.9916" width="8.5257" height=".9137" transform="translate(644.93108 814.8969) rotate(180)"></rect><rect x="318.20269" y="405.1344" width="8.5257" height=".9136" transform="translate(644.93108 811.1824) rotate(180)"></rect><rect x="306.39959" y="408.8489" width="8.5256" height=".9137" transform="translate(621.32478 818.6115) rotate(180)"></rect><rect x="306.39959" y="406.9916" width="8.5256" height=".9137" transform="translate(621.32478 814.8969) rotate(180)"></rect><rect x="306.39959" y="405.1344" width="8.5256" height=".9136" transform="translate(621.32478 811.1824) rotate(180)"></rect><rect x="318.13119" y="403.4166" width="8.5256" height=".9137" transform="translate(644.78798 807.7469) rotate(180)"></rect><rect x="306.328" y="403.4166" width="8.52569" height=".9137" transform="translate(621.18169 807.7469) rotate(180)"></rect></g><rect x="273.62419" y="375.1357" width="12.44" height="5.6541" style="fill:#fff; opacity:.3;"></rect><rect x="307.64969" y="375.1357" width="12.4399" height="5.6541" style="fill:#fff; opacity:.3;"></rect><rect x="217.111" y="399.3243" width="4.25589" height="15.8486" style="opacity:.2;"></rect><rect x="225.59759" y="399.3243" width="48.0266" height="15.8486" style="opacity:.2;"></rect><rect x="276.60789" y="399.3243" width="21.9189" height="15.8486" style="opacity:.2;"></rect><rect x="303.42579" y="399.3243" width="36.7277" height="15.8486" style="opacity:.2;"></rect></g><g><path d="M143.5812,388.0519c0,2.6916-2.3169,4.8735-5.1749,4.8735s-5.175-2.1819-5.175-4.8735,2.3169-4.8735,5.175-4.8735,5.1749,2.1819,5.1749,4.8735Z" style="fill:#263238;"></path><path d="M143.5812,388.0519c0,2.6916-2.3169,4.8735-5.1749,4.8735s-5.175-2.1819-5.175-4.8735,2.3169-4.8735,5.175-4.8735,5.1749,2.1819,5.1749,4.8735Z" style="fill:#fff; opacity:.3;"></path><g><path d="M134.5823,386.3681h-48.8289c-1.1032,0-1.9977,.894-1.9982,1.9972h0s50.8753-.0164,50.8271,0v-1.9972Z" style="fill:#263238;"></path><path d="M134.5823,386.3681h-48.8289c-1.1032,0-1.9977,.894-1.9982,1.9972h0s50.8753-.0164,50.8271,0v-1.9972Z" style="fill:#fff; opacity:.3;"></path></g><rect x="31.7514" y="395.798" width="125.751" height="24.0007" style="fill:#263238;"></rect><rect x="31.7514" y="395.798" width="125.751" height="24.0007" style="fill:#fff; opacity:.3;"></rect><rect x="51.9473" y="390.3459" width="76.7703" height="5.4521" style="fill:#407BFF;"></rect><rect x="132.2265" y="391.5224" width="12.4801" height="4.2756" style="fill:#263238;"></rect><rect x="42.9799" y="390.3459" width="3.3488" height="5.4521" style="fill:#263238;"></rect><rect x="38.1877" y="400.26" width="35.9679" height="15.4803" style="opacity:.3;"></rect><rect x="80.0308" y="401.2733" width="67.1196" height="10.6977" style="opacity:.3;"></rect><g><path d="M45.2358,405.2995c0,.7541-.6113,1.3655-1.3654,1.3655s-1.3654-.6114-1.3654-1.3655,.6113-1.3654,1.3654-1.3654,1.3654,.6113,1.3654,1.3654Z" style="fill:none; stroke:#fff; stroke-miterlimit:10;"></path><path d="M49.4596,405.2995c0,.7541-.6113,1.3655-1.3654,1.3655s-1.3655-.6114-1.3655-1.3655,.6114-1.3654,1.3655-1.3654,1.3654,.6113,1.3654,1.3654Z" style="fill:none; stroke:#407BFF; stroke-miterlimit:10;"></path><path d="M53.6833,405.2995c0,.7541-.6113,1.3655-1.3654,1.3655s-1.3654-.6114-1.3654-1.3655,.6113-1.3654,1.3654-1.3654,1.3654,.6113,1.3654,1.3654Z" style="fill:none; stroke:#fff; stroke-miterlimit:10;"></path><g><circle cx="43.8704" cy="410.225" r="1.3654" style="fill:none; stroke:#407BFF; stroke-miterlimit:10;"></circle><path d="M49.4596,410.225c0,.7541-.6113,1.3654-1.3654,1.3654s-1.3655-.6113-1.3655-1.3654,.6114-1.3654,1.3655-1.3654,1.3654,.6113,1.3654,1.3654Z" style="fill:none; stroke:#fff; stroke-miterlimit:10;"></path><circle cx="52.3179" cy="410.225" r="1.3654" style="fill:none; stroke:#407BFF; stroke-miterlimit:10;"></circle></g></g><rect x="57.624" y="404.1143" width="14.0236" height="1.1852" style="opacity:.3;"></rect><rect x="82.5119" y="404.1143" width="62.1947" height="1.1852" style="opacity:.3;"></rect><rect x="82.5119" y="406.2412" width="62.1947" height="1.1853" style="opacity:.3;"></rect><rect x="82.5119" y="408.3681" width="62.1947" height="1.1853" style="opacity:.3;"></rect><rect x="57.624" y="406.3774" width="14.0236" height="1.1853" style="opacity:.3;"></rect><rect x="57.624" y="408.6406" width="14.0236" height="1.1853" style="opacity:.3;"></rect><rect x="57.624" y="410.9038" width="14.0236" height="1.1852" style="opacity:.3;"></rect><rect x="132.2265" y="391.5224" width="12.4801" height="4.2756" style="fill:#fff; opacity:.3;"></rect></g><g><ellipse cx="458.29349" cy="388.0519" rx="5.175" ry="4.8735" style="fill:#263238;"></ellipse><ellipse cx="458.29349" cy="388.0519" rx="5.175" ry="4.8735" style="fill:#fff; opacity:.3;"></ellipse><g><path d="M454.46949,386.3681h-48.8289c-1.1032,0-1.9977,.894-1.9981,1.9972h0s50.8752-.0164,50.8271,0l-.0001-1.9972Z" style="fill:#263238;"></path><path d="M454.46949,386.3681h-48.8289c-1.1032,0-1.9977,.894-1.9981,1.9972h0s50.8752-.0164,50.8271,0l-.0001-1.9972Z" style="fill:#fff; opacity:.3;"></path></g><rect x="351.63859" y="395.798" width="125.7511" height="24.0007" style="fill:#263238;"></rect><rect x="351.63859" y="395.798" width="125.7511" height="24.0007" style="fill:#fff; opacity:.3;"></rect><rect x="371.83449" y="390.3459" width="76.7704" height="5.4521" style="fill:#407BFF;"></rect><rect x="452.11369" y="391.5224" width="12.4801" height="4.2756" style="fill:#263238;"></rect><rect x="362.86719" y="390.3459" width="3.3487" height="5.4521" style="fill:#263238;"></rect><rect x="358.07489" y="400.26" width="35.9679" height="15.4803" style="opacity:.3;"></rect><rect x="399.918" y="401.2733" width="67.11959" height="10.6977" style="opacity:.3;"></rect><g><path d="M365.123,405.2995c0,.7541-.61131,1.3655-1.36541,1.3655s-1.3654-.6114-1.3654-1.3655,.6113-1.3654,1.3654-1.3654,1.36541,.6113,1.36541,1.3654Z" style="fill:none; stroke:#fff; stroke-miterlimit:10;"></path><path d="M369.34679,405.2995c0,.7541-.6113,1.3655-1.3654,1.3655s-1.36539-.6114-1.36539-1.3655,.61129-1.3654,1.36539-1.3654,1.3654,.6113,1.3654,1.3654Z" style="fill:none; stroke:#407BFF; stroke-miterlimit:10;"></path><path d="M373.57049,405.2995c0,.7541-.6113,1.3655-1.3654,1.3655s-1.3654-.6114-1.3654-1.3655,.61131-1.3654,1.3654-1.3654,1.3654,.6113,1.3654,1.3654Z" style="fill:none; stroke:#fff; stroke-miterlimit:10;"></path><g><circle cx="363.75759" cy="410.225" r="1.3654" style="fill:none; stroke:#407BFF; stroke-miterlimit:10;"></circle><circle cx="367.98139" cy="410.225" r="1.3654" style="fill:none; stroke:#fff; stroke-miterlimit:10;"></circle><circle cx="372.20509" cy="410.225" r="1.3654" style="fill:none; stroke:#407BFF; stroke-miterlimit:10;"></circle></g></g><rect x="377.51129" y="404.1143" width="14.0235" height="1.1852" style="opacity:.3;"></rect><rect x="402.39909" y="404.1143" width="62.1947" height="1.1852" style="opacity:.3;"></rect><rect x="402.39909" y="406.2412" width="62.1947" height="1.1853" style="opacity:.3;"></rect><rect x="402.39909" y="408.3681" width="62.1947" height="1.1853" style="opacity:.3;"></rect><rect x="377.51129" y="406.3774" width="14.0235" height="1.1853" style="opacity:.3;"></rect><rect x="377.51129" y="408.6406" width="14.0235" height="1.1853" style="opacity:.3;"></rect><rect x="377.51129" y="410.9038" width="14.0235" height="1.1852" style="opacity:.3;"></rect><rect x="452.11369" y="391.5224" width="12.4801" height="4.2756" style="fill:#fff; opacity:.3;"></rect></g></g><g id="freepik--Musical_notes--inject-2"><g><path d="M137.081,228.1275c.1008,1.8984-1.5277,3.5284-3.6373,3.6404-2.1097,.1121-3.9016-1.336-4.0024-3.2346-.1009-1.8984,1.5275-3.5283,3.6371-3.6404,2.1097-.1121,3.9017,1.3361,4.0026,3.2346Z" style="fill:#407BFF;"></path><line x1="136.7375" y1="228.042" x2="131.9058" y2="209.8067" style="fill:none; stroke:#407BFF; stroke-miterlimit:10;"></line><path d="M131.8748,209.69l1.3779,5.2003c-.0172-.0651,.5756-.3749,.6235-.4011,1.2394-.678,2.6385-.7104,3.9993-.4492,.9495,.1822,1.8805,.4641,2.8396,.5845,2.148,.2696,4.0677-.7439,5.7131-2.0371,.1318-.1037,.2622-.2095,.3914-.3169,.1896-.1579,.3785-.3186,.5561-.4899-1.638-.0524-3.2718-.295-4.8401-.7764-1.5432-.4737-2.9846-1.2319-4.5711-1.5734-1.9426-.4181-4.0151-.4607-5.9113,.1953-.0597,.0207-.1192,.042-.1784,.0639Z" style="fill:#407BFF;"></path></g><g><path d="M404.77529,121.2367c.49471,1.7187-.65229,3.5577-2.562,4.1076-1.9099,.5499-3.8591-.3976-4.354-2.1163-.4948-1.7185,.6522-3.5575,2.5619-4.1074,1.90981-.55,3.8592,.3975,4.3541,2.1161Z" style="fill:#407BFF;"></path><line x1="404.44229" y1="121.2312" x2="396.14879" y2="105.5423" style="fill:none; stroke:#407BFF; stroke-miterlimit:10;"></line><path d="M396.09569,105.4419s2.3629,4.4699,2.3651,4.4741c-.0296-.056,.4481-.4655,.4864-.4998,.9923-.884,2.26781-1.2103,3.5703-1.2593,.9088-.0343,1.8218,.0267,2.7264-.0662,2.0258-.2082,3.5705-1.544,4.8044-3.078,.0989-.123,.196-.2476,.2916-.3734,.1402-.1849,.2794-.3722,.4058-.5669-1.5124,.2992-3.0612,.4231-4.60069,.3143-1.51471-.107-2.99651-.4964-4.52291-.4731-1.869,.0285-3.7776,.4288-5.3764,1.432-.0504,.0315-.1004,.0637-.15,.0963Z" style="fill:#407BFF;"></path></g><g><g><path d="M249.19389,84.9717c-.65489,1.6642-2.6051,2.4493-4.356,1.7538-1.75089-.6957-2.6394-2.6087-1.9845-4.2728,.6549-1.6643,2.6052-2.4495,4.356-1.7539,1.7509,.6957,2.6394,2.6087,1.9845,4.2729Z" style="fill:#407BFF;"></path><line x1="248.95449" y1="84.7719" x2="252.17719" y2="67.3623" style="fill:none; stroke:#407BFF; stroke-miterlimit:10;"></line></g><g><path d="M261.28059,89.4097c-.6548,1.6643-2.6282,2.4404-4.4074,1.7335-1.7794-.7068-2.691-2.6289-2.0361-4.2932,.6548-1.6641,2.6281-2.4403,4.4074-1.7334,1.7794,.7068,2.691,2.629,2.0361,4.2931Z" style="fill:#407BFF;"></path><line x1="261.04129" y1="89.21" x2="264.26389" y2="71.8004" style="fill:none; stroke:#407BFF; stroke-miterlimit:10;"></line></g><polygon points="263.13709 77.3664 250.97269 73.3478 251.36489 71.229 263.55329 75.1178 263.13709 77.3664" style="fill:#407BFF;"></polygon><polygon points="264.18279 74.2227 264.87169 70.6168 251.91819 66.3387 251.26569 70.398 264.18279 74.2227" style="fill:#407BFF;"></polygon></g><g><g><path d="M126.1846,131.9331c.1092,1.7851-1.3269,3.3204-3.2077,3.4294-1.8809,.1089-3.4943-1.2499-3.6035-3.0348-.1092-1.7852,1.327-3.3206,3.2078-3.4295,1.8809-.1089,3.4942,1.2499,3.6034,3.0349Z" style="fill:#407BFF;"></path><line x1="125.8832" y1="131.8531" x2="121.4516" y2="114.7113" style="fill:none; stroke:#407BFF; stroke-miterlimit:10;"></line></g><g><path d="M139.0148,130.8513c.1093,1.785-1.3516,3.3219-3.2629,3.4327-1.9114,.1108-3.5496-1.2465-3.6588-3.0317-.1093-1.7849,1.3515-3.3218,3.263-3.4326,1.9114-.1108,3.5495,1.2465,3.6587,3.0316Z" style="fill:#407BFF;"></path><line x1="138.7136" y1="130.7713" x2="134.2818" y2="113.6296" style="fill:none; stroke:#407BFF; stroke-miterlimit:10;"></line></g><polygon points="135.6112 119.1507 122.8877 120.6456 122.3484 118.5594 135.0388 116.9366 135.6112 119.1507" style="fill:#407BFF;"></polygon><polygon points="135.2314 115.8595 134.3329 112.2999 120.7845 113.8929 121.9074 117.848 135.2314 115.8595" style="fill:#407BFF;"></polygon></g><g><g><path d="M389.01139,261.6463c-.4817,1.7223-2.3417,2.7022-4.15439,2.1889-1.81271-.5134-2.89171-2.3258-2.41-4.048,.48169-1.7224,2.34169-2.7025,4.15439-2.1891,1.8127,.5135,2.8917,2.3259,2.41,4.0482Z" style="fill:#407BFF;"></path><line x1="388.75279" y1="261.472" x2="390.183" y2="243.8244" style="fill:none; stroke:#407BFF; stroke-miterlimit:10;"></line></g><g><path d="M401.48769,264.8284c-.4816,1.7223-2.3656,2.6956-4.2076,2.174-1.8422-.5217-2.94509-2.3408-2.4633-4.0632,.4816-1.7222,2.3654-2.6956,4.2076-2.1739,1.8421,.5217,2.9451,2.3408,2.4633,4.0631Z" style="fill:#407BFF;"></path><line x1="401.22929" y1="264.6541" x2="402.65929" y2="247.0066" style="fill:none; stroke:#407BFF; stroke-miterlimit:10;"></line></g><polygon points="402.10609 252.6585 389.59529 249.9016 389.76929 247.7538 402.29079 250.3791 402.10609 252.6585" style="fill:#407BFF;"></polygon><polygon points="402.82569 249.4245 403.14329 245.7671 389.82089 242.8326 389.58579 246.9372 402.82569 249.4245" style="fill:#407BFF;"></polygon></g></g></svg>
