<svg id="Capa_1" enable-background="new 0 0 512 512" height="512" viewBox="0 0 512 512" width="512" xmlns="http://www.w3.org/2000/svg"><g><path d="m508.163 435.292-15.846-27.178c-.001-.135-.001-.264-.001-.401-.121-40.282-3.225-66.58-6.867-84.506 15.651-11.244 18.391-32.284 12.502-47.952-4.982-13.258-21.737-25.254-33.934-11.9v-255.855c0-4.142-3.358-7.5-7.5-7.5s-7.5 3.358-7.5 7.5v139.716h-117.782v-139.716c0-4.142-3.358-7.5-7.5-7.5s-7.5 3.358-7.5 7.5v261.094c-3.035.39-6.029 1.312-8.838 2.792l-17.191 9.065c-1.966-3.551-6.411-4.907-10.03-3.016-3.632 1.899-5.055 6.355-3.225 10.006l-27.8 14.659c-1.948-3.599-6.426-4.981-10.067-3.079-3.654 1.911-5.075 6.41-3.194 10.072l-27.794 14.656c-1.928-3.647-6.444-5.055-10.104-3.142-3.671 1.919-5.09 6.451-3.171 10.122l.008.016-27.789 14.654-.018-.034c-1.919-3.67-6.45-5.09-10.122-3.171-3.671 1.919-5.09 6.451-3.171 10.122l.042.081-133.753 70.53c-12.342 6.509-20.009 19.282-20.009 33.336v18.125c0 20.74 16.719 37.612 37.27 37.612h353.394c4.142 0 7.5-3.358 7.5-7.5s-3.358-7.5-7.5-7.5h-353.394c-10.042 0-18.552-6.783-21.321-16.074l283.429-34.062c7.38-.887 14.435-3.14 20.967-6.698l31.634-17.229c6.352-3.46 13.529-5.289 20.755-5.289h82.161.027 25.581l14.692 25.2c2.349 4.028 2.397 9.061.128 13.134l-14.939 26.81c-4.884 8.764-14.08 14.208-24.002 14.208h-35.747c-4.142 0-7.5 3.358-7.5 7.5s3.358 7.5 7.5 7.5h35.747c15.357 0 29.575-8.394 37.105-21.906l14.939-26.811c4.838-8.68 4.733-19.406-.272-27.991zm-51.206-32.644-134.951-75.29 36.021-19.072c8.899 5.203 17.614 9.043 26.587 11.181 23.775 5.665 45.034-1.771 64.95-22.697 2.318-2.402 5.295-3.562 7.965-3.107 2.197.376 3.941 1.812 5.063 4.146l.297.825c1.865 5.184 4.325 12.024 6.684 22.193 4.857 23.076 7.317 54.228 7.696 81.821zm-7.94-187.648h-117.782v-16.333h117.782zm-117.782 15h117.782v49.806c-3.764 1.274-7.307 3.503-10.282 6.586-31.876 33.494-60.722 21.534-102.802-12.253-1.474-1.184-3.052-2.183-4.698-3.005zm143.458 44.018c2.962-5.613 8.775 5.343 9.216 6.516 4.036 10.738 1.645 19.529-2.514 25.406-1.493-5.248-3.123-9.847-4.89-13.776-2.653-7.492-3.419-15.102-1.812-18.146zm-25.676-111.802v21.45h-117.782v-21.45zm-434.008 303.717v-9.67c0-8.473 4.601-16.162 12.006-20.067l70.675-37.268c11.694 4.719 25.163 7.101 39.463 7.101 13.045 0 26.777-1.976 40.47-5.95 3.978-1.154 6.267-5.315 5.112-9.293-1.154-3.978-5.314-6.266-9.293-5.112-20.043 5.818-39.971 6.902-56.933 3.331l44.243-23.33c2.925 3.596 6.218 4.522 9.879 2.777 3.548-1.855 4.983-6.149 3.343-9.749l27.832-14.676c2.927 3.648 6.233 4.594 9.917 2.839 3.57-1.867 5.001-6.202 3.312-9.815l27.824-14.672c2.929 3.699 6.247 4.666 9.955 2.901 3.591-1.878 5.019-6.254 3.282-9.881l27.816-14.668c2.931 3.75 6.262 4.738 9.993 2.963 3.613-1.889 5.038-6.308 3.252-9.947l17.238-9.09c3.965-2.09 8.772-1.531 12.148 1.18 5.928 4.76 11.604 9.13 17.134 13.077l-142.189 75.285c-3.661 1.938-5.057 6.477-3.119 10.138 1.843 3.481 6.672 4.954 10.138 3.119l16.588-8.783 34.749 57.837zm329.804-56.169-31.634 17.229c-4.855 2.644-10.098 4.319-15.583 4.978l-21.435 2.576-37.776-62.875 67.941-35.884 119.841 66.86h-53.425c-9.724 0-19.382 2.461-27.929 7.116z"/><path d="m479.173 448.142c0-4.142-3.358-7.5-7.5-7.5h-113.407c-4.142 0-7.5 3.358-7.5 7.5s3.358 7.5 7.5 7.5h113.406c4.143 0 7.501-3.358 7.501-7.5z"/></g></svg>