<svg id="Capa_1" enable-background="new 0 0 512 512" height="512" viewBox="0 0 512 512" width="512" xmlns="http://www.w3.org/2000/svg"><g><path d="m511.362 457.182-6.235-37.239c-.033-.199-.075-.396-.124-.592-2.314-9.192-10.174-15.785-19.472-16.574-.358-.052-.724-.08-1.096-.08h-.784-351.608c-5.978-4.565-14.13-9.27-25.187-13.924-18.549-7.807-40.179-13.082-58.644-14.485 5.341-86.152 23.295-168.952 53.419-246.445 8.114 12.401 21.41 20.857 36.524 20.857h100.568c3.561 0 6.91 1.389 9.429 3.911l55.863 55.934c8.115 8.126 21.922 7.997 29.89-.277 7.86-8.164 7.597-21.472-.587-29.667l-57.318-57.388c-9.289-9.301-21.639-14.423-34.777-14.423h-66.198l-68.833-65.871c-2.993-2.864-7.74-2.76-10.604.233s-2.76 7.74.233 10.604l79.516 76.095c1.952 1.868 1.041 5.851-2.332 5.851-11.617 0-23.234 0-34.851 0-8.387 0-16.4-4.012-21.435-10.732l-70.084-93.568c-2.09-2.791-2.407-6.319-.846-9.438 1.556-3.108 4.556-4.964 8.026-4.964 2.32 0 4.521.884 6.2 2.49l14.24 13.627c2.992 2.863 7.74 2.76 10.604-.233s2.76-7.74-.233-10.604l-14.24-13.627c-4.484-4.29-10.368-6.653-16.571-6.653-9.134 0-17.35 5.078-21.44 13.252-4.095 8.185-3.231 17.819 2.254 25.143l34.673 46.29c-41.525 96.827-69.061 225.445-69.061 313.49v95.899c0 9.884 8.042 17.926 17.926 17.926h63.673c9.885 0 17.926-8.042 17.926-17.926v-8.104h308.39v8.104c0 9.884 8.042 17.926 17.926 17.926h35.413c9.884 0 17.926-8.042 17.926-17.926v-8.104h10.794c15.266.001 23.5-14.733 21.147-28.788zm-322.065-335.391h51.927c9.127 0 17.709 3.56 24.164 10.022l57.316 57.389c2.411 2.414 2.592 6.381.395 8.663-2.801 2.403-5.625 2.43-8.471.082l-55.863-55.934c-5.353-5.36-12.471-8.312-20.042-8.312h-47.659c.777-4.088.143-8.272-1.767-11.91zm-98.222-8.039c-32.839 81.633-52.298 169.156-57.876 260.329-6.367.372-11.876 1.394-16.462 3.056 5.55-97.854 26.701-191.417 62.975-278.555zm-6.309 380.322c0 1.613-1.312 2.926-2.926 2.926h-63.674c-1.613 0-2.926-1.312-2.926-2.926v-8.104h69.525v8.104zm-69.525-23.103v-72.796c0-2.936 1.473-4.59 4.602-6.121 2.941-1.438 8.623-3.151 18.992-3.151 18.019 0 42.434 5.376 62.203 13.696 21.583 9.084 31.245 18.844 31.245 24.486v43.885c-.002.001-82.475.001-117.042.001zm449.179 23.103c0 1.613-1.312 2.926-2.926 2.926h-35.413c-1.613 0-2.926-1.312-2.926-2.926v-8.104h41.264v8.104zm30.413-24.925c-.662.782-1.861 1.822-4.62 1.822h-342.932v-24.733h234.959c4.142 0 7.5-3.358 7.5-7.5s-3.358-7.5-7.5-7.5h-234.959c.367-4.571-.236-9.366-2.175-13.54h318.676c-.7 2.134-1.098 4.404-1.098 6.77 0 3.733-3.029 6.77-6.752 6.77h-40.276c-4.142 0-7.5 3.358-7.5 7.5s3.358 7.5 7.5 7.5h40.276c11.994 0 21.752-9.766 21.752-21.77 0-3.603 2.82-6.557 6.363-6.759 2.968.166 5.514 2.19 6.345 5.063l6.177 36.887c.631 3.774-.05 7.499-1.736 9.49z"/></g></svg>