<svg id="Capa_1" enable-background="new 0 0 512 512" height="512" viewBox="0 0 512 512" width="512" xmlns="http://www.w3.org/2000/svg"><g><path d="m437.02 74.98c-48.353-48.351-112.64-74.98-181.02-74.98-39.584 0-77.558 8.808-112.864 26.179-3.717 1.829-5.247 6.324-3.418 10.041s6.323 5.249 10.041 3.418c33.227-16.348 68.972-24.638 106.241-24.638 65.29 0 128.423 26.915 173.69 73.946-51.216 105.005-51.216 229.103 0 334.108-45.269 47.033-108.4 73.946-173.69 73.946-65.298 0-128.411-26.92-173.69-73.945 51.223-105.02 51.216-229.138-.021-334.152 12.624-13.094 26.836-24.882 42.491-35.065 3.472-2.259 4.456-6.904 2.198-10.376-2.259-3.473-6.904-4.456-10.376-2.198-73.013 47.491-116.602 127.766-116.602 214.736 0 68.38 26.629 132.667 74.98 181.02 48.353 48.351 112.64 74.98 181.02 74.98s132.667-26.629 181.02-74.98c48.351-48.353 74.98-112.64 74.98-181.02s-26.629-132.667-74.98-181.02zm-365.597 25.973c45.734 97.865 45.742 212.167.025 310.039-36.533-43.352-56.448-97.638-56.448-154.992 0-57.669 20.363-112.212 56.423-155.047zm369.129.055c36.533 43.353 56.448 97.638 56.448 154.992s-19.915 111.639-56.448 154.992c-45.709-97.853-45.709-212.131 0-309.984z"/><path d="m285.429 381.829c4.055 0 7.964 1.193 11.304 3.45 3.431 2.319 8.094 1.417 10.413-2.015s1.418-8.094-2.015-10.413c-5.829-3.939-12.643-6.022-19.702-6.022-19.426 0-35.229 15.804-35.229 35.229 0 19.426 15.804 35.229 35.229 35.229 18.51 0 31.437-14.487 31.437-35.229 0-4.142-3.357-7.5-7.5-7.5h-16.59c-4.143 0-7.5 3.358-7.5 7.5s3.357 7.5 7.5 7.5h8.122c-1.855 6.833-6.545 12.729-15.469 12.729-11.154 0-20.229-9.075-20.229-20.229-.001-11.154 9.074-20.229 20.229-20.229z"/><path d="m204.333 366.586c-4.142 0-7.5 3.358-7.5 7.5v55.511c0 4.142 3.358 7.5 7.5 7.5s7.5-3.358 7.5-7.5v-13.053l19.125 18.451c3.561 2.865 7.096 2.802 10.605-.19 2.876-2.981 2.791-7.729-.19-10.605l-24.324-23.466 22.221-20.426c3.049-2.803 3.249-7.547.446-10.597-2.801-3.049-7.546-3.249-10.597-.446l-17.286 15.889v-11.067c0-4.143-3.357-7.501-7.5-7.501z"/><path d="m298.491 148.591c0-23.43-19.062-42.491-42.491-42.491s-42.491 19.061-42.491 42.491 19.061 42.491 42.491 42.491 42.491-19.061 42.491-42.491zm-69.982 0c0-15.158 12.333-27.491 27.491-27.491 15.159 0 27.491 12.333 27.491 27.491 0 15.159-12.332 27.491-27.491 27.491s-27.491-12.332-27.491-27.491z"/><path d="m200.505 261.578c0 30.601 24.895 55.496 55.495 55.496 30.601 0 55.495-24.895 55.495-55.496s-24.894-55.496-55.495-55.496c-30.6 0-55.495 24.895-55.495 55.496zm55.495-40.496c22.329 0 40.495 18.166 40.495 40.496 0 22.329-18.166 40.496-40.495 40.496s-40.495-18.167-40.495-40.496c0-22.33 18.166-40.496 40.495-40.496z"/><path d="m170.505 261.578c0 47.142 38.353 85.495 85.495 85.495 11.467 0 22.609-2.247 33.12-6.679 3.816-1.609 5.606-6.008 3.997-9.825-1.61-3.817-6.011-5.606-9.825-3.997-8.655 3.65-17.838 5.5-27.292 5.5-38.871 0-70.495-31.624-70.495-70.495 0-23.463 11.668-45.334 31.213-58.504 4.11-3.66 4.387-7.59.831-11.79-12.1-10.91-19.04-26.47-19.04-42.692 0-31.701 25.791-57.491 57.491-57.491 31.701 0 57.491 25.79 57.491 57.491 0 16.222-6.939 31.783-19.04 42.692-3.556 4.2-3.279 8.13.831 11.79 19.545 13.17 31.213 35.041 31.213 58.504 0 19.109-7.566 37.016-21.307 50.422-2.964 2.893-3.022 7.642-.13 10.606 2.891 2.963 7.64 3.024 10.606.13 16.656-16.253 25.83-37.974 25.83-61.159 0-25.476-11.333-49.399-30.7-65.585 11.333-13.107 17.696-29.949 17.696-47.402 0-39.972-32.52-72.491-72.491-72.491s-72.491 32.519-72.491 72.491c0 17.453 6.363 34.294 17.696 47.402-19.366 16.188-30.699 40.111-30.699 65.587z"/><path d="m56.58 163.24c1.518 3.793 6.054 5.605 9.79 4.05 3.78-1.572 5.607-6.004 4.06-9.79-1.545-3.782-6.041-5.609-9.8-4.06-3.758 1.549-5.635 6.047-4.05 9.8z"/><path d="m68.8 346.33c-2.908-2.995-7.931-2.842-10.756.165-2.733 2.909-2.681 7.607.156 10.435 2.894 2.884 7.706 2.894 10.6 0 2.88-2.881 2.898-7.723 0-10.6z"/><path d="m65.54 204.05c-2.316 3.518-1.269 8.4 2.358 10.586 3.463 2.087 8.108.979 10.24-2.464 2.195-3.545 1.019-8.364-2.615-10.448-3.362-1.929-7.837-.934-9.983 2.326z"/><path d="m78.7 299.76c-1.581-3.743-5.939-5.594-9.718-4.08-3.733 1.496-5.643 5.827-4.219 9.591 1.415 3.74 5.631 5.734 9.421 4.458 4.033-1.358 6.175-6.036 4.516-9.969z"/><path d="m77.64 248.7c-3.795-1.516-8.209.26-9.79 4.06-1.569 3.773.287 8.237 4.06 9.8 3.774 1.563 8.226-.295 9.79-4.06 1.574-3.79-.299-8.213-4.06-9.8z"/><path d="m441.569 163.24c1.593 3.767 6.011 5.618 9.801 4.05 3.784-1.566 5.603-6.009 4.06-9.79-1.544-3.782-6.041-5.609-9.8-4.06-3.806 1.569-5.573 6.014-4.061 9.8z"/><path d="m455.43 348.76c-1.586-3.765-6.01-5.621-9.8-4.06-3.785 1.559-5.601 6.029-4.061 9.8 1.545 3.782 6.042 5.609 9.801 4.06 3.807-1.569 5.57-6.015 4.06-9.8z"/><path d="m433.3 211.09c1.591 3.761 6.003 5.621 9.79 4.05 3.782-1.569 5.617-6.007 4.06-9.79-1.555-3.776-6.02-5.622-9.79-4.06-3.779 1.566-5.625 6.019-4.06 9.8z"/><path d="m443.09 309.56c3.777-1.56 5.627-6.031 4.06-9.8-1.573-3.781-6.006-5.602-9.79-4.06s-5.62 6.043-4.06 9.8c1.579 3.802 5.995 5.575 9.79 4.06z"/><path d="m434.359 262.56c3.886 1.551 8.387-.351 9.877-4.289 1.406-3.715-.453-8.068-4.147-9.571-3.706-1.508-8.052.198-9.701 3.855-1.712 3.797.116 8.413 3.971 10.005z"/></g></svg>