<svg id="Capa_1" enable-background="new 0 0 512 512" height="512" viewBox="0 0 512 512" width="512" xmlns="http://www.w3.org/2000/svg"><g><path d="m410.66 309.336c-16.743 0-33.132 4.124-47.792 11.979-51.792-63.956-108.208-120.372-172.166-172.166 7.854-14.66 11.979-31.049 11.979-47.791 0-55.879-45.461-101.34-101.341-101.34-10.944 0-21.722 1.741-32.033 5.174-3.93 1.308-6.056 5.555-4.747 9.485s5.554 6.056 9.485 4.747c8.781-2.924 17.964-4.406 27.295-4.406 47.608 0 86.341 38.732 86.341 86.34 0 16.168-4.513 31.947-13.052 45.631-2.013 3.225-1.293 7.446 1.674 9.824 66.839 53.545 125.358 112.065 178.902 178.902 2.376 2.967 6.598 3.687 9.824 1.674 13.683-8.538 29.461-13.051 45.631-13.051 47.608 0 86.34 38.732 86.34 86.34 0 32.837-18.236 62.411-47.594 77.181-3.7 1.861-5.19 6.37-3.329 10.07 1.837 3.649 6.414 5.169 10.071 3.329 34.45-17.332 55.852-52.041 55.852-90.58 0-55.881-45.461-101.342-101.34-101.342z"/><path d="m424.43 495.926c-51.643 8.267-100.11-32.897-100.11-85.25 0-16.168 4.513-31.947 13.052-45.631 2.013-3.225 1.293-7.446-1.674-9.824-66.839-53.546-125.358-112.065-178.902-178.902-2.377-2.967-6.599-3.687-9.824-1.674-13.683 8.538-29.461 13.051-45.631 13.051-47.608 0-86.34-38.732-86.34-86.34 0-27.585 12.717-52.858 34.891-69.339 3.324-2.471 4.016-7.169 1.545-10.494-2.473-3.325-7.171-4.016-10.493-1.545-25.638 19.056-40.944 49.478-40.944 81.379 0 55.879 45.461 101.34 101.34 101.34 16.743 0 33.132-4.124 47.792-11.979 51.792 63.956 108.208 120.372 172.166 172.166-7.854 14.66-11.979 31.049-11.979 47.792 0 61.444 56.832 109.769 117.481 100.061 4.09-.655 6.875-4.501 6.22-8.591-.654-4.09-4.496-6.871-8.59-6.22z"/><path d="m47.5 108.857c4.143 0 7.5-3.358 7.5-7.5 0-25.552 20.788-46.34 46.341-46.34 4.143 0 7.5-3.358 7.5-7.5s-3.357-7.5-7.5-7.5c-33.823 0-61.341 27.517-61.341 61.34 0 4.142 3.357 7.5 7.5 7.5z"/><path d="m472 410.677c0-4.142-3.357-7.5-7.5-7.5s-7.5 3.358-7.5 7.5c0 25.552-20.788 46.34-46.341 46.34-4.143 0-7.5 3.358-7.5 7.5s3.357 7.5 7.5 7.5c33.823 0 61.341-27.517 61.341-61.34z"/></g></svg>