<svg id="Capa_1" enable-background="new 0 0 512 512" height="512" viewBox="0 0 512 512" width="512" xmlns="http://www.w3.org/2000/svg"><g><path d="m127.354 245.662c0 6.785 2.608 13.125 7.365 17.874l44.551 44.117c9.581 9.564 25.987 9.73 35.625.107l96.043-93.575c9.608-9.588 9.628-26.096.001-35.702-9.672-9.657-25.983-9.693-35.645-.087l-78.069 75.869-26.796-26.452c-9.686-9.668-26.049-9.668-35.731-.001-4.735 4.725-7.344 11.064-7.344 17.85zm17.942-7.236c4.858-3.87 9.713-3.86 14.567.03l32.054 31.642c2.905 2.868 7.569 2.886 10.496.041l83.37-81.021c.024-.023.048-.047.073-.071 3.844-3.839 10.614-3.816 14.488.05 3.899 4.793 3.92 9.595.063 14.405l-96.044 93.576c-4.847 3.969-9.686 3.947-14.516-.064l-44.552-44.117c-3.921-4.823-3.921-9.647.001-14.471z"/><path d="m485.545 427.579c4.142 0 7.5-3.358 7.5-7.5v-40.589c0-8.567-6.97-15.537-15.538-15.537h-23.355v-7.221c0-8.567-6.97-15.538-15.538-15.538h-9.454v-257.643c0-27.362-22.26-49.622-49.622-49.622h-17.583v-8.527c.001-14.007-11.394-25.402-25.435-25.402-14.007 0-25.402 11.395-25.402 25.402v8.527h-174.12v-8.526c0-14.007-11.395-25.403-25.436-25.403-14.007 0-25.402 11.396-25.402 25.402v8.526h-17.583c-27.362 0-49.622 22.26-49.622 49.622v301.451c0 27.362 22.26 49.622 49.622 49.622h108.255v39.081c0 8.567 6.97 15.537 15.537 15.537h23.355v7.221c0 8.567 6.97 15.537 15.537 15.537h32.736c8.567 0 15.537-6.97 15.537-15.537v-44.902h110.807v44.902c0 8.567 6.97 15.537 15.537 15.537h32.735c8.567 0 15.538-6.97 15.538-15.537v-7.221h23.355c8.567 0 15.538-6.97 15.538-15.537v-23.779c0-4.142-3.358-7.5-7.5-7.5s-7.5 3.358-7.5 7.5v23.779c0 .296-.241.537-.538.537h-23.355v-95.289h23.355c.296 0 .538.241.538.537v40.589c.001 4.143 3.359 7.501 7.501 7.501zm-79.666-86.384c-8.567 0-15.537 6.97-15.537 15.538v44.902h-110.807v-28.175c56.774-22.557 94.556-77.823 94.556-139.183 0-31.814-9.997-61.337-27.01-85.619h67.08v192.538h-8.282zm-79.761-315.793c0-5.735 4.667-10.402 10.436-10.402 5.735 0 10.402 4.667 10.402 10.402v32.054c0 5.735-4.667 10.402-10.402 10.402h-.034c-5.735 0-10.402-4.667-10.402-10.402zm-224.958 0c0-5.736 4.667-10.402 10.436-10.402 5.735 0 10.402 4.667 10.402 10.402v32.384c0 5.735-4.667 10.402-10.402 10.402h-.034c-5.735 0-10.402-4.667-10.402-10.402zm-32.583 23.527h17.583v8.858c0 14.007 11.395 25.402 25.402 25.402h.034c14.007 0 25.402-11.395 25.402-25.402v-8.858h174.121v8.527c0 14.007 11.395 25.402 25.402 25.402h.034c14.007 0 25.402-11.395 25.402-25.402v-8.527h17.583c19.091 0 34.622 15.531 34.622 34.622v50.106h-79.072c-27.466-30.171-67.071-49.142-111.032-49.142-22.179 0-43.536 4.72-63.479 14.027-3.753 1.752-5.375 6.215-3.624 9.968 1.752 3.754 6.214 5.375 9.968 3.625 17.94-8.374 37.163-12.62 57.134-12.62 74.458 0 135.033 60.454 135.033 134.761 0 53.194-31.559 101.299-79.556 122.899v-.443c0-8.567-6.97-15.538-15.537-15.538h-32.736c-8.567 0-15.537 6.97-15.537 15.538v7.221h-23.355c-1.237 0-2.434.161-3.588.435-58.843-15.83-99.756-69.026-99.756-130.112 0-41.39 19.402-80.883 52.014-106.291 3.268-2.546 3.853-7.258 1.307-10.526s-7.258-3.854-10.526-1.307c-6.872 5.354-13.194 11.213-18.934 17.505h-78.931v-50.106c0-19.091 15.532-34.622 34.622-34.622zm0 370.695c-19.091 0-34.622-15.531-34.622-34.622v-236.345h66.934c-17.356 24.783-26.864 54.431-26.864 85.619 0 65.167 41.895 122.252 103.093 142.283-.182.95-.286 1.928-.286 2.931v40.133h-108.255zm123.792 54.618c-.296 0-.537-.241-.537-.537v-94.215c0-.296.241-.537.537-.537h23.355v95.289zm72.166 22.221c0 .296-.241.537-.537.537h-32.736c-.296 0-.537-.241-.537-.537v-139.73c0-.296.241-.538.537-.538h32.736c.296 0 .537.241.537.538zm15-59.902v-19.926h110.807v19.926zm159.617 59.902c0 .296-.241.537-.538.537h-32.735c-.296 0-.537-.241-.537-.537v-139.73c0-.296.241-.538.537-.538h32.735c.296 0 .538.241.538.538z"/></g></svg>