<svg id="Capa_1" enable-background="new 0 0 512 512" height="512" viewBox="0 0 512 512" width="512" xmlns="http://www.w3.org/2000/svg"><g><path d="m338.059 433.617c.347 5.263 6.156 8.59 10.878 6.194 34.711-17.62 63.728-44.893 83.912-78.872 20.206-34.015 30.248-72.545 29.039-111.426-.164-5.251-5.802-8.774-10.598-6.596-33.873 15.384-64.234 44.131-85.49 80.948-20.246 35.066-30.098 74.044-27.741 109.752zm108.825-171.675c-1.05 31.928-10.264 63.278-26.931 91.337-16.637 28.006-39.721 51.094-67.219 67.349.479-29.413 9.545-60.666 26.056-89.262 17.433-30.195 41.318-54.465 68.094-69.424z"/><path d="m368.886 83.77c-33.27-21.877-72.305-33.44-112.887-33.44-40.581 0-79.616 11.564-112.884 33.44-4.319 2.84-4.454 9.338-.258 12.356 30.295 21.783 70.478 33.779 113.144 33.779s82.848-11.997 113.144-33.779c4.194-3.018 4.059-9.517-.259-12.356zm-112.886 31.135c-35.159 0-68.361-8.689-94.806-24.644 28.56-16.344 61.096-24.931 94.804-24.932 33.709 0 66.247 8.587 94.807 24.932-26.444 15.954-59.646 24.644-94.805 24.644z"/><path d="m53.646 243.379c-2.13 1.325-3.456 3.627-3.534 6.135-1.256 40.602 9.69 81.304 31.294 115.712 19.977 31.819 48.214 57.61 81.657 74.585 4.722 2.396 10.531-.932 10.878-6.194 2.356-35.708-7.496-74.686-27.741-109.752-21.256-36.816-51.617-65.564-85.49-80.948-2.285-1.037-4.936-.864-7.064.462zm79.564 87.986c16.511 28.598 25.579 59.856 26.056 89.271-26.401-15.566-48.772-37.29-65.156-63.385-17.994-28.66-27.973-61.498-29.018-95.322 26.784 14.958 50.68 39.234 68.118 69.436z"/><path d="m437.02 74.98c-48.353-48.351-112.64-74.98-181.02-74.98-30.759 0-60.862 5.413-89.474 16.088-3.881 1.448-5.853 5.768-4.405 9.648s5.768 5.852 9.648 4.405c26.929-10.047 55.269-15.141 84.231-15.141 64.374 0 124.894 25.068 170.413 70.587s70.587 106.039 70.587 170.413-25.068 124.894-70.587 170.413-106.039 70.587-170.413 70.587-124.894-25.068-170.413-70.587-70.587-106.039-70.587-170.413c0-45.056 12.511-88.992 36.18-127.059 23.025-37.032 55.644-67.174 94.329-87.168 3.68-1.902 5.121-6.427 3.219-10.106-1.901-3.68-6.427-5.123-10.106-3.219-41.086 21.235-75.728 53.246-100.181 92.573-25.148 40.446-38.441 87.121-38.441 134.979 0 68.38 26.629 132.667 74.98 181.02 48.353 48.351 112.64 74.98 181.02 74.98s132.667-26.629 181.02-74.98c48.351-48.353 74.98-112.64 74.98-181.02s-26.629-132.667-74.98-181.02z"/><path d="m64.243 211.877c3.672.988 8.195-1.596 9.188-5.298 7.866-29.291 22.976-56.64 43.696-79.089 2.81-3.044 2.619-7.789-.424-10.598-3.044-2.81-7.79-2.619-10.598.424-22.36 24.226-38.667 53.747-47.16 85.372-1.075 4.001 1.297 8.115 5.298 9.189z"/><path d="m445.807 212.134c4.446 0 8.428-5.056 7.248-9.447-8.493-31.624-24.8-61.145-47.16-85.37-2.809-3.043-7.554-3.233-10.598-.424-3.043 2.809-3.234 7.554-.424 10.598 20.72 22.449 35.83 49.797 43.696 79.087.899 3.348 3.928 5.556 7.238 5.556z"/><path d="m205.196 445.558c-.917 4.04 1.614 8.058 5.653 8.975 14.737 3.346 29.928 5.042 45.15 5.042 16.054 0 32.052-1.885 47.548-5.602 4.028-.966 6.51-5.015 5.543-9.042s-5.015-6.51-9.042-5.543c-27.96 6.706-57.835 6.884-85.878.518-4.038-.92-8.056 1.613-8.974 5.652z"/><path d="m256 216.217c-21.936 0-39.783 17.847-39.783 39.783s17.847 39.782 39.783 39.782c4.142 0 7.5-3.358 7.5-7.5s-3.358-7.5-7.5-7.5c-13.665 0-24.783-11.117-24.783-24.782s11.118-24.783 24.783-24.783 24.783 11.118 24.783 24.783c0 5.098-1.551 10.003-4.485 14.186-2.379 3.391-1.559 8.068 1.832 10.447 3.391 2.378 8.068 1.559 10.447-1.832 4.714-6.719 7.206-14.603 7.206-22.801 0-21.936-17.847-39.783-39.783-39.783z"/><path d="m256 182.59c-40.479 0-73.41 32.932-73.41 73.41s32.932 73.41 73.41 73.41 73.41-32.932 73.41-73.41-32.931-73.41-73.41-73.41zm0 131.82c-32.208 0-58.41-26.203-58.41-58.41s26.203-58.41 58.41-58.41 58.41 26.203 58.41 58.41-26.202 58.41-58.41 58.41z"/><path d="m234.28 378.38c3.853 1.625 8.394-.396 9.878-4.268 1.458-3.805-.546-8.234-4.355-9.671-3.735-1.409-8.051.44-9.584 4.139-1.57 3.792.3 8.213 4.061 9.8z"/><path d="m268.62 375.62c2.279 3.462 7.099 4.311 10.492 2.006 3.373-2.292 4.212-7.088 1.913-10.428-2.186-3.176-6.583-4.152-9.919-2.235-3.723 2.14-4.837 7.091-2.486 10.657z"/><path d="m373.2 210.23c-1.588-3.764-5.996-5.624-9.79-4.06-3.786 1.561-5.601 6.024-4.06 9.8 1.544 3.783 6.04 5.612 9.8 4.06 3.756-1.551 5.634-6.048 4.05-9.8z"/><path d="m344.56 187.37c3.763 1.589 8.232-.3 9.783-4.054 1.558-3.773-.264-8.239-4.053-9.796-3.782-1.555-8.22.278-9.79 4.06-1.544 3.719.259 8.303 4.06 9.79z"/><path d="m158.34 184.61c2.251 3.419 7.011 4.325 10.4 2.07 3.485-2.319 4.348-7.202 1.927-10.6-2.266-3.181-6.726-4.038-10.04-2.008-3.581 2.195-4.579 7.057-2.287 10.538z"/><path d="m139.49 217.26c2.183 3.315 6.73 4.279 10.111 2.256 3.352-2.005 4.571-6.449 2.759-9.898-1.948-3.708-6.747-5.122-10.383-3.015-3.684 2.135-4.881 7.111-2.487 10.657z"/></g></svg>