<svg id="Capa_1" enable-background="new 0 0 512 512" height="512" viewBox="0 0 512 512" width="512" xmlns="http://www.w3.org/2000/svg"><g><path d="m487.322 328.8h-12.419c-9.221 0-17.272 5.087-21.508 12.6h-39.395c-17.957 0-35.537 6.189-49.5 17.428-12.176 9.8-21.209 23.09-25.87 37.88h-266.925c-14.742 0-26.735-11.993-26.735-26.733 0-14.727 11.981-26.719 26.707-26.734l172.352-.159c4.142-.004 7.497-3.365 7.493-7.507-.004-4.14-3.361-7.493-7.5-7.493-.002 0-.004 0-.007 0l-172.352.159c-22.989.022-41.692 18.744-41.692 41.734 0 23.012 18.723 41.733 41.735 41.733h235.16v14.969h-235.161c-31.267 0-56.705-25.437-56.705-56.702 0-31.234 25.413-56.671 56.648-56.702l235.773-.217c13.652-.013 24.76-11.132 24.76-24.786 0-13.667-11.119-24.785-24.786-24.785h-102.79c-21.922 0-39.756-17.833-39.756-39.754 0-21.898 17.817-39.732 39.716-39.754l235.773-.216c22.989-.023 41.692-18.745 41.692-41.734 0-23.012-18.723-41.733-41.735-41.733h-235.795v-14.971h235.795c31.268 0 56.705 25.437 56.705 56.702 0 31.234-25.413 56.671-56.648 56.702l-235.772.217c-13.652.014-24.76 11.133-24.76 24.786 0 13.667 11.119 24.786 24.786 24.786h102.789c21.922 0 39.756 17.833 39.756 39.754 0 21.899-17.816 39.732-39.716 39.754l-33.572.031c-4.143.004-7.497 3.365-7.493 7.507.004 4.14 3.36 7.493 7.5 7.493h.007l33.573-.031c30.162-.03 54.701-24.593 54.701-54.754 0-30.191-24.563-54.754-54.756-54.754h-102.79c-5.396 0-9.786-4.39-9.786-9.786 0-5.39 4.385-9.78 9.774-9.786l235.772-.217c39.5-.039 71.635-32.204 71.635-71.702 0-39.537-32.167-71.702-71.705-71.702h-266.215c-9.427-33.754-40.57-57.723-76.08-57.723h-39.395c-4.236-7.513-12.287-12.6-21.508-12.6h-12.419c-13.608 0-24.678 11.07-24.678 24.678v23.35c0 4.142 3.358 7.5 7.5 7.5s7.5-3.358 7.5-7.5v-23.35c0-5.337 4.341-9.678 9.678-9.678h12.419c5.336 0 9.678 4.341 9.678 9.678v133.844c0 5.336-4.341 9.678-9.678 9.678h-12.419c-5.336 0-9.678-4.341-9.678-9.678v-80.547c0-4.142-3.358-7.5-7.5-7.5s-7.5 3.358-7.5 7.5v80.547c0 13.607 11.07 24.678 24.678 24.678h12.419c9.222 0 17.273-5.088 21.508-12.6h39.395c17.958 0 35.537-6.189 49.5-17.428 12.176-9.8 21.209-23.09 25.869-37.88h266.925c14.742 0 26.735 11.993 26.735 26.733 0 14.726-11.981 26.719-26.707 26.734l-235.773.216c-30.162.031-54.701 24.593-54.701 54.754 0 30.192 24.563 54.754 54.756 54.754h102.789c5.396 0 9.786 4.39 9.786 9.785 0 5.391-4.385 9.78-9.774 9.786l-235.772.217c-39.498.041-71.633 32.206-71.633 71.704 0 39.537 32.167 71.702 71.705 71.702h266.208c9.421 33.792 40.472 57.723 76.087 57.723h39.395c4.235 7.512 12.286 12.6 21.508 12.6h12.419c13.608 0 24.678-11.07 24.678-24.678v-133.844c0-13.607-11.07-24.678-24.678-24.678zm-297.822-228.508h-40.642c-4.127 0-7.485-3.357-7.485-7.484s3.358-7.484 7.485-7.484h40.642zm-91.5 55.308h-36.226v-128h36.226c27.336 0 51.485 17.525 60.374 42.724h-9.516c-12.398 0-22.485 10.086-22.485 22.484s10.087 22.484 22.485 22.484h8.622c-9.527 24.139-32.781 40.308-59.48 40.308zm223.865 256.108h22.457c.009 0 .017.001.026.001.006 0 .011-.001.017-.001h18.778c4.127 0 7.484 3.357 7.484 7.484s-3.357 7.484-7.484 7.484h-41.277v-14.968zm31.765 29.969h9.513c12.397 0 22.484-10.086 22.484-22.484s-10.087-22.484-22.484-22.484h-8.623c9.527-24.14 32.781-40.308 59.48-40.308h36.226v128h-36.226c-27.417-.001-51.493-17.502-60.37-42.724zm143.37 45.645c0 5.336-4.342 9.678-9.678 9.678h-12.419c-5.336 0-9.678-4.341-9.678-9.678v-133.844c0-5.336 4.342-9.678 9.678-9.678h12.419c5.336 0 9.678 4.341 9.678 9.678z"/></g></svg>