<svg id="Capa_1" enable-background="new 0 0 511.996 511.996" height="512" viewBox="0 0 511.996 511.996" width="512" xmlns="http://www.w3.org/2000/svg"><g><path d="m229.979 368.675c4.409 3.72 11.159 5.575 16.881 4.598l61.989-10.583c10.004-1.708 17.265-10.314 17.265-20.463 0-11.447-9.312-20.759-20.759-20.759h-61.988c-11.447 0-20.76 9.312-20.76 20.759v10.583c0 6.129 2.688 11.912 7.372 15.865zm81.135-26.449c0 2.816-2.015 5.204-4.79 5.677h.001l-21.056 3.595c-1.097-4.928-1.762-9.955-2.017-15.031h22.104c3.175 0 5.758 2.584 5.758 5.759zm-73.507 0c0-3.176 2.584-5.759 5.76-5.759h24.865c.255 5.925 1.007 11.795 2.246 17.557l-26.141 4.463c-4.002.192-6.245-1.7-6.729-5.677v-10.584z"/><path d="m485.767 460.694h-19.096l-18.732-55.692c18.952-19.476 29.737-45.845 29.737-73.106 0-26.115-9.667-51.133-27.221-70.443-16.317-17.951-38.164-29.608-61.953-33.164l-47.565-141.415h51.268c15.514 0 30.497-4.607 43.33-13.324l47.99-32.596c.077-.052.153-.106.229-.161 10.031-7.374 12.218-21.553 4.875-31.607-3.522-4.824-8.806-7.993-14.876-8.921-5.896-.902-11.965.52-16.665 3.904-2.281 1.549-47.021 31.914-47.021 31.914-5.291 3.591-11.468 5.489-17.862 5.489h-82.474c-6.112 0-12.07 2.57-16.345 7.053-4.282 4.489-6.571 10.572-6.282 16.688.074 1.563.321 3.087.716 4.557.064.34.143.68.256 1.018l19.43 57.763-131.191 161.54h-28.864c-3.17 0-6.285.237-9.339.665l-45.023-133.921c19.258-6.872 38.184-14.777 57.235-22.199 7.908-3.081 13.019-10.556 13.019-19.043 0-11.269-9.169-20.437-20.438-20.437h-75.929c-4.076 0-7.851 4.301-7.455 8.335.338 4.253 5.282 7.721 9.361 6.665h74.021c2.999 0 5.438 2.439 5.438 5.437 0 2.258-1.359 4.247-3.464 5.066-21.079 8.212-42.023 17.567-63.628 24.332-9.046 3.101-18.808 4.916-28.225 6.402-8.521 1.224-17.144 1.846-25.837 1.846-2.999 0-5.438-2.439-5.438-5.437v-32.209c0-2.998 2.439-5.437 5.438-5.437 3.375-.127 6.833.384 10.173.23 4-.194 7.116-3.488 7.137-7.446.121-3.863-3.652-7.785-7.496-7.785h-9.813c-11.27 0-20.438 9.168-20.438 20.437v32.209c0 11.269 9.169 20.437 20.438 20.437 7.334 0 14.623-.413 21.849-1.219l48.786 145.114c-10.779 11.891-17.355 27.658-17.355 44.933 0 13.423 3.995 26.293 11.266 37.171l-53.889 66.356h-11.617c-14.145 0-25.652 11.507-25.652 25.651s11.508 25.651 25.652 25.651h391.086c4.143 0 7.5-3.358 7.5-7.5s-3.357-7.5-7.5-7.5h-391.086c-5.874 0-10.652-4.778-10.652-10.651s4.778-10.651 10.652-10.651h459.539c5.874 0 10.652 4.778 10.652 10.651s-4.778 10.651-10.652 10.651h-38.926c-4.143 0-7.5 3.358-7.5 7.5s3.357 7.5 7.5 7.5h38.926c14.145 0 25.652-11.507 25.652-25.651s-11.507-25.65-25.652-25.65zm-46.412-189.152c15.038 16.544 23.32 37.978 23.32 60.354 0 21.06-7.11 40.83-20.225 56.788l-48.452-144.054c17.359 4.183 33.159 13.493 45.357 26.912zm-135.114-212.564c1.479-1.551 3.429-2.405 5.49-2.405h82.474c9.411 0 18.5-2.793 26.286-8.078 47.148-32 47.152-32.002 47.235-32.061.032-.022.063-.045.095-.068 1.539-1.124 3.605-1.586 5.663-1.273 2.094.32 3.88 1.364 5.03 2.94 2.415 3.308 1.698 8.136-1.553 10.606l-47.854 32.504c-10.337 7.021-22.406 10.732-34.902 10.732h-61.865c-.004 0-.008 0-.013 0h-20.083c-4.235 0-7.971-3.328-8.156-7.269-.098-2.072.667-4.07 2.153-5.628zm17.513 75.923c1.62-1.996 2.106-4.683 1.286-7.119l-13.768-40.932c.323.013.646.024.972.024h14.868l50.421 149.907c.113.499.276.98.484 1.439l74.829 222.474h-15.828l-14.392-42.788c-.005-.016-.01-.031-.016-.046l-61.654-183.299-19.98-59.403c-.871-2.591-3.084-4.503-5.774-4.989-2.688-.486-5.433.53-7.156 2.652l-95.319 117.37h-35.087zm-174.376 289.252c7.378-.001 14.747-1.466 21.957-2.943.011 5.181 1.987 10.358 5.931 14.302h.001c3.955 3.955 9.15 5.932 14.346 5.932s10.392-1.978 14.348-5.933l20.991-20.992c1.309-1.309 2.4-2.774 3.292-4.34l63.597-11.908c19.994 24.454 49.27 38.39 81.059 38.39 12.46 0 24.556-2.141 36.067-6.371l10.227 30.404h-307.613l29.89-36.805c1.959.174 3.93.264 5.907.264zm66.967-20.241-20.991 20.992c-2.062 2.062-5.418 2.063-7.481 0h.001c-2.062-2.062-2.062-5.418 0-7.48l20.993-20.993c2.493-2.066 4.986-2.066 7.479 0 2.065 2.495 2.065 4.988-.001 7.481zm35.705-113.721 79.052-97.339 13.073 38.866c-29.33 8.941-53.155 30.187-65.408 58.473zm96.908-44.252 14.884 44.251h-68.476c11.173-21.371 30.395-37.296 53.592-44.251zm57.222 170.123c-9.971 3.715-20.463 5.599-31.281 5.599-24.386 0-47.049-9.574-63.824-26.617l82.82-15.507zm-325.405-254.628 44.775 133.181c-4.774 1.83-9.293 4.177-13.472 6.997l-45.98-136.767c4.931-.945 9.824-2.086 14.677-3.411zm31.848 159.09c11.308-9.337 21.064-15.333 36.828-15.333h219.436l20.179 59.99-156.964 29.39c-.935-3.271-2.678-6.272-5.15-8.744-7.828-7.828-20.866-7.828-28.693 0l-5.564 5.564-10.355-10.355c4.999-6.651 7.966-14.912 7.966-23.854 0-21.938-17.849-39.785-39.788-39.785s-39.788 17.847-39.788 39.785 17.849 39.785 39.788 39.785c7.582 0 14.673-2.133 20.71-5.828l10.859 10.859-2.385 2.385-20.645 3.865c-15.252 2.871-30.851-1.169-42.797-11.078-11.942-9.906-18.792-24.487-18.792-40.002.001-14.285 4.924-28.196 15.155-36.644zm43.199 33.993c-2.93-2.929-7.678-2.929-10.607 0s-2.929 7.678 0 10.606l14.906 14.906c-2.955 1.246-6.199 1.936-9.602 1.936-13.668 0-24.788-11.118-24.788-24.785s11.12-24.785 24.788-24.785 24.788 11.118 24.788 24.785c0 4.797-1.375 9.278-3.744 13.076zm-52.22 51.466c6.737 6.318 14.747 11.228 23.456 14.321l-32.801 40.39h-35.087z"/></g></svg>