<svg id="Capa_1" enable-background="new 0 0 512 512" height="512" viewBox="0 0 512 512" width="512" xmlns="http://www.w3.org/2000/svg"><g><path d="m383.783 204.456c-4.591-3.838-5.744-10.399-2.741-15.601l46.24-80.082c27.093-46.923-8.747-108.773-62.805-108.773h-216.954c-54.055 0-89.905 61.839-62.805 108.773l46.352 80.276c3.001 5.198 1.844 11.762-2.751 15.608-44.894 37.583-71.006 92.454-71.639 150.541-.548 50.212 17.647 98.378 51.233 135.626 12.134 13.458 29.595 21.176 47.907 21.176h149.529c4.787-.495 7.283-3.147 7.486-7.956-.282-4.636-4.562-8.009-9.081-7.044h-147.934c-14.071 0-27.472-5.912-36.767-16.22-31.056-34.442-47.88-78.983-47.374-125.417.585-53.7 24.74-104.437 66.269-139.203 10.193-8.534 12.764-23.089 6.112-34.611l-38.6-66.851h28.97l31.951 55.337c6.332 10.966 20.378 16.2 32.391 12.242 19.228-6.335 39.291-9.421 59.621-9.158 18.825.24 37.368 3.315 55.116 9.142 12.199 4.003 25.726-1.172 32.158-12.312l31.902-55.251h28.97l-38.488 66.657c-6.657 11.529-4.087 26.084 6.11 34.609 42.052 35.158 66.17 86.717 66.17 141.457 0 45.69-16.848 89.521-47.439 123.419-9.268 10.27-22.65 16.16-36.715 16.16h-20.846c-4.142 0-7.5 3.358-7.5 7.5s3.358 7.5 7.5 7.5h20.846c18.303 0 35.744-7.695 47.852-21.111 33.083-36.66 51.303-84.06 51.303-133.469 0-59.195-26.079-114.948-71.549-152.964zm8.615-148.028c-5.908-10.233-16.345-16.342-27.921-16.342h-162.544c-4.142 0-7.5 3.358-7.5 7.5s3.358 7.5 7.5 7.5h162.544c12.62 0 21.517 15.023 15.096 26.143l-46.896 81.22c-2.901 5.026-8.996 7.364-14.489 5.56-19.199-6.303-39.252-9.63-59.604-9.889-21.98-.28-43.699 3.055-64.506 9.91-5.613 1.852-11.799-.462-14.706-5.496l-46.946-81.305c-6.439-11.153 2.437-26.143 15.096-26.143h24.488c4.142 0 7.5-3.358 7.5-7.5s-3.358-7.5-7.5-7.5h-24.488c-24.071 0-40.188 27.682-28.086 48.643l6.333 10.969h-28.935c-19.922-37.158 8.653-84.698 50.689-84.698h216.954c42.033 0 70.61 47.542 50.689 84.698h-28.936l6.333-10.969c5.787-10.022 5.725-22.098-.165-32.301z"/><path d="m302.592 215.514c-29.994-9.846-62.975-9.844-92.867.004-3.935 1.296-6.073 5.536-4.777 9.47 1.21 3.673 5.835 5.974 9.47 4.777 26.873-8.854 56.524-8.853 83.495 0 3.936 1.291 8.173-.851 9.465-4.787s-.85-8.172-4.786-9.464z"/><path d="m231.08 301.59c-4.142 0-7.5 3.358-7.5 7.5v66.979c0 4.142 3.358 7.5 7.5 7.5s7.5-3.358 7.5-7.5v-19.398l25.704 24.796c3.561 2.865 7.096 2.801 10.605-.191 2.875-2.981 2.79-7.729-.191-10.605l-30.535-29.457 28.025-25.758c3.05-2.803 3.25-7.547.447-10.597s-7.547-3.25-10.597-.447l-23.458 21.56v-16.882c0-4.142-3.358-7.5-7.5-7.5z"/><path d="m318.293 316.59c5.21 0 10.233 1.533 14.528 4.435 3.433 2.319 8.094 1.416 10.413-2.017 2.319-3.432 1.416-8.094-2.017-10.413-6.783-4.583-14.71-7.005-22.924-7.005-22.604 0-40.993 18.388-40.993 40.99s18.389 40.99 40.993 40.99c21.439 0 36.413-16.855 36.413-40.99 0-4.142-3.358-7.5-7.5-7.5h-20.039c-4.142 0-7.5 3.358-7.5 7.5s3.358 7.5 7.5 7.5h11.79c-1.983 9.647-8.104 18.49-20.664 18.49-14.333 0-25.993-11.659-25.993-25.99s11.661-25.99 25.993-25.99z"/><path d="m185.193 369.32c-6.533.125-12.076-4.608-12.972-11.024-.572-4.102-4.364-6.96-8.465-6.391-4.102.573-6.963 4.363-6.391 8.465 1.919 13.749 13.713 23.954 27.561 23.953.188 0 .379-.002.568-.006 14.511-.292 26.466-11.866 27.218-26.35.808-15.554-12.145-29.295-27.789-29.295-1.657 0-3.149.062-4.519.18l1.99-12.009h18.611c4.142 0 7.5-3.358 7.5-7.5s-3.358-7.5-7.5-7.5h-24.971c-3.669 0-6.799 2.654-7.399 6.274l-4.947 29.855c-1.052 6.342 5.457 10.3 11.339 7.657 2.705-1.217 4.72-1.957 9.895-1.957 7.271 0 13.185 6.266 12.809 13.517-.343 6.668-5.852 11.996-12.538 12.131z"/><path d="m312.112 446.5h-112.224c-4.142 0-7.5 3.358-7.5 7.5s3.358 7.5 7.5 7.5h112.225c4.142 0 7.5-3.358 7.5-7.5s-3.359-7.5-7.501-7.5z"/></g></svg>