<svg id="Capa_1" enable-background="new 0 0 512 512" height="512" viewBox="0 0 512 512" width="512" xmlns="http://www.w3.org/2000/svg"><g><path d="m504.5 352.525c4.142 0 7.5-3.358 7.5-7.5v-32.913c0-9.649-7.851-17.5-17.5-17.5h-39.5c-9.649 0-17.5 7.851-17.5 17.5v26.121h-75.156v-78.518c11.639-3.624 20.634-13.288 23.322-25.305h51.834v21.122c0 9.649 7.851 17.5 17.5 17.5h29.5c9.649 0 17.5-7.851 17.5-17.5v-85.42c0-9.649-7.851-17.5-17.5-17.5h-29.5c-9.649 0-17.5 7.851-17.5 17.5v21.121h-75.156v-78.518c11.639-3.624 20.634-13.288 23.322-25.305h51.834v16.121c0 9.649 7.851 17.5 17.5 17.5h19.5c9.649 0 17.5-7.851 17.5-17.5v-75.418c0-9.649-7.851-17.5-17.5-17.5h-19.5c-9.649 0-17.5 7.851-17.5 17.5v16.121h-75.156v-31.734c0-6.893-5.607-12.5-12.5-12.5h-21.688c-6.893 0-12.5 5.607-12.5 12.5v31.734h-119.312v-31.734c0-6.893-5.607-12.5-12.5-12.5h-21.688c-6.893 0-12.5 5.607-12.5 12.5v31.734h-75.156v-16.121c0-9.649-7.851-17.5-17.5-17.5h-19.5c-9.649 0-17.5 7.851-17.5 17.5v21.915c0 4.142 3.358 7.5 7.5 7.5s7.5-3.358 7.5-7.5v-21.915c0-1.378 1.122-2.5 2.5-2.5h19.5c1.378 0 2.5 1.122 2.5 2.5v75.419c0 1.378-1.122 2.5-2.5 2.5h-19.5c-1.378 0-2.5-1.122-2.5-2.5v-23.557c0-4.142-3.358-7.5-7.5-7.5s-7.5 3.358-7.5 7.5v23.558c0 9.649 7.851 17.5 17.5 17.5h19.5c9.649 0 17.5-7.851 17.5-17.5v-16.122h51.835c2.688 12.017 11.682 21.681 23.322 25.305v78.518h-75.157v-21.121c0-9.649-7.851-17.5-17.5-17.5h-29.5c-9.649 0-17.5 7.851-17.5 17.5v85.42c0 9.649 7.851 17.5 17.5 17.5h29.5c9.649 0 17.5-7.851 17.5-17.5v-21.122h51.835c2.688 12.017 11.682 21.681 23.322 25.305v78.518h-75.157v-26.121c0-9.649-7.851-17.5-17.5-17.5h-39.5c-9.649 0-17.5 7.851-17.5 17.5v95.42c0 9.649 7.851 17.5 17.5 17.5h39.5c9.649 0 17.5-7.851 17.5-17.5v-26.122h51.835c2.688 12.017 11.682 21.681 23.322 25.305v54.784h-54.212c-9.913 0-19.093 5.365-23.959 14.002l-12.111 21.498h-15.875c-4.142 0-7.5 3.358-7.5 7.5s3.358 7.5 7.5 7.5h425c4.142 0 7.5-3.358 7.5-7.5s-3.358-7.5-7.5-7.5h-15.875l-12.112-21.499c-4.866-8.636-14.046-14.001-23.959-14.001h-54.211v-54.784c11.639-3.624 20.634-13.288 23.322-25.305h51.835v26.121c0 9.649 7.851 17.5 17.5 17.5h39.5c9.649 0 17.5-7.851 17.5-17.5v-32.559c0-4.142-3.358-7.5-7.5-7.5s-7.5 3.358-7.5 7.5v32.559c0 1.378-1.122 2.5-2.5 2.5h-39.5c-1.378 0-2.5-1.122-2.5-2.5v-33.621-28.177-33.621c0-1.378 1.122-2.5 2.5-2.5h39.5c1.378 0 2.5 1.122 2.5 2.5v32.913c0 4.141 3.358 7.499 7.5 7.499zm-173.844-14.291v-76.974h16.688v76.974zm-134.312 0v-78.518c11.639-3.624 20.634-13.288 23.322-25.305h72.669c2.688 12.017 11.682 21.681 23.322 25.305v78.518zm155.807-91.974h-26.303c-8.011 0-14.9-4.894-17.836-11.849h61.975c-2.935 6.955-9.825 11.849-17.836 11.849zm100.349-76.147c0-1.378 1.122-2.5 2.5-2.5h29.5c1.378 0 2.5 1.122 2.5 2.5v85.42c0 1.378-1.122 2.5-2.5 2.5h-29.5c-1.378 0-2.5-1.122-2.5-2.5zm-121.844 21.121v-76.974h16.688v76.974zm-134.312 0v-78.518c11.639-3.624 20.634-13.288 23.322-25.305h72.669c2.688 12.017 11.682 21.681 23.322 25.305v78.518zm155.807-91.974h-26.303c-8.011 0-14.9-4.894-17.836-11.849h61.975c-2.935 6.955-9.825 11.849-17.836 11.849zm100.349-71.147c0-1.378 1.122-2.5 2.5-2.5h19.5c1.378 0 2.5 1.122 2.5 2.5v75.419c0 1.378-1.122 2.5-2.5 2.5h-19.5c-1.378 0-2.5-1.122-2.5-2.5zm-121.844-13.113h16.688v29.234h-16.688zm-166 0h16.688v29.234h-16.688zm-90.156 44.234h363v13.177h-363zm67.513 28.177h61.975c-2.936 6.955-9.825 11.849-17.836 11.849h-26.303c-8.011 0-14.901-4.894-17.836-11.849zm22.643 26.849h16.688v76.974h-16.688zm-105.156 141.273c0 1.378-1.122 2.5-2.5 2.5h-29.5c-1.378 0-2.5-1.122-2.5-2.5v-85.42c0-1.378 1.122-2.5 2.5-2.5h29.5c1.378 0 2.5 1.122 2.5 2.5zm15-49.299h363v13.177h-363zm67.513 28.177h61.975c-2.936 6.955-9.825 11.849-17.836 11.849h-26.303c-8.011 0-14.901-4.894-17.836-11.849zm22.643 26.849h16.688v76.974h-16.688zm-105.156 146.273c0 1.378-1.122 2.5-2.5 2.5h-39.5c-1.378 0-2.5-1.122-2.5-2.5v-95.42c0-1.378 1.122-2.5 2.5-2.5h39.5c1.378 0 2.5 1.122 2.5 2.5v33.621 28.177zm82.513-26.122h61.975c-2.936 6.955-9.825 11.849-17.836 11.849h-26.303c-8.011 0-14.901-4.894-17.836-11.849zm150.322 0c2.688 12.017 11.682 21.681 23.322 25.305v54.784h-119.313v-54.784c11.639-3.624 20.634-13.288 23.322-25.305zm-127.679 26.849h16.688v53.24h-16.688zm262.789 74.604 7.964 14.136h-358.818l7.963-14.135c2.212-3.926 6.385-6.365 10.891-6.365h321.109c4.507 0 8.679 2.439 10.891 6.364zm-96.789-21.364v-53.24h16.688v53.24zm21.495-68.24h-26.303c-8.011 0-14.9-4.894-17.836-11.849h61.975c-2.935 6.955-9.825 11.849-17.836 11.849zm-277.651-26.849v-13.177h363v13.177z"/></g></svg>