<svg id="Capa_1" enable-background="new 0 0 512 512" height="512" viewBox="0 0 512 512" width="512" xmlns="http://www.w3.org/2000/svg"><g><path d="m484.5 0h-400.385c-21.594 0-42.012 4.21-57.495 11.855-17.166 8.477-26.62 20.365-26.62 33.476v421.339c0 13.111 9.454 24.999 26.62 33.475 15.483 7.645 35.901 11.855 57.495 11.855s42.013-4.21 57.496-11.855c17.166-8.476 26.62-20.364 26.62-33.475v-20.17h232.856c4.143 0 7.5-3.358 7.5-7.5s-3.357-7.5-7.5-7.5h-232.856v-200.75h217.662l19.526 19.526c4.817 4.816 12.861 4.814 17.678-.001l18.187-18.186c4.872-4.874 4.872-12.803 0-17.677l-18.188-18.187c-4.874-4.873-12.804-4.872-17.678.001l-19.525 19.525h-217.662v-170.42c0-11.563-7.362-22.172-20.875-30.331h337.144c6.893 0 12.5 5.607 12.5 12.5v391.5c0 6.893-5.607 12.5-12.5 12.5h-50.432c-4.143 0-7.5 3.358-7.5 7.5s3.357 7.5 7.5 7.5h50.432c15.163 0 27.5-12.336 27.5-27.5v-391.5c0-15.164-12.337-27.5-27.5-27.5zm-70.242 208.599 14.65 14.651-14.65 14.651-14.651-14.651zm-261.027-163.268c0 14.346-28.385 30.331-69.116 30.331-4.245 0-8.499-.181-12.643-.539-4.135-.366-7.761 2.701-8.117 6.827-.356 4.127 2.7 7.761 6.827 8.117 4.571.395 9.259.595 13.933.595 23.436 0 50.04-4.327 69.116-18.994v395.002c0 14.346-28.385 30.331-69.116 30.331-40.73-.001-69.115-15.986-69.115-30.332v-395.002c5.409 4.164 12.183 7.83 20.186 10.831 3.603 1.35 8.291-.747 9.656-4.389 1.455-3.878-.511-8.202-4.389-9.656-15.7-5.887-25.453-14.747-25.453-23.122 0-14.346 28.385-30.331 69.115-30.331 40.731 0 69.116 15.985 69.116 30.331z"/><path d="m318.085 70.026v93.013c0 4.142 3.357 7.5 7.5 7.5s7.5-3.358 7.5-7.5v-93.013c0-4.142-3.357-7.5-7.5-7.5s-7.5 3.358-7.5 7.5z"/><path d="m318.085 283.81v93.013c0 4.142 3.357 7.5 7.5 7.5s7.5-3.358 7.5-7.5v-93.013c0-4.142-3.357-7.5-7.5-7.5s-7.5 3.357-7.5 7.5z"/><path d="m231.089 110.026v53.013c0 4.142 3.358 7.5 7.5 7.5s7.5-3.358 7.5-7.5v-53.013c0-4.142-3.358-7.5-7.5-7.5s-7.5 3.358-7.5 7.5z"/><path d="m231.089 283.81v53.013c0 4.142 3.358 7.5 7.5 7.5s7.5-3.358 7.5-7.5v-53.013c0-4.142-3.358-7.5-7.5-7.5s-7.5 3.357-7.5 7.5z"/><path d="m43.4 55.153c6.198 3.076 19.729 8.235 40.715 8.235 20.985 0 34.517-5.159 40.715-8.234 3.71-1.841 5.226-6.342 3.385-10.052-1.84-3.71-6.338-5.228-10.052-3.385-4.043 2.006-15.454 6.671-34.048 6.671-18.595 0-30.005-4.666-34.048-6.671-3.711-1.841-8.21-.325-10.052 3.385-1.841 3.71-.325 8.21 3.385 10.051z"/></g></svg>