<svg id="Capa_1" enable-background="new 0 0 512 512" height="512" viewBox="0 0 512 512" width="512" xmlns="http://www.w3.org/2000/svg"><g><path d="m62.24 154.17c-1.591-3.762-6.012-5.616-9.801-4.05-3.864 1.597-5.674 6.213-3.95 10.013 1.652 3.643 5.99 5.358 9.687 3.83 3.827-1.581 5.553-5.983 4.064-9.793z"/><path d="m206.383 149.542h-111.552c-4.143 0-7.5 3.358-7.5 7.5s3.357 7.5 7.5 7.5h111.552c4.143 0 7.5-3.358 7.5-7.5s-3.358-7.5-7.5-7.5z"/><path d="m94.831 194.499h71.37c4.143 0 7.5-3.358 7.5-7.5s-3.357-7.5-7.5-7.5h-71.37c-4.143 0-7.5 3.358-7.5 7.5s3.357 7.5 7.5 7.5z"/><path d="m62.24 230.59c-1.516-3.584-5.633-5.497-9.337-4.234-3.959 1.35-6.078 5.829-4.601 9.742 1.443 3.822 5.843 5.826 9.669 4.37 3.928-1.494 5.815-6.005 4.269-9.878z"/><path d="m206.383 225.957h-111.552c-4.143 0-7.5 3.358-7.5 7.5s3.357 7.5 7.5 7.5h111.552c4.143 0 7.5-3.358 7.5-7.5s-3.358-7.5-7.5-7.5z"/><path d="m94.831 270.913h71.37c4.143 0 7.5-3.358 7.5-7.5s-3.357-7.5-7.5-7.5h-71.37c-4.143 0-7.5 3.358-7.5 7.5s3.357 7.5 7.5 7.5z"/><path d="m62.24 307c-1.516-3.585-5.64-5.477-9.337-4.224-3.957 1.34-6.082 5.829-4.601 9.736 1.451 3.826 5.83 5.824 9.665 4.366 3.954-1.502 5.793-5.989 4.273-9.878z"/><path d="m206.383 302.372h-111.552c-4.143 0-7.5 3.358-7.5 7.5s3.357 7.5 7.5 7.5h111.552c4.143 0 7.5-3.358 7.5-7.5s-3.358-7.5-7.5-7.5z"/><path d="m94.831 347.328h71.37c4.143 0 7.5-3.358 7.5-7.5s-3.357-7.5-7.5-7.5h-71.37c-4.143 0-7.5 3.358-7.5 7.5s3.357 7.5 7.5 7.5z"/><path d="m62.24 383.42c-1.665-3.936-6.392-5.757-10.246-3.857-3.651 1.801-5.199 6.346-3.421 10.001 1.747 3.592 6.169 5.204 9.815 3.561 3.673-1.655 5.336-5.993 3.852-9.705z"/><path d="m206.383 378.787h-111.552c-4.143 0-7.5 3.358-7.5 7.5s3.357 7.5 7.5 7.5h111.552c4.143 0 7.5-3.358 7.5-7.5s-3.358-7.5-7.5-7.5z"/><path d="m166.201 408.743h-71.37c-4.143 0-7.5 3.358-7.5 7.5s3.357 7.5 7.5 7.5h71.37c4.143 0 7.5-3.358 7.5-7.5s-3.357-7.5-7.5-7.5z"/><path d="m287.332 145.239-31.17 31.155-9.465-9.46c-2.929-2.929-7.678-2.928-10.606.003-2.928 2.929-2.927 7.678.003 10.606l14.767 14.759c3.535 2.927 7.069 2.927 10.604 0l36.472-36.455c2.93-2.928 2.931-7.677.003-10.607-2.93-2.928-7.679-2.928-10.608-.001z"/><path d="m287.332 221.654-31.17 31.155-9.465-9.46c-2.929-2.929-7.678-2.927-10.606.003-2.928 2.929-2.927 7.678.003 10.606l14.767 14.759c3.535 2.927 7.069 2.927 10.604 0l36.472-36.454c2.93-2.928 2.931-7.677.003-10.607-2.93-2.929-7.679-2.929-10.608-.002z"/><path d="m47.812 57.056c0 4.142 3.357 7.5 7.5 7.5h109.104c4.143 0 7.5-3.358 7.5-7.5s-3.357-7.5-7.5-7.5h-109.104c-4.143 0-7.5 3.358-7.5 7.5z"/><path d="m292.634 64.556c4.143 0 7.5-3.358 7.5-7.5s-3.357-7.5-7.5-7.5h-96.876c-4.143 0-7.5 3.358-7.5 7.5s3.357 7.5 7.5 7.5z"/><path d="m488.692 337.793 9.98-12.732c5.215-6.654 4.056-16.326-2.582-21.559l-10.285-8.111c-6.602-5.207-16.446-4.032-21.633 2.588l-9.177 11.708c-8.495-4.539-17.668-7.968-27.324-10.098l.091-15.105h4.279c9.721 0 17.63-7.908 17.63-17.629v-10.208c0-9.721-7.909-17.629-17.63-17.629h-55.112c-9.721 0-17.629 7.908-17.629 17.629v10.208c0 9.721 7.908 17.629 17.629 17.629h4.368l-.092 15.125c-11.952 2.648-23.16 7.288-33.26 13.555v-295.816c0-9.566-7.784-17.348-17.351-17.348h-235.763c-4.143 0-7.5 3.358-7.5 7.5s3.357 7.5 7.5 7.5h235.763c1.297 0 2.352 1.053 2.352 2.348v80.338h-317.946v-80.338c0-1.295 1.056-2.348 2.353-2.348h47.647c4.143 0 7.5-3.358 7.5-7.5s-3.357-7.5-7.5-7.5h-47.647c-9.569 0-17.353 7.782-17.353 17.348v440.036c0 9.565 7.784 17.348 17.353 17.348h253.166c4.634 0 8.991-1.804 12.269-5.08l.471-.47c.002-.002.005-.005.008-.007l22.379-22.368c16.456 38.3 54.562 65.193 98.839 65.193 12.328 0 24.431-2.077 35.973-6.172 3.903-1.386 5.944-5.673 4.56-9.577-1.386-3.904-5.67-5.946-9.577-4.56-9.926 3.523-20.341 5.309-30.956 5.309-41.415 0-76.561-27.341-88.32-64.912-.104-.765-.326-1.515-.666-2.224-2.298-8.053-3.529-16.551-3.529-25.331 0-50.987 41.502-92.467 92.515-92.467s92.515 41.48 92.515 92.467c0 29.37-13.498 56.342-37.034 74-3.313 2.486-3.984 7.187-1.498 10.5 2.485 3.312 7.185 3.985 10.5 1.498 27.347-20.518 43.032-51.863 43.032-85.998 0-25.198-8.725-48.395-23.308-66.74zm-114.392-70.937v-10.208c0-1.45 1.18-2.629 2.629-2.629h55.112c1.45 0 2.63 1.179 2.63 2.629v10.208c0 1.45-1.18 2.629-2.63 2.629h-55.112c-1.45 0-2.629-1.179-2.629-2.629zm-77.233 142.06c.306 7.578 1.396 14.957 3.199 22.056l-18.166 18.159v-37.867c0-1.294 1.056-2.348 2.353-2.348zm.428-15h-13.043c-9.568 0-17.353 7.782-17.353 17.348v48.467h-249.746c-1.297 0-2.353-1.053-2.353-2.348v-344.697h317.945v211.699c-19.577 17.477-32.736 41.992-35.45 69.531zm98.724-96.536.078-12.895h16.464l-.078 12.891c-5.488-.415-10.976-.414-16.464.004zm71.546 20.328 8.212-10.477c.162-.169.341-.19.538-.063l10.286 8.111c.163.128.191.365.064.527l-8.446 10.775c-3.352-3.179-6.913-6.141-10.654-8.873z"/><path d="m378.824 354.301c3.686-1.89 5.142-6.41 3.252-10.096s-6.407-5.142-10.096-3.253c-24.015 12.312-38.934 36.674-38.934 63.58 0 39.375 32.047 71.408 71.438 71.408 26.015 0 50.002-14.188 62.601-37.026 2-3.627.683-8.189-2.944-10.189-3.628-2-8.189-.683-10.19 2.944-9.96 18.055-28.914 29.271-49.466 29.271-31.12 0-56.438-25.304-56.438-56.408 0-21.251 11.793-40.499 30.777-50.231z"/><path d="m468.423 412.032c4.143 0 7.5-3.358 7.5-7.5 0-39.374-32.047-71.407-71.438-71.407-4.143 0-7.5 3.358-7.5 7.5v63.908c.429 4.571 2.929 7.071 7.5 7.5zm-56.438-63.411c25.134 3.349 45.088 23.292 48.44 48.411h-48.44z"/></g></svg>