<svg id="Capa_1" enable-background="new 0 0 511.944 511.944" height="512" viewBox="0 0 511.944 511.944" width="512" xmlns="http://www.w3.org/2000/svg"><g><path d="m511.035 272.126-7.333-20.888c-3.206-9.132-10.046-16.246-18.534-19.985v-20.683c0-7.323-4.824-13.538-11.46-15.642v-19.29c0-4.142-3.357-7.5-7.5-7.5s-7.5 3.358-7.5 7.5v18.523h-17.946v-46.07c0-15.016-8.038-28.66-20.835-35.983v-19.849c22.914 8.502 38.781 30.722 38.781 55.833 0 4.142 3.357 7.5 7.5 7.5s7.5-3.358 7.5-7.5c0-33.297-22.303-62.54-53.781-71.613v-4.68c0-13.978-11.343-25.35-25.284-25.35h-20.145c-6.632 0-12.343 3.973-14.922 9.663h-18.619c-2.579-5.689-8.29-9.663-14.922-9.663h-35.322c-6.632 0-12.343 3.973-14.922 9.663h-18.619c-2.579-5.689-8.29-9.663-14.922-9.663h-20.145c-13.941 0-25.284 11.372-25.284 25.35v4.68c-31.478 9.073-53.781 38.316-53.781 71.613v46.757c-6.777 2.018-11.736 8.298-11.736 15.721v7.372h-13.729c-13.941 0-25.284 11.372-25.284 25.35v4.681c-31.479 9.072-53.782 38.316-53.782 71.613v46.756c-6.777 2.018-11.735 8.298-11.735 15.722v20.683c-8.488 3.739-15.328 10.853-18.534 19.985l-7.333 20.888c-3.686 10.497 4.319 21.875 15.463 21.875h11.601c4.143 0 7.5-3.358 7.5-7.5s-3.357-7.5-7.5-7.5h-11.6c-1.086-.178-1.523-.813-1.311-1.907l7.333-20.888c2.701-7.692 9.969-12.861 18.084-12.861h42.726c8.115 0 15.383 5.168 18.084 12.861l7.333 20.888c.213 1.094-.224 1.729-1.311 1.907h-49.337c-4.143 0-7.5 3.358-7.5 7.5s3.357 7.5 7.5 7.5h49.338c11.144 0 19.149-11.379 15.463-21.875l-7.333-20.888c-3.206-9.132-10.046-16.246-18.534-19.985v-20.683c0-6.943-4.342-12.879-10.447-15.271v-47.207c0-6.992 2.757-13.529 7.422-18.372 3.585 9.635 12.854 16.516 23.697 16.516h25.352c6.631 0 12.343-3.973 14.922-9.662h18.619c2.579 5.689 8.29 9.662 14.922 9.662h35.322c6.631 0 12.343-3.973 14.921-9.662h18.619c2.579 5.689 8.29 9.662 14.921 9.662h25.353c10.846 0 20.115-6.884 23.699-16.521 4.666 4.838 7.419 11.368 7.419 18.377v47.105c-6.25 2.319-10.724 8.325-10.724 15.373v20.683c-8.488 3.739-15.328 10.853-18.533 19.985l-7.334 20.888c-3.686 10.497 4.319 21.875 15.463 21.875h90.938c11.144 0 19.15-11.379 15.463-21.875l-7.333-20.888c-3.206-9.132-10.045-16.246-18.533-19.984v-20.683c0-7.323-4.824-13.538-11.46-15.642v-46.836c0-33.375-22.276-62.556-53.782-71.621v-4.672c0-13.978-11.342-25.35-25.283-25.35h-25.353c-6.631 0-12.343 3.973-14.921 9.662h-18.619c-2.579-5.689-8.29-9.662-14.921-9.662h-25.276v-7.372c0-6.943-4.342-12.879-10.448-15.271v-47.207c0-7.02 2.752-13.547 7.418-18.381 3.582 9.64 12.854 16.525 23.701 16.525h20.145c6.632 0 12.343-3.973 14.922-9.663h18.618c2.579 5.689 8.29 9.663 14.922 9.663h35.322c6.632 0 12.343-3.973 14.922-9.663h18.618c2.579 5.689 8.29 9.663 14.922 9.663h20.145c10.846 0 20.116-6.884 23.699-16.521 4.666 4.838 7.42 11.368 7.42 18.377v47.106c-6.25 2.319-10.724 8.325-10.724 15.372v20.683c-8.488 3.739-15.328 10.853-18.534 19.985l-7.334 20.889c-3.684 10.497 4.319 21.875 15.464 21.875h90.938c11.142-.002 19.146-11.381 15.46-21.878zm-168.606-201.014h15.677v50.462h-15.677zm-83.784 0h15.677v50.462h-15.677zm-73.616 138.05c.776 0 1.408.632 1.408 1.408v8.143c-4.443 1.415-8.06 4.684-9.967 8.891h-18.62c-2.129-4.696-6.389-8.221-11.545-9.308v-7.726c0-.776.632-1.408 1.408-1.408zm-25.708 33.442h15.677v50.462h-15.677zm-78.824 138.051c.776 0 1.408.632 1.408 1.409v17.776h-40.13v-17.776c0-.777.632-1.409 1.408-1.409zm-9.039-61.07v46.069h-17.947v-46.069c0-25.112 15.868-47.331 38.782-55.833v19.848c-12.787 7.329-20.835 21.006-20.835 35.985zm72.863-18.281c0 .786-.625 1.425-1.393 1.425h-25.352c-5.671 0-10.284-4.643-10.284-10.35v-49.087c0-5.707 4.613-10.35 10.284-10.35h25.352c.768 0 1.393.639 1.393 1.425zm114.461-8.237h-15.677v-50.462h15.677zm115.862 87.588c.777 0 1.409.632 1.409 1.409v17.776h-40.131v-17.776c0-.777.632-1.409 1.408-1.409zm28.123 67.934c.212 1.093-.225 1.728-1.311 1.906h-90.938c-1.085-.178-1.522-.814-1.311-1.907l7.334-20.888c2.701-7.692 9.968-12.861 18.083-12.861h42.726c8.115 0 15.383 5.168 18.084 12.861zm-38.174-129.004v46.069h-17.947v-46.069c0-15.016-8.038-28.66-20.835-35.983v-19.854c22.931 8.492 38.782 30.666 38.782 55.837zm-90.811-85.218c0-.786.625-1.425 1.393-1.425h25.353c5.67 0 10.283 4.643 10.283 10.35v49.087c0 5.707-4.613 10.35-10.283 10.35h-25.353c-.768 0-1.393-.639-1.393-1.425zm-45.676 0v66.937c0 .786-.625 1.425-1.393 1.425h-35.322c-.768 0-1.393-.639-1.393-1.425v-66.937c0-.786.625-1.425 1.393-1.425h35.322c.768 0 1.393.639 1.393 1.425zm-52.118-86.275v46.07h-17.946v-46.07c0-25.111 15.868-47.331 38.781-55.833v19.85c-12.801 7.321-20.835 20.945-20.835 35.983zm67.657-18.281c0 .786-.625 1.425-1.393 1.425h-20.145c-5.671 0-10.284-4.643-10.284-10.35 0-16.362 0-32.725 0-49.087 0-5.707 4.613-10.35 10.284-10.35h20.145c.768 0 1.393.639 1.393 1.425zm83.784 0c0 .786-.625 1.425-1.393 1.425h-35.322c-.768 0-1.393-.639-1.393-1.425v-66.937c0-.786.625-1.425 1.393-1.425h35.322c.768 0 1.393.639 1.393 1.425zm77.498-8.925c0 5.707-4.613 10.35-10.284 10.35h-20.145c-.768 0-1.393-.639-1.393-1.425v-66.937c0-.786.625-1.425 1.393-1.425h20.145c5.671 0 10.284 4.643 10.284 10.35zm26.52 88.276h37.313c.776 0 1.408.632 1.408 1.408v17.776h-40.13v-17.776c0-.776.632-1.408 1.409-1.408zm65.251 69.252c-.189.268-.539.588-1.126.588h-90.938c-1.086-.178-1.523-.813-1.311-1.907l7.333-20.888c2.701-7.692 9.969-12.86 18.084-12.86h42.726c8.115 0 15.383 5.168 18.084 12.86l7.332 20.888c.206.585.014 1.04-.184 1.319z"/></g></svg>