<svg id="Capa_1" enable-background="new 0 0 512 512" height="512" viewBox="0 0 512 512" width="512" xmlns="http://www.w3.org/2000/svg"><g><path d="m498.582 398.801-38.552-64.326v-83.104c3.373-2.243 5.604-6.075 5.604-10.421v-36.5c0-4.346-2.23-8.177-5.604-10.42v-64.829c0-6.897-5.611-12.509-12.508-12.509h-30.28c-.263 0-.519.023-.778.039-.254-.026-.511-.039-.772-.039-5.167 0-9.867 3.247-11.698 8.079l-48.889 129.12-18.291-47.235c1.685-3.114 1.877-6.589.576-10.424l-13.415-33.945c-1.184-2.996-4.021-5.834-7.065-7.033l-30.65-79.152c4.543-3.168 7.528-8.424 7.528-14.37v-23.325c.001-21.178-17.228-38.407-38.405-38.407s-38.406 17.229-38.406 38.407v23.326c0 6.366 3.425 11.933 8.518 15l-30.272 78.175c-3.571 1.096-6.623 3.759-8.045 7.514l-12.93 34.133c-1.356 3.58-.95 7.4.779 10.51l-18.133 46.826-48.889-129.121c-1.83-4.832-6.531-8.079-11.697-8.079-.261 0-.518.013-.772.039-.259-.016-.516-.039-.778-.039h-30.28c-6.897 0-12.508 5.611-12.508 12.509v15.917c0 4.142 3.358 7.5 7.5 7.5s7.5-3.358 7.5-7.5v-13.426h25.296v60.25h-25.296v-16.271c0-4.142-3.358-7.5-7.5-7.5s-7.5 3.358-7.5 7.5v18.359c-3.373 2.243-5.604 6.074-5.604 10.42v36.5c0 4.346 2.23 8.178 5.604 10.421v83.104l-38.552 64.326c-7.711 2.051-13.418 9.072-13.418 17.419v12.965c0 7.296 4.362 13.58 10.608 16.419 1.42 36.851 31.825 66.397 69.016 66.397 36.563 0 67.638-29.799 69.023-66.405 6.236-2.843 10.59-9.121 10.59-16.41v-12.965c0-8.347-5.707-15.368-13.418-17.417l-38.552-64.326v-62.866l20.923 55.259c1.83 4.833 6.531 8.08 11.698 8.08h33.419c5.187 0 9.76-3.122 11.658-7.976l39.21-101.245c3.301-1.151 6.375-4.145 7.6-7.378l12.93-34.133c1.25-3.726 1.066-7.084-.551-10.075l11.846-30.594 11.72 30.263c-2.008 3.263-2.326 6.958-.953 11.086l13.415 33.946c1.282 3.243 4.451 6.225 7.809 7.31l39.054 100.841c1.889 4.832 6.462 7.953 11.649 7.953h33.419c5.167 0 9.868-3.247 11.698-8.08l20.923-55.259v62.867l-38.552 64.326c-7.711 2.049-13.418 9.07-13.418 17.417v12.965c0 7.289 4.354 13.568 10.59 16.41 1.384 36.606 32.466 66.406 69.022 66.406 37.191 0 67.595-29.546 69.015-66.397 6.246-2.839 10.608-9.123 10.608-16.419v-12.965c.001-8.347-5.706-15.368-13.417-17.418zm-78.848-145.341h25.296v75.591h-25.296zm30.9-46.517v31.517h-36.515v-31.517zm-34.151 137.108h31.799l32.44 54.128h-96.679zm28.547-152.108h-25.296v-60.25h25.296zm-164.28-26.021-33.566-86.672h24.21l30.349 78.375zm-48.772-127.515c0-12.907 10.5-23.407 23.406-23.407s23.406 10.5 23.406 23.407v23.326c0 1.379-1.116 2.501-2.492 2.514h-40.062c-.013 0-.026.002-.04.002h-.912c-.018 0-.035-.001-.053 0h-.738c-1.387 0-2.516-1.129-2.516-2.517v-23.325zm-87.742 377.812v12.965c0 1.676-1.364 3.04-3.04 3.04h-.027-123.129c-1.676 0-3.04-1.364-3.04-3.04v-12.965c0-1.673 1.359-3.034 3.031-3.039h.001c.005 0 .01-.001.015-.001h123.14c.005 0 .01.001.015.001h.001c1.674.004 3.033 1.365 3.033 3.039zm-112.957-18.04 32.44-54.128h31.799l32.44 54.128zm66.602-191.236v31.517h-36.515v-31.517zm-5.615 46.517v75.591h-25.296v-75.591zm25.668 227.631c-10.222 10.259-23.828 15.909-38.31 15.909-28.37 0-51.691-21.962-53.896-49.776h107.798c-1.002 12.787-6.436 24.678-15.592 33.867zm-5.301-237.668c.161-.799.247-1.626.247-2.472v-36.5c0-4.35-2.235-8.185-5.615-10.427v-28.843l58.599 154.766h-24.257zm64.177 63.069-11.963-31.596 23.141-59.76 21.106 7.996zm41.819-95.787-29.471-11.165 11.165-29.473 29.471 11.165zm12.682-44.939-21.109-7.997 25.651-66.243 12.105 31.255zm50.322 15.936 29.309-11.583 11.583 29.31-29.309 11.584zm21.334 41.586 20.99-8.296 23.197 59.904-11.963 31.595zm67.425 96.66h-24.257l58.599-154.766v28.843c-3.379 2.242-5.615 6.077-5.615 10.427v36.5c0 .846.087 1.672.247 2.471zm61.984 177.052c-27.753 0-51.736-22.114-53.902-49.776h65.651c4.142 0 7.5-3.358 7.5-7.5s-3.358-7.5-7.5-7.5h-73.295-.027c-1.676 0-3.04-1.364-3.04-3.04v-12.965c0-1.673 1.359-3.034 3.031-3.039h.001c.005 0 .01-.001.015-.001h123.14c.005 0 .01.001.015.001h.001c1.672.005 3.031 1.366 3.031 3.039v12.965c0 1.676-1.364 3.04-3.04 3.04h-20.236c-4.142 0-7.5 3.358-7.5 7.5s3.358 7.5 7.5 7.5h12.549c-2.203 27.814-25.524 49.776-53.894 49.776z"/></g></svg>