<svg id="Capa_1" enable-background="new 0 0 512 512" height="512" viewBox="0 0 512 512" width="512" xmlns="http://www.w3.org/2000/svg"><g><path d="m491.722 20.866h-12.588c-1.828 0-3.592.265-5.278.721.142-11.391-8.377-21.587-20.278-21.587h-12.588c-11.182 0-20.278 9.097-20.278 20.278v83.39h-22.158c.368-9.274-6.795-17.862-16.424-17.862h-36.827c-9.629 0-16.78 8.611-16.425 17.862h-145.445c.905-9.866-5.62-19.684-16.305-19.684h-36.827c-10.711 0-17.201 9.848-16.308 19.684h-22.705v-83.39c0-11.181-9.097-20.278-20.278-20.278h-12.588c-11.765 0-20.48 10.204-20.278 21.587-1.686-.456-3.45-.721-5.278-.721h-12.588c-11.181 0-20.278 9.096-20.278 20.278v21.532c0 3.919 4.073 7.727 8.008 7.483 3.984-.179 7.158-3.464 7.158-7.492 0-7.155-.167-14.354-.167-21.523 0-2.91 2.368-5.278 5.278-5.278h12.588c2.91 0 5.278 2.368 5.278 5.278v140.047c0 2.91-2.368 5.278-5.278 5.278h-12.587c-2.91 0-5.278-2.368-5.278-5.278 0-29.504.167-59.036.167-88.524 0-4.035-3.186-7.325-7.179-7.493-3.932-.22-7.988 3.558-7.988 7.484v88.533c0 11.181 9.097 20.278 20.278 20.278h12.588c1.828 0 3.592-.265 5.278-.721-.142 11.391 8.377 21.587 20.278 21.587h12.588c11.182 0 20.278-9.097 20.278-20.278v-83.389h27.679c.788 1.285 1.66 2.512 2.603 3.68l-29.464 123.607c-3.073 12.885 3.942 28.875 12.742 37.876l80.145 94.086v126.583c0 4.142 3.358 7.5 7.5 7.5s7.5-3.358 7.5-7.5v-195.133h24.669v21.795c0 17.279 14.058 31.337 31.337 31.337s31.337-14.058 31.337-31.337v-21.795h24.669v195.133c0 4.142 3.358 7.5 7.5 7.5s7.5-3.358 7.5-7.5v-124.254l45.281-53.158c2.686-3.153 2.307-7.887-.846-10.573-3.151-2.685-7.886-2.308-10.573.846l-33.862 39.753v-50.995c7.443-21.662 21.229-44.156 45.354-49.769 5.302-2.002 6.948-5.652 4.937-10.951-13.75-24.862-14.26-58.743-10.101-108.389 3.751-.373 7.326-1.35 10.634-2.821l27.78 116.544c.831 9.936-3.032 17.642-9.272 24.989l-16.227 19.049c-2.686 3.153-2.307 7.887.846 10.573 3.64 2.642 7.165 2.36 10.573-.846l16.052-18.844c8.878-9.081 15.823-24.964 12.743-37.877l-29.464-123.614c1.376-1.707 2.596-3.545 3.636-5.495h26.216v83.389c0 11.181 9.097 20.278 20.278 20.278h12.588c11.764 0 20.479-10.203 20.278-21.586 1.686.456 3.45.721 5.278.721h12.588c11.181 0 20.278-9.097 20.278-20.278v-140.048c0-11.182-9.097-20.278-20.278-20.278zm-415.434 181.191c0 2.91-2.368 5.278-5.278 5.278h-12.588c-2.91 0-5.278-2.368-5.278-5.278v-181.779c0-2.91 2.368-5.278 5.278-5.278h12.588c2.911 0 5.278 2.368 5.278 5.278zm269.016-101.252h36.827c.805 0 1.459.654 1.459 1.506 0 10.958-8.915 19.873-19.873 19.873s-19.873-8.915-19.873-19.92c.001-.805.655-1.459 1.46-1.459zm-215.003-1.821h36.827c.805 0 1.459.655 1.459 1.506 0 10.958-8.915 19.873-19.873 19.873s-19.873-8.915-19.873-19.919c.001-.805.655-1.46 1.46-1.46zm-14.207 174.917c-6.25-7.329-10.101-15.068-9.272-24.989l27.779-116.544c3.308 1.47 6.882 2.447 10.633 2.821 4.158 49.689 3.556 83.696-10.099 108.388-1.992 5.27-.359 8.918 4.901 10.943 1.378.32 33.644 8.274 44.958 48.421v51.845zm98.092-14.826c0-4.974 0-9.947 0-14.921h21.049c20.778 0 39.626-11.86 49.188-30.952 2.076-4.147 8.107-4.248 9.976.123 2.267 5.304 3.417 10.952 3.417 16.787v28.963c0 23.333-18.758 42.315-41.814 42.315s-41.816-18.982-41.816-42.315zm75.898-64.024c-8.141-.24-15.42 4.138-19.074 11.435-7.002 13.982-20.711 22.668-35.775 22.668h-21.049v-25.255c0-23.057 18.758-41.815 41.814-41.815 20.539 0 37.654 14.89 41.15 34.439-2.199-.887-4.58-1.397-7.066-1.472zm-34.084 152.449c-9.008 0-16.337-7.329-16.337-16.337v-17.198c5.177 1.571 10.659 2.426 16.337 2.426s11.16-.855 16.337-2.426v17.198c0 9.008-7.329 16.337-16.337 16.337zm58.995-53.133h-14.278c7.568-9.737 12.097-21.987 12.097-35.292 0-18.392 0-36.784 0-55.176 0-31.328-25.487-56.815-56.814-56.815s-56.814 25.487-56.814 56.815v55.176c0 13.305 4.529 25.555 12.097 35.292h-13.227c-10.708-32.338-33.309-46.122-45.882-51.466 5.396-12.356 8.526-26.574 9.741-43.984 1.175-16.831.647-36.658-1.775-65.487 7.669-2.669 14.129-7.939 18.313-14.763h154.477c4.107 7.7 11.018 13.682 19.361 16.584-4.037 47.981-3.824 82.394 7.971 109.468-12.334 5.243-34.326 18.605-45.267 49.648zm143.861-92.31c0 2.91-2.368 5.278-5.278 5.278h-12.588c-2.911 0-5.278-2.368-5.278-5.278v-181.779c0-2.91 2.368-5.278 5.278-5.278h12.588c2.91 0 5.278 2.368 5.278 5.278zm38.144-20.866c0 2.911-2.368 5.278-5.278 5.278h-12.588c-2.91 0-5.278-2.368-5.278-5.278v-140.047c0-2.91 2.368-5.278 5.278-5.278h12.588c2.91 0 5.278 2.368 5.278 5.278z"/></g></svg>