<svg id="Capa_1" enable-background="new 0 0 512 512" height="512" viewBox="0 0 512 512" width="512" xmlns="http://www.w3.org/2000/svg"><g><path d="m497 241.957v-93.44c0-12.407-10.094-22.5-22.5-22.5h-6.216v-35.985c0-49.644-40.388-90.032-90.032-90.032-27.067 0-54.133 0-81.2 0-14.545 0-28.535 3.441-41.09 9.897-12.308-6.325-26.251-9.897-41.014-9.897-26.888 1.533-54.26 0-81.2 0-49.644 0-90.032 40.388-90.032 90.032v35.984h-6.216c-12.407 0-22.5 10.093-22.5 22.5v93.44c-8.729 3.096-15 11.432-15 21.21v16.918c0 4.142 3.358 7.5 7.5 7.5s7.5-3.358 7.5-7.5v-16.918c0-4.135 3.364-7.5 7.5-7.5h57.431c4.136 0 7.5 3.365 7.5 7.5v22.326l-72.431 47.519v-23.088c0-4.142-3.358-7.5-7.5-7.5s-7.5 3.358-7.5 7.5v150.577c0 9.778 6.271 18.114 15 21.21v7.79c0 12.407 10.093 22.5 22.5 22.5h27.431c12.407 0 22.5-10.093 22.5-22.5v-7.79c8.729-3.096 15-11.432 15-21.21v-197.333c0-9.778-6.271-18.114-15-21.21v-93.44c0-12.407-10.093-22.5-22.5-22.5h-6.215v-35.985c0-41.373 33.659-75.032 75.032-75.032h30.548c-25.225 16.823-40.623 45.874-40.23 76.201l.856 65.936c.633 48.626 41.395 88.863 90.026 88.863 14.932 0 29.024-3.658 41.435-10.119 12.679 6.606 26.84 10.119 41.526 10.119 49.645 0 90.033-40.388 90.033-90.032v-65.936c0-31.286-16.044-58.89-40.332-75.032h30.643c41.373 0 75.032 33.659 75.032 75.032v35.984h-6.216c-12.406 0-22.5 10.093-22.5 22.5v93.44c-8.729 3.096-15 11.432-15 21.21v148.884c0 4.142 3.357 7.5 7.5 7.5s7.5-3.358 7.5-7.5v-21.395l72.431 47.52v22.325c0 4.136-3.364 7.5-7.5 7.5h-57.432c-4.136 0-7.5-3.364-7.5-7.5v-18.547c0-4.142-3.357-7.5-7.5-7.5s-7.5 3.358-7.5 7.5v18.547c0 9.777 6.271 18.114 15 21.21v7.79c0 12.407 10.094 22.5 22.5 22.5h27.432c12.406 0 22.5-10.093 22.5-22.5v-7.79c8.729-3.096 15-11.432 15-21.21v-197.333c0-9.778-6.271-18.114-15-21.21zm-467-72.949h13.716v45h-13.716zm57.431 134.425v25.671l-72.431 47.518v-25.671zm-72.431 91.13 72.431-47.519v25.672l-72.431 47.518zm57.431 94.937c0 4.136-3.364 7.5-7.5 7.5h-27.431c-4.136 0-7.5-3.364-7.5-7.5v-6.5h42.431zm7.5-21.5h-57.431c-4.136 0-7.5-3.364-7.5-7.5v-22.325l72.431-47.519v69.844c0 4.136-3.364 7.5-7.5 7.5zm-7.5-319.484v92.15h-42.431v-11.659h16.216c6.893 0 12.5-5.607 12.5-12.5v-50c0-6.893-5.607-12.5-12.5-12.5h-16.216v-5.492c0-4.136 3.364-7.5 7.5-7.5h27.431c4.136.001 7.5 3.365 7.5 7.501zm142.517 82.484c-40.516 0-74.499-33.516-75.026-74.058l-.856-65.936c-.545-41.952 34.288-76.006 75.882-76.006 9.131 0 17.885 1.644 25.986 4.645-2.764 2.213-5.429 4.58-7.956 7.14-17.049 17.272-26.266 40.149-25.95 64.417l.856 65.936c.346 26.646 12.88 52.276 33.608 68.998-8.258 3.133-17.201 4.864-26.544 4.864zm75.032-140.968v65.936c0 26.064-13.365 49.057-33.596 62.512-20.403-13.607-33.184-37.01-33.502-61.537l-.856-65.936c-.263-20.224 7.417-39.29 21.626-53.684 3.783-3.832 7.911-7.19 12.301-10.078 20.47 13.413 34.027 36.54 34.027 62.787zm82.961 0v65.936c0 41.373-33.66 75.032-75.033 75.032-9.237 0-18.22-1.683-26.617-4.865 20.527-16.516 33.69-41.831 33.69-70.167v-65.936c0-28.469-13.286-53.89-33.978-70.4 8.225-3.037 17.009-4.632 26.05-4.632 41.083 0 75.888 33.56 75.888 75.032zm109.059 399.468c0 4.136-3.364 7.5-7.5 7.5h-27.432c-4.136 0-7.5-3.364-7.5-7.5v-6.5h42.432zm-57.432-186.068 72.432 47.52v25.671l-72.432-47.519zm15-154.916c0-4.136 3.364-7.5 7.5-7.5h27.432c4.136 0 7.5 3.364 7.5 7.5v92.15h-42.432zm-7.5 107.151h57.432c4.136 0 7.5 3.365 7.5 7.5v69.845l-72.432-47.519v-22.326c0-4.136 3.365-7.5 7.5-7.5zm-7.5 117.048v-25.671l72.432 47.519v25.671z"/></g></svg>