<svg id="Capa_1" enable-background="new 0 0 512.053 512.053" height="512" viewBox="0 0 512.053 512.053" width="512" xmlns="http://www.w3.org/2000/svg"><g><path d="m508.779 434.835c-38.247-26.504-65.583-64.872-77.234-108.269 6.618-13.211 11.605-26.059 14.753-34.947 9.179 11.498 17.54 25.933 22.488 43.622 2.566 9.176 17.066 5.324 14.445-4.04-17.746-63.445-73.329-88.836-75.687-89.887-3.782-1.685-8.217.016-9.902 3.8s.017 8.218 3.801 9.903c.287.128 16.404 7.488 33.315 23.905-11.321 35.049-29.129 65.977-54.492 92.756-2.849 3.007-2.72 7.754.288 10.603 3.007 2.848 7.754 2.72 10.603-.288 11.333-11.966 21.403-24.676 30.066-37.936 14.278 41.204 41.881 77.375 79.014 103.107 7.702 5.339 16.682-6.689 8.542-12.329z"/><path d="m358.751 392.076c-42.612 36.342-119.079 79.946-241.378 81.295-10.129.111-20.059 3.258-28.48 8.863-10.587 6.714-28.301 17.95-42.206 13.913-1.414-.411-6.4-4.738-12.408-19.625-16.906-41.897-20.67-106.68-18.756-149.425 2.362-52.771 14.176-131.354 57.039-206.042 4.827-8.412-8.182-15.875-13.01-7.466-44.362 77.297-56.579 158.406-59.015 212.837-2.076 46.371 2.044 111.627 19.831 155.709 6.764 16.759 14.003 26.055 22.134 28.417 19.392 5.634 38.721-5.691 54.424-15.649 6.076-4.112 13.263-6.452 20.612-6.532 126.79-1.399 206.448-46.931 250.947-84.881 3.151-2.688 3.527-7.422.839-10.573-2.688-3.153-7.421-3.528-10.573-.841z"/><path d="m76.757 99.63c3.749 2.231 7.22 1.558 10.413-2.019 17.408-25.782 37.994-49.228 61.187-69.687 9.447-8.334 21.636-12.924 34.319-12.924h63.097c10.765 0 19.521 8.757 19.521 19.521v28.599c0 10.764-8.757 19.521-19.521 19.521-10.109 0-20.342 0-30.495 0-4.821 0-8.743-3.922-8.743-8.744 0-2.599 0-5.199 0-7.798 0-4.622 4.004-8.527 8.743-8.527 4.143 0 7.5-3.358 7.5-7.5s-3.357-7.5-7.5-7.5c-12.48 0-22.736 9.594-23.667 21.729-.421 3.104-.12 6.471-.076 9.597 0 13.092 10.651 23.744 23.743 23.744h22.503c.553 1.689.545 3.275-.026 4.739-1.222 3.128-4.867 5.801-9.289 6.81-42.937 9.798-79.099-22.278-79.449-22.595-5.05-4.594-13.345-.279-12.485 6.493.151 1.19 14.679 119.621-13.363 222.208-13.277 16.828-31.984 49.174-32.793 50.577-4.64 8.04 7.837 16.432 12.992 7.496.197-.341 19.763-34.178 32.342-49.741 20.989-23.307 45.037-43.34 71.479-59.543 36.166-22.159 75.901-36.429 118.104-42.412 3.071-.436 5.558-2.717 6.255-5.74 8.87-38.448 30.781-73.338 61.7-98.243 31.374-25.272 70.888-39.19 111.261-39.19 4.143 0 7.5-3.358 7.5-7.5s-3.357-7.5-7.5-7.5c-43.784 0-86.64 15.097-120.671 42.509-32.182 25.922-55.367 61.835-65.684 101.565-42.372 6.669-82.318 21.366-118.802 43.72-19.931 12.212-38.558 26.499-55.624 42.646 15.848-75.703 12.158-152.569 9.381-185.83 12.951 8.114 33.771 17.985 58.429 17.983 6.511 0 13.295-.689 20.267-2.28 9.268-2.115 16.901-8.238 19.924-15.979 1.379-3.532 1.781-7.242 1.235-10.952 15.596-3.317 27.333-17.193 27.333-33.763v-28.599c-.002-19.035-15.489-34.521-34.524-34.521h-63.097c-16.34 0-32.053 5.922-44.242 16.675-24.146 21.3-45.577 45.707-63.696 72.542-2.317 3.433-1.414 8.095 2.019 10.413z"/></g></svg>