<svg id="Capa_1" enable-background="new 0 0 511.857 511.857" height="512" viewBox="0 0 511.857 511.857" width="512" xmlns="http://www.w3.org/2000/svg"><g><path d="m442.069 13.111c-7.083-14.153-26.534-17.593-37.973-6.644l-85.405 80.438c-11.564 11.068-3.501 31.682 12.717 31.682h16.694v24.004h-75.226c-17.443 0-34.015 7.545-45.466 20.701l-52.188 59.953c-9.551 10.973-14.811 25.027-14.811 39.574v117.737h-15.618c-10.603 0-19.228 8.625-19.228 19.227v46.364h-25.485c-18.116 0-32.854 14.738-32.854 32.854s14.738 32.854 32.854 32.854h293.524c16.125 0 29.243-13.72 29.243-29.844v-135.168c0-.007-.001-.013-.001-.019v-105.936c0-16.751-14.76-28.756-30.959-27.639v-103.483c2.925-2.265 5.573-4.913 7.827-7.923.12-.161.234-.326.341-.495l10.811-17.142c2.21-3.504 1.16-8.135-2.343-10.345-3.503-2.211-8.136-1.161-10.345 2.343l-10.64 16.872c-5.045 6.587-12.979 10.511-21.286 10.511h-34.847c-3.269 0-4.356-3.921-2.389-5.804l85.405-80.438c8.685-8.311 18.349 3.948 13.043 12.417l-13.354 21.181c-2.21 3.503-1.16 8.135 2.343 10.344 3.502 2.209 8.135 1.161 10.345-2.343l13.211-20.949c5.312-7.291 6.107-16.795 2.06-24.884zm-93.967 200.138h-25.589c-8.593 0-16.546 3.891-21.82 10.675l-5.875 7.557h-34.126c-10.603 0-19.228 8.625-19.228 19.227v49.401l-4.595 5.911h-32.669v-43.2c0-3.979 1.439-7.824 4.053-10.826l52.187-59.953c3.133-3.599 7.666-5.663 12.438-5.663h75.226v26.871zm-143.902 107.77h21.008l-21.008 27.022zm78.956-74.538-26.692 34.333v-30.107c0-2.331 1.896-4.227 4.228-4.227h22.464zm-96.618-13.387 52.188-59.953c6.939-7.972 16.382-13.196 26.651-14.92v14.074c-6.25 1.533-11.946 4.951-16.252 9.898l-52.186 59.952c-4.991 5.732-7.739 13.075-7.739 20.675v104.516l-13.787 17.734v-122.25c0-10.927 3.951-21.484 11.125-29.726zm-41.744 162.463h15.618v8.807l-19.846 25.527v-30.107c.001-2.331 1.897-4.227 4.228-4.227zm248.812 100.698h-86.074l82.587-99.9c.001-.001.002-.002.002-.003l17.729-21.445v107.106c-.001 7.853-6.39 14.242-14.244 14.242zm14.242-255.367v105.956c0 3.119-1.146 6.115-3.228 8.437-4.461 4.946-8.538 10.318-12.78 15.45v-35.498c0-49.218-64.681-71.695-95.01-32.402l-92.115 119.338c-2.53 3.279-1.924 7.989 1.354 10.52 3.279 2.53 7.989 1.925 10.521-1.354l92.115-119.338c21.72-28.14 68.135-12.087 68.135 23.237v53.643l-85.876 103.879c-5.207 5.685-6.877 1.8-12.266 4.104h-113.409c12.584-12.16 22.416-28.103 33.079-41.917 2.531-3.279 1.925-7.989-1.354-10.52-3.28-2.531-7.99-1.925-10.52 1.354l-28.014 36.291c-7.149 9.263-18.403 14.792-30.104 14.792h-28.295c-9.845 0-17.854-8.009-17.854-17.854s8.01-17.854 17.854-17.854h31.516c2.315 0 4.5-1.069 5.921-2.896l175.017-225.121c2.412-3.103 6.049-4.882 9.979-4.882h72.696c6.968-.004 12.638 5.666 12.638 12.635zm-44.746-27.639v-34.371c0-4.142-3.357-7.5-7.5-7.5h-75.226v-13.787h84.821c6.446 0 11.691 5.245 11.691 11.691v43.966h-13.786zm13.787-96.069v28.114c-3.533-1.729-7.5-2.703-11.691-2.703h-2.096v-24.004c4.622.188 9.312-.221 13.787-1.407z"/></g></svg>