<svg id="Capa_1" enable-background="new 0 0 512 512" height="512" viewBox="0 0 512 512" width="512" xmlns="http://www.w3.org/2000/svg"><g><path d="m131.274 406.458c0-14.214-11.564-25.779-25.779-25.779s-25.779 11.564-25.779 25.779 11.564 25.779 25.779 25.779 25.779-11.564 25.779-25.779zm-36.558 0c0-5.943 4.835-10.779 10.779-10.779s10.779 4.835 10.779 10.779-4.835 10.779-10.779 10.779-10.779-4.835-10.779-10.779z"/><path d="m497.162 85.65c-1.623-.589-3.285-.964-4.958-1.171l18.822-57.338c3.452-10.981-2.673-22.724-13.656-26.177-10.983-3.454-22.724 2.674-26.148 13.565l-10.441 31.819c-1.292 3.936.852 8.173 4.788 9.464 3.933 1.29 8.173-.852 9.464-4.788l10.47-31.907c.972-3.091 4.28-4.818 7.369-3.844 3.092.972 4.816 4.278 3.874 7.279l-60.271 183.602c-3.182-2.304-6.779-4.065-10.657-5.151l38.718-117.99c1.292-3.936-.852-8.173-4.788-9.464-3.934-1.292-8.173.852-9.464 4.788l-8.509 25.931-106.601 49.833c-10.9 5.096-15.996 18.913-10.854 29.911 4.984 10.661 19.172 15.872 29.911 10.854l34.458-16.108-10.308 31.352h-13.489c-5.584 0-10.663 3.509-12.638 8.73l-7.475 19.754c-3.292 8.7 3.335 18.294 12.638 18.294h5.583l-21.445 65.223c-5.355 1.367-10.23 4.323-13.932 8.571l-35.194 40.388c-87.545-55.846-194.392-76.913-240.371-83.773-19.002-2.834-36.949 8.979-41.748 27.477-18.857 72.699-7.635 137.257.733 169.27 4.303 16.461 19.216 27.956 36.266 27.956h43.734c4.142 0 7.5-3.358 7.5-7.5s-3.358-7.5-7.5-7.5h-43.734c-10.23 0-19.176-6.887-21.753-16.748-8-30.601-18.73-92.301-.726-161.709 2.867-11.053 13.621-18.103 25.015-16.407 50.207 7.49 174.66 32.273 263.353 101.985-7.336 7.411-17.335 11.621-27.838 11.621h-62.98c-11.892 0-21.566 9.675-21.566 21.566 0 2.14.324 4.205.907 6.158h-26.722c6.019-11.329 9.259-24.07 9.259-37.007 0-43.429-35.332-78.761-78.761-78.761s-78.761 35.332-78.761 78.761 35.332 78.761 78.761 78.761h218.997c-3.866 7.186-11.337 11.78-19.775 11.78h-180.945c-4.142 0-7.5 3.358-7.5 7.5s3.358 7.5 7.5 7.5h180.945c16.479 0 31.222-10.992 35.935-26.781h75.387c11.512 0 20.877-9.365 20.877-20.877v-203.815c12.264-9.186 16.892-26.369 10.77-40.443l26.835-81.749s16.945-7.625 24.49-11.152c11.239-5.254 16.108-18.672 10.854-29.911-2.543-5.445-7.056-9.572-12.705-11.622zm-149.283 95.628c-3.368 1.572-8.399-.254-9.971-3.618-1.547-4.322-.341-7.646 3.618-9.97l93.83-43.863-6.418 19.558zm74.641-18.335-12.283 37.431c-5.652 1.092-10.887 3.599-15.271 7.318l12.381-37.656zm-56.601 62.168c9.973 0 19.945.001 29.918 0 2.341 0 4.548-1.093 5.966-2.956 3.585-4.706 9.024-7.405 14.924-7.405 10.339 0 18.75 8.411 18.75 18.75s-8.411 18.75-18.75 18.75c-5.826 0-11.395-2.773-14.924-7.405-1.418-1.862-3.625-2.956-5.966-2.956-12.089 0-24.178 0-36.267 0zm-1.337 164.169 18.555-58.254c0-.002.001-.003.001-.005l12.027-36.758v149.202h-28.318c.583-1.953.907-4.017.907-6.158v-36.827c0-4.104-1.174-7.93-3.172-11.2zm14.209-132.391h12.82l-21.058 64.361h-12.924zm-39.859 83.649c2.375-2.725 5.81-4.288 9.424-4.288h17.375l-13.841 43.455c-8.119-2.232-17.676.251-23.227 6.675l-5.567 6.441c-5.885-4.646-11.919-9.1-18.075-13.368zm-123.12 96.769c0-3.621 2.946-6.566 6.566-6.566h62.98c17.984 0 33.43-9.136 44.511-22.819l10.141-11.734c3.944-4.564 12.743-2.069 12.743 4.293v36.827c0 2.827-1.799 5.234-4.309 6.158h-128.323c-2.51-.924-4.309-3.332-4.309-6.159zm-174.078-30.849c0-35.158 28.603-63.761 63.761-63.761s63.761 28.603 63.761 63.761c0 13.463-4.09 26.18-11.843 37.007h-48.455c-11.512 0-20.877 9.365-20.877 20.877 0 1.206.125 2.381.322 3.531-26.881-7.491-46.669-32.178-46.669-61.415zm380.185 57.884c0 3.241-2.637 5.877-5.877 5.877h-307.084c-3.241 0-5.877-2.636-5.877-5.877s2.636-5.877 5.877-5.877h293.707c4.142 0 7.5-3.358 7.5-7.5v-184.353c3.911.762 7.829.841 11.754.237zm70.744-350.747-11.832 5.531 6.391-19.468c3.942-.988 6.962.334 9.06 3.966 1.75 3.747.127 8.22-3.619 9.971z"/><path d="m410.17 236.369c1.663 3.942 6.382 5.74 10.236 3.857 3.586-1.751 5.158-6.196 3.512-9.819-1.615-3.555-5.827-5.306-9.482-3.916-3.88 1.476-5.891 6.032-4.266 9.878z"/></g></svg>