<svg id="Capa_1" enable-background="new 0 0 511.983 511.983" height="512" viewBox="0 0 511.983 511.983" width="512" xmlns="http://www.w3.org/2000/svg"><g><path d="m511.956 246.556c.571-11.564-7.945-21.638-19.248-23.17v-62.132c0-14.41-9.038-27.534-22.49-32.657l-76.914-29.311v-29.405c-.009-12.763-10.482-23.138-23.229-23.138-12.57 0-23.139 10.587-23.129 23.177l.023 13.484c.007 4.138 3.364 7.487 7.5 7.487h.013c4.142-.007 7.494-3.371 7.487-7.513l-.023-13.477c-.004-4.01 4.013-8.158 8.129-8.158 4.479 0 8.225 3.654 8.229 8.157v57.202c.003 4.009-4.012 8.159-8.129 8.159-4.96-.471-7.669-3.189-8.128-8.156l-.024-13.746c-.007-4.138-3.363-7.487-7.5-7.487-.004 0-.009 0-.014 0-4.142.007-7.494 3.371-7.487 7.513l.024 13.737c.009 12.499 10.592 23.138 23.128 23.138 12.57 0 23.139-10.586 23.13-23.177v-11.737l71.575 27.267c7.673 2.923 12.829 10.414 12.829 18.64v61.439c-10.125-.158-20.065.262-29.803 1.253v-10.892c0-15.435-12.557-27.991-27.991-27.991-11.267 0-20.994 6.695-25.429 16.313-19.399 4.902-47.397 15.192-77.99 36.739-3.76-2.787-8.408-4.439-13.435-4.439-12.475 0-22.624 10.16-22.624 22.647s10.149 22.647 22.624 22.647 22.624-10.16 22.624-22.647c0-2.005-.265-3.948-.755-5.801 25.68-18.126 49.317-27.779 66.994-32.91v19.191c-47.849 17.717-87.437 52.306-115.883 94.223h-142.154v-10.674h.762c12.637 0 22.917-10.281 22.917-22.946 0-12.637-10.281-22.918-22.917-22.918h-66.794c-12.637 0-22.918 10.281-22.918 22.946 0 12.637 10.281 22.918 22.918 22.918h.762v10.674h-21.449-31.411c-10.334 0-17.995 10.174-15.162 20.107l5.611 19.665c1.923 6.739 8.157 11.445 15.162 11.445h24.273l-34.513 48.51c-6.996 9.834-4.695 23.534 5.131 30.539 9.393 6.695 23.806 4.311 30.528-5.136l14.361-20.186c2.401-3.375 1.612-8.058-1.764-10.459-3.375-2.402-8.058-1.612-10.459 1.764l-14.361 20.186c-2.787 2.981-5.987 3.52-9.6 1.618-3.097-2.208-3.822-6.528-1.615-9.629l40.7-57.206h16.914l-14.17 19.917c-2.401 3.375-1.612 8.058 1.764 10.459 3.729 2.321 7.215 1.733 10.459-1.764l20.356-28.612h148.64c-1.157 2.723-2.13 5.135-2.914 7.161-3.165 8.173 3.047 17.247 11.813 17.247h30.521c5.025 0 9.582-2.992 11.609-7.623 8.045-18.378 27.194-32.327 46.582-36.639 3.128 17.342 11.766 33.229 24.836 45.379 20.332 18.903 49.846 26.261 76.688 19.144 13.511 15.722 20.752 27.68 20.912 27.948 5.717 9.723 19.818 13.373 29.528 7.667 10.255-6.03 13.699-19.285 7.677-29.549-.715-1.218-7.575-12.729-20.278-28.33 14.682-15.213 22.982-35.569 22.982-56.902 0-32.031-19.456-61.962-48.756-74.925 12.322-2.699 23.649-4.284 32.467-5.21 11.025-1.154 19.742-10.207 20.278-21.055zm-208.896 17.415c-4.204 0-7.624-3.431-7.624-7.647s3.42-7.647 7.624-7.647c4.397 0 7.624 3.637 7.624 7.647 0 4.216-3.42 7.647-7.624 7.647zm103.863-50.916c0-7.164 5.828-12.991 12.991-12.991s12.991 5.828 12.991 12.991v12.909c-8.849 1.473-17.515 3.439-25.982 5.896zm-346.987 84.351c0-4.366 3.552-7.918 7.918-7.918h66.794c4.366 0 7.917 3.552 7.917 7.946 0 4.366-3.552 7.918-7.917 7.918-22.265 0-44.529 0-66.794 0-4.366 0-7.918-3.552-7.918-7.946zm58.95 22.946v15.881c0 3.976-3.234 7.21-7.209 7.21h-20.852c-3.975 0-7.209-3.234-7.209-7.21v-15.881zm-97.518 46.892c-.34 0-.643-.23-.737-.561l-5.611-19.665c-.082-.577.164-.907.737-.991h23.911v21.217zm33.299 0v-21.217h16.231c3.626 7.348 11.194 12.417 19.928 12.417h20.852c8.733 0 16.302-5.069 19.928-12.417h134.884c-4.551 7.627-8.39 14.798-11.568 21.217zm371.47 47.408c-16.925 0-33.071-6.346-45.465-17.868-9.976-9.275-16.795-21.208-19.733-34.285 31.198 12.5 56.338 32.999 74.402 51.519-3.038.42-6.113.634-9.204.634zm5.343-133.598c34.259 2.709 61.488 32.365 61.488 66.694 0 16.943-6.409 33.132-17.786 45.44-6.231-6.944-13.404-14.318-21.504-21.719 5.619-6.534 8.82-14.922 8.82-23.721 0-20.065-16.311-36.389-36.36-36.389-13.49 0-25.563 7.405-31.841 18.805-6.539-3.27-13.346-6.298-20.433-9 10.116-16.8 28.998-30.268 56.131-40.033.471-.266.966-.292 1.485-.077zm10.868 80.588c-10.385-8.548-22.008-16.878-34.847-24.345 3.707-6.633 10.757-10.938 18.635-10.938 11.778 0 21.36 9.595 21.36 21.389.001 5.148-1.867 10.058-5.148 13.894zm-17.433-94.624c-30.767 11.072-52.385 26.885-64.253 46.998-4.52 7.66-.89 17.852 7.413 20.995 50.334 19.056 96.959 59.041 124.252 105.56 1.84 3.136.79 7.186-2.341 9.027-2.806 1.649-7.345.469-9.011-2.364-.419-.706-42.743-70.928-116.536-99.486-4.017-1.555-9.624-2.364-13.998-1.414-26.612 3.443-53.072 20.633-64.527 45.318h-25.571c7.321-18.044 25.834-57.012 60.347-91.285 45.334-45.02 106.045-66.278 169.506-62.173 3.933.254 6.974 3.673 6.779 7.623-.174 3.53-3.124 6.487-6.861 6.879-16.357 1.716-40.946 5.594-65.199 14.322z"/></g></svg>