<svg id="Capa_1" enable-background="new 0 0 512 512" height="512" viewBox="0 0 512 512" width="512" xmlns="http://www.w3.org/2000/svg"><g><path d="m499.555 357.859v-27.27c0-7.575-4.902-14.013-11.694-16.349-4.02-123.591-107.879-225.36-231.809-225.36-26.162 0-51.84 4.346-76.323 12.918-3.909 1.369-5.969 5.647-4.6 9.557 1.369 3.909 5.649 5.97 9.557 4.6 22.886-8.013 46.896-12.075 71.366-12.075 46.513 0 90.866 14.661 127.756 41.788-73.942 18.259-181.539 18.262-255.489.006 9.798-7.186 20.209-13.561 31.138-19.034 3.704-1.855 5.203-6.361 3.348-10.064-1.855-3.704-6.36-5.202-10.064-3.348-75.726 37.927-125.733 116.399-128.507 201.017-6.787 2.338-11.684 8.773-11.684 16.345v27.243c-7.245 2.142-12.55 8.847-12.55 16.777v31.007c0 9.651 7.852 17.502 17.502 17.502h405.123c4.143 0 7.5-3.358 7.5-7.5s-3.357-7.5-7.5-7.5h-405.123c-1.38 0-2.502-1.123-2.502-2.502v-31.007c0-1.379 1.123-2.502 2.502-2.502h476.996c1.38 0 2.502 1.123 2.502 2.502v31.007c0 1.38-1.122 2.502-2.502 2.502h-41.944c-4.143 0-7.5 3.358-7.5 7.5s3.357 7.5 7.5 7.5h41.944c9.65 0 17.502-7.852 17.502-17.502v-31.007c0-7.892-5.254-14.575-12.445-16.751zm-441.081-126.036c53.606 15.364 123.503 23.802 197.578 23.802 74.103 0 144.026-8.445 197.64-23.82 11.471 25.381 18.024 52.951 19.137 81.487h-433.546c1.114-28.292 7.653-55.929 19.191-81.469zm-30.924 98.767c0-1.267 1.031-2.298 2.298-2.298h452.409c1.267 0 2.298 1.031 2.298 2.298v26.518h-457.005zm86.249-173.244c39.826 11.282 91.038 16.924 142.253 16.924 51.222 0 102.44-5.644 142.268-16.929 19.611 17.172 36.205 37.843 48.594 60.786-107.232 29.968-274.422 29.973-381.672.014 12.371-22.94 28.934-43.643 48.557-60.795z"/></g></svg>