<svg id="Capa_1" enable-background="new 0 0 512 512" height="512" viewBox="0 0 512 512" width="512" xmlns="http://www.w3.org/2000/svg"><g><path d="m436.997 74.981c-48.352-48.352-112.64-74.981-181.019-74.981s-132.667 26.629-181.02 74.981c-54.331 54.33-81.597 131.57-73.547 207.987.434 4.119 4.098 7.102 8.245 6.673 4.119-.434 7.106-4.125 6.673-8.245-3.8-36.077.495-71.806 12.079-104.964 4.561 26.359 14.06 54.326 28.065 82.333 19.895 39.784 48.654 79.056 83.168 113.57 34.502 34.501 73.759 63.253 113.527 83.147 28.044 14.028 56.05 23.538 82.442 28.097-25.258 8.816-52.09 13.42-79.632 13.42-64.373 0-124.894-25.068-170.412-70.587-32.09-32.089-54.383-72.333-64.469-116.382-.924-4.038-4.953-6.564-8.984-5.637-4.038.924-6.562 4.947-5.637 8.984 10.716 46.801 34.397 89.556 68.482 123.641 48.353 48.353 112.64 74.982 181.02 74.982s132.667-26.629 181.02-74.981c48.352-48.352 74.98-112.639 74.98-181.019s-26.629-132.667-74.981-181.019zm55.015 132.038c-9.411 35.333-47.383 39.866-77.797 31.862-29.706-7.818-60.792-26.849-87.53-53.587s-45.77-57.824-53.587-87.53c-8.001-30.406-3.5-68.378 31.862-77.798 45.692 9.385 87.686 31.877 121.43 65.622 33.745 33.744 56.237 75.738 65.622 121.431zm-65.622 219.394c-18.546 18.546-39.583 33.695-62.355 45.138-31.925-1.178-67.889-11.341-104.156-29.483-38.345-19.182-76.255-46.962-109.631-80.338-33.389-33.389-61.177-71.313-80.359-109.673-18.106-36.207-28.257-72.108-29.456-103.989 11.439-22.801 26.569-43.917 45.133-62.48 16.075-16.075 34.028-29.586 53.354-40.357-14.488 65.528 23.263 157.353 96.869 230.958 63.17 63.169 139.762 99.938 201.631 99.938 10.22 0 20.036-1.011 29.326-3.064-10.772 19.324-24.282 37.276-40.356 53.35zm49.524-71.593c-28.083 10.256-65.315 7.864-105.271-6.832-43.297-15.924-86.261-44.419-124.247-82.406s-66.482-80.95-82.406-124.248c-14.695-39.955-17.088-77.186-6.833-105.271 30.668-13.794 64.184-21.063 98.821-21.063 7.716 0 15.374.37 22.959 1.082-26.403 20.037-28.145 55.86-20.345 85.498 8.482 32.235 28.898 65.732 57.485 94.319 28.588 28.587 62.085 49.003 94.32 57.486 29.63 7.798 65.462 6.06 85.498-20.345.712 7.586 1.082 15.244 1.082 22.959.001 34.637-7.268 68.153-21.063 98.821z"/><path d="m408.11 164.585c7.281 0 13.747-2.274 18.491-7.017 6.737-6.738 8.746-16.973 5.658-28.82-1.045-4.008-5.145-6.413-9.149-5.365-4.009 1.045-6.411 5.141-5.366 9.149 1.667 6.392 1.028 11.651-1.749 14.43-7.247 7.247-26.118-.799-38.149-12.83-12.032-12.032-20.075-30.903-12.83-38.148 2.224-2.225 4.826-3.244 8.311-3.188 9.728.142 23.353 9.1 31.233 17.456 2.843 3.013 7.59 3.153 10.602.31 3.014-2.842 3.152-7.588.311-10.602-7.654-8.115-25.098-21.916-41.927-22.162-7.406-.092-14.068 2.512-19.137 7.58-13.045 13.046-7.409 39.121 12.83 59.361 12.881 12.881 28.125 19.846 40.871 19.846z"/></g></svg>