<svg id="Capa_1" enable-background="new 0 0 512 512" height="512" viewBox="0 0 512 512" width="512" xmlns="http://www.w3.org/2000/svg"><g><path d="m483.275 174.336c-4.743-4.751-9.989-7.161-15.592-7.161-33.803 0-67.607 0-101.41 0v-49.877c0-25.378-21.932-48.272-47.752-48.272h-122.67c-25.826 0-47.751 22.879-47.751 48.272v49.877c-36.859 0-73.719 0-110.578 0-12.385 0-21.719 14.396-28.537 44.01-5.795 25.166-8.985 58.51-8.985 93.89 0 25.346 1.66 50.004 4.8 71.31.605 4.098 4.416 6.932 8.514 6.326 4.098-.604 6.93-4.416 6.326-8.514-3.036-20.594-4.64-44.495-4.64-69.122 0-33.109 2.878-64.469 8.104-88.305 6.563-29.938 13.65-34.2 14.418-34.571.768.371 7.854 4.633 14.418 34.571 5.226 23.835 8.104 55.196 8.104 88.305s-2.878 64.47-8.104 88.305c-6.563 29.938-13.65 34.2-14.418 34.571-.68-.324-6.263-3.637-12.15-25.29-1.087-3.997-5.21-6.355-9.205-5.269-3.997 1.087-6.356 5.208-5.27 9.206 6.656 24.478 15.365 36.377 26.625 36.377h430.162c14.269 0 25.629-15.588 33.766-46.331 6.644-25.1 10.488-58.47 10.55-91.554.094-50.664-8.751-110.742-28.725-130.754zm-157.237-88.906c14.447 3.4 25.235 16.398 25.235 31.868v49.877h-25.235zm-122.703 81.746v-42.87h107.703v42.87zm107.703-57.87h-107.703v-25.28h107.703zm-147.938 7.992c0-15.47 10.788-28.468 25.235-31.868v81.746h-25.235zm-106.845 310.676c3.724-7.102 6.98-16.747 9.804-29.01 5.794-25.165 8.984-58.508 8.984-93.889 0-35.38-3.19-68.724-8.984-93.889-2.823-12.263-6.08-21.908-9.804-29.01h38.392c.381.155 7.704 3.731 14.471 34.594 5.226 23.835 8.104 55.196 8.104 88.305s-2.878 64.47-8.104 88.305c-6.916 31.545-14.413 34.583-14.418 34.594zm57.183 0c3.723-7.102 6.976-16.751 9.798-29.01 5.794-25.165 8.984-58.508 8.984-93.889 0-35.38-3.19-68.724-8.984-93.889-2.822-12.258-6.075-21.909-9.798-29.01h21.236c.388.158 7.707 3.744 14.471 34.594 5.226 23.835 8.104 55.196 8.104 88.305s-2.878 64.47-8.104 88.305c-6.916 31.545-14.413 34.583-14.418 34.594zm40.023 0c3.724-7.102 6.98-16.747 9.804-29.01 5.794-25.165 8.984-58.508 8.984-93.889 0-35.38-3.19-68.724-8.984-93.889-2.823-12.263-6.08-21.908-9.804-29.01h223.987c.381.155 7.704 3.731 14.47 34.595 5.226 23.834 8.104 55.195 8.104 88.304s-2.878 64.47-8.104 88.305c-6.915 31.545-14.412 34.583-14.417 34.594zm333.487-35.169c-6.395 24.163-14.469 35.168-19.265 35.168h-31.421c3.724-7.102 6.98-16.747 9.804-29.01 5.794-25.165 8.984-58.508 8.984-93.889 0-22.795-1.361-45.3-3.938-65.08-.535-4.108-4.306-7.006-8.406-6.468-4.107.535-7.003 4.298-6.469 8.406 2.494 19.149 3.812 40.983 3.812 63.143 0 33.109-2.878 64.47-8.104 88.305-6.916 31.545-14.413 34.583-14.418 34.594h-21.287c3.723-7.102 6.976-16.751 9.797-29.01 5.794-25.165 8.984-58.508 8.984-93.889s-3.19-68.724-8.984-93.889c-2.822-12.259-6.074-21.909-9.797-29.01h21.236c.304.119 7.115 3.303 13.719 31.302.951 4.031 4.991 6.525 9.021 5.578 4.032-.951 6.529-4.99 5.578-9.022-2.763-11.713-5.929-20.981-9.533-27.858h31.422c1.475 0 3.148.928 4.975 2.757 13.979 14.005 24.442 65.648 24.341 120.127-.06 31.854-3.723 63.835-10.051 87.745z"/><path d="m234.366 235.796h9.377v71.762c0 4.142 3.357 7.5 7.5 7.5s7.5-3.358 7.5-7.5v-79.262c0-4.142-3.357-7.5-7.5-7.5h-16.877c-4.143 0-7.5 3.358-7.5 7.5s3.358 7.5 7.5 7.5z"/><path d="m302.675 316.675c16.726 0 30.332-13.646 30.332-30.42v-36.656c0-16.774-13.606-30.42-30.332-30.42s-30.332 13.646-30.332 30.42v36.656c0 16.773 13.606 30.42 30.332 30.42zm-15.332-67.076c0-8.503 6.878-15.42 15.332-15.42s15.332 6.917 15.332 15.42v36.656c0 8.503-6.878 15.42-15.332 15.42s-15.332-6.917-15.332-15.42z"/><path d="m246.854 357.442 19.009-17.538c3.044-2.809 3.235-7.554.427-10.598-2.808-3.042-7.552-3.236-10.599-.426l-13.825 12.756v-7.865c0-4.142-3.357-7.5-7.5-7.5s-7.5 3.358-7.5 7.5v49.283c0 4.142 3.357 7.5 7.5 7.5s7.5-3.358 7.5-7.5v-9.561l15.437 14.949c3.559 2.872 7.094 2.815 10.605-.17 2.882-2.975 2.806-7.724-.17-10.605z"/><path d="m326.001 351.063h-14.847c-4.143 0-7.5 3.358-7.5 7.5s3.357 7.5 7.5 7.5h6.271c-1.727 5.517-5.673 9.908-12.845 9.908-9.547 0-17.314-7.809-17.314-17.408s7.768-17.408 17.314-17.408c3.466 0 6.808 1.024 9.665 2.961 3.427 2.325 8.093 1.429 10.417-1.999 2.324-3.429 1.43-8.092-1.999-10.417-5.352-3.628-11.604-5.546-18.083-5.546-17.818 0-32.314 14.538-32.314 32.408s14.496 32.408 32.314 32.408c17.028 0 28.921-13.327 28.921-32.408 0-4.141-3.357-7.499-7.5-7.499z"/></g></svg>