<svg id="Capa_1" enable-background="new 0 0 512 512" height="512" viewBox="0 0 512 512" width="512" xmlns="http://www.w3.org/2000/svg"><g><path d="m315.638 177.667h-119.277c-4.142 0-7.5 3.358-7.5 7.5s3.358 7.5 7.5 7.5h119.277c4.142 0 7.5-3.358 7.5-7.5s-3.357-7.5-7.5-7.5z"/><path d="m500.569 323.34c7.235-6.09 11.472-15.161 11.43-24.641-.036-8.121-3.129-15.538-8.176-21.169 7.287-5.659 10.024-15.723 6.808-24.343l-40.04-107.351c-3.039-8.147-10.819-13.621-19.36-13.621h-390.462c-8.541 0-16.321 5.474-19.36 13.621l-7.779 20.857c-1.447 3.881.525 8.201 4.406 9.648 3.88 1.447 8.201-.525 9.648-4.406l7.78-20.857c.875-2.347 2.958-3.863 5.306-3.863h31.886v61.605c0 10.165 8.243 18.435 18.375 18.435h289.939c10.132 0 18.375-8.27 18.375-18.435v-61.605h31.886c2.348 0 4.431 1.516 5.306 3.863l40.041 107.351c1.444 3.873-1.246 8.429-5.306 8.429-13.935 0-27.869 0-41.804 0 .849-12.346-7.633-24.128-20.837-24.128h-29.333c-13.205 0-21.686 11.782-20.837 24.128h-244.921c.849-12.346-7.632-24.128-20.837-24.128h-29.333c-13.205 0-21.686 11.782-20.837 24.128-13.935 0-27.869 0-41.804 0-4.06 0-6.751-4.556-5.306-8.429l21.813-58.483c1.448-3.881-.525-8.201-4.406-9.648-3.879-1.447-8.201.524-9.648 4.406l-21.814 58.483c-3.216 8.62-.479 18.685 6.808 24.343-5.047 5.631-8.14 13.048-8.176 21.169-.042 9.48 4.196 18.55 11.43 24.641-6.943 5.845-11.387 14.577-11.43 24.322-.077 17.342 14.599 32.123 31.981 32.123h132.11c17.341 0 32.059-14.741 31.981-32.123-.043-9.745-4.486-18.477-11.43-24.322 7.235-6.09 11.473-15.162 11.43-24.641-.027-6.181-1.829-11.952-4.91-16.841h129.675c-3.082 4.889-4.883 10.66-4.91 16.841-.042 9.479 4.196 18.551 11.43 24.641-6.944 5.845-11.388 14.577-11.43 24.322-.077 17.342 14.6 32.123 31.981 32.123h88.092c4.142 0 7.5-3.358 7.5-7.5s-3.358-7.5-7.5-7.5h-88.092c-9.295 0-17.022-7.763-16.981-17.057.041-9.322 7.659-16.906 16.981-16.906h132.11c9.322 0 16.94 7.584 16.981 16.906.041 9.294-7.687 17.057-16.981 17.057h-14.023c-4.142 0-7.5 3.358-7.5 7.5s3.358 7.5 7.5 7.5h14.023c17.342 0 32.058-14.742 31.981-32.123-.042-9.745-4.486-18.477-11.43-24.322zm-99.599-111.085h-289.94c-1.861 0-3.375-1.541-3.375-3.435v-61.605h296.69v61.605c0 1.894-1.514 3.435-3.375 3.435zm-7.511 51.385c0-3.259 2.619-5.91 5.837-5.91h29.333c4.933 0 6.44 5.225 5.837 9.128h-41.008v-3.218zm-315.926 0c0-3.259 2.619-5.91 5.837-5.91h29.333c4.932 0 6.439 5.225 5.837 9.128h-41.007zm103.54 84.088c.041 9.294-7.687 17.057-16.981 17.057h-132.111c-9.295 0-17.022-7.763-16.981-17.057.041-9.322 7.659-16.906 16.981-16.906h132.11c9.323-.001 16.941 7.583 16.982 16.906zm0-48.963c.041 9.294-7.687 17.056-16.981 17.056h-132.111c-9.294 0-17.022-7.763-16.981-17.057.041-9.322 7.659-16.907 16.981-16.907h132.11c9.323.001 16.941 7.585 16.982 16.908zm166.836 17.056c-9.294 0-17.022-7.763-16.981-17.057.041-9.322 7.659-16.907 16.981-16.907h132.11c9.322 0 16.94 7.584 16.981 16.907.041 9.294-7.687 17.056-16.981 17.056h-132.11z"/></g></svg>