<svg id="Capa_1" enable-background="new 0 0 512 512" height="512" viewBox="0 0 512 512" width="512" xmlns="http://www.w3.org/2000/svg"><g><path d="m478.39 206.55h-34.823c-13.515-119.392-74.053-205.334-145.455-205.334h-75.845c-43.054 0-77.59 31.305-99.623 65.625-2.238 3.486-1.226 8.125 2.26 10.363 3.765 2.143 7.219 1.39 10.363-2.26 3.358-5.23 6.845-10.124 10.439-14.695h57.173c-3.736 5.386-7.339 11.116-10.793 17.185-5.412 9.511-10.332 19.647-14.756 30.3h-59.518c1.305-2.963 2.649-5.879 4.036-8.741 1.807-3.727.25-8.214-3.477-10.021-3.727-1.808-8.213-.25-10.021 3.477-15.951 32.899-26.733 72.27-31.509 114.1h-43.231c-18.847.001-33.61 21.419-33.61 48.761s14.763 48.76 33.61 48.76h43.039c5.379 49.065 18.972 94.261 39.593 130.496 27.97 49.15 65.624 76.218 106.025 76.218h75.845c22.434 0 43.935-8.256 63.904-24.539 3.21-2.617 3.691-7.342 1.073-10.552-2.618-3.211-7.342-3.692-10.552-1.073-17.223 14.043-35.535 21.164-54.425 21.164-34.776 0-67.8-24.376-92.989-68.637-29.242-51.387-40.235-112.587-40.235-171.147 0-64.772 14.29-125.553 40.235-171.146 25.188-44.261 58.212-68.637 92.989-68.637 30.825 0 60.998 19.75 84.959 55.612 23.228 34.763 39.22 82.349 45.391 134.722h-21.719c-12.314-93.396-57.423-160.489-108.631-160.489-30.307 0-58.74 22.776-80.06 64.133-20.507 39.779-31.8 91.562-31.8 145.807s11.293 106.027 31.8 145.807c21.32 41.356 49.753 64.133 80.06 64.133 51.615 0 96.768-67.65 108.812-161.87h21.696c-6.965 60.775-27.28 115.319-56.282 150.61-2.63 3.2-2.167 7.926 1.033 10.556 3.66 2.578 7.179 2.234 10.556-1.033 31.062-37.798 52.69-95.865 59.794-160.133h34.669c18.847 0 33.61-21.418 33.61-48.76 0-27.344-14.763-48.762-33.61-48.762zm-306.833-83.816c-6.012 16.899-10.839 34.907-14.393 53.715h-60.498c3.725-18.893 8.778-36.945 15.056-53.715zm-75.234 211.436h60.59c3.482 18.794 8.229 36.803 14.16 53.715h-59.913c-6.221-16.792-11.195-34.815-14.837-53.715zm-7.223-71.36h60.843c.29 19.235 1.809 38.111 4.485 56.361h-60.689c-2.768-18.197-4.34-37.082-4.639-56.361zm60.871-15h-60.842c.368-19.176 2.021-38.089 4.886-56.36h60.62c-2.738 18.24-4.315 37.117-4.664 56.36zm-116.361 41.26c-9.914 0-18.61-15.776-18.61-33.76s8.696-33.76 18.61-33.76h41.79c-1.77 22.453-1.799 45.06-.128 67.52zm213.845 206.714h-25.188c-22.893 0-45.026-10.567-64.665-30.414h55.636c10.611 12.73 22.097 22.937 34.217 30.414zm-45.511-45.414h-57.356c-5.362-6.992-10.481-14.739-15.309-23.224-4.366-7.672-8.393-15.783-12.087-24.261h59.57c4.568 11.159 9.679 21.76 15.325 31.68 3.163 5.559 6.456 10.819 9.857 15.805zm12.445-405.12h-55.289c19.344-18.917 41.037-29.033 63.167-29.033h25.188c-11.682 7.206-22.778 16.94-33.066 29.033zm83.951 243.82c-25.678 0-25.521-67.52 0-67.52h155.604c-5.702 8.7-9.164 20.532-9.164 33.76s3.463 25.06 9.164 33.76zm-74.561 89.356c-13.598-32.962-21.576-73.566-22.441-114.926h63.853c1.004 8.954 3.631 17.012 7.448 23.545zm-.752-243.031 49.25 88.796c-3.815 6.758-6.373 15.088-7.226 24.309h-63.712c.848-40.598 8.544-80.475 21.688-113.105zm110.706 71.155 39.478-71.178c8.382 20.755 14.776 44.897 18.401 71.178zm31.774-88.213-48.926 88.213h-10.968v-144.838c22.544 3.847 43.782 24.79 59.894 56.625zm-74.895-56.608v146.08c-2.807.925-5.469 2.342-7.943 4.194l-51.936-93.64c.218-.431.432-.87.653-1.297 16.441-31.894 37.68-51.587 59.226-55.337zm-58.94 333.748 51.567-96.443c2.312 1.65 4.781 2.923 7.374 3.777v147.461c-21.423-3.729-42.539-23.224-58.941-54.795zm73.94 54.816v-146.223h10.067l48.923 91.499c-15.973 30.794-36.818 50.968-58.99 54.724zm66.881-71.778-39.805-74.445h59.112c-3.694 27.634-10.422 52.924-19.307 74.445zm105.897-89.445c-9.914 0-18.61-15.776-18.61-33.76s8.696-33.76 18.61-33.76 18.61 15.775 18.61 33.76-8.696 33.76-18.61 33.76z"/></g></svg>