<svg id="Capa_1" enable-background="new 0 0 512.008 512.008" height="512" viewBox="0 0 512.008 512.008" width="512" xmlns="http://www.w3.org/2000/svg"><g><path d="m507.566 107.28c-.962-4.028-5.001-6.515-9.037-5.553-4.028.962-6.515 5.008-5.553 9.037 3.958 16.575 4.81 40.2-13.609 58.624l-19.41 19.419c-.386-.342-.797-.638-1.23-.887 1.276-14.934-1.643-31.376-8.632-48.154-7.299-17.521-18.611-34.464-31.853-47.708-22.537-22.545-60.993-43.44-96.171-40.365-.485-.195-.986-.334-1.495-.424l20.355-20.365c18.588-18.592 42.627-17.481 59.523-13.276 20.643 5.138 42.502 17.744 58.475 33.721 9.141 9.143 17.644 20.834 23.943 32.92 1.914 3.673 6.444 5.098 10.117 3.184 3.673-1.915 5.099-6.444 3.184-10.118-7.087-13.597-16.298-26.25-26.637-36.592-17.815-17.82-42.286-31.903-65.458-37.671-29.615-7.373-55.118-1.415-73.755 17.227l-21.316 21.327c-5.404 5.407-6.5 13.43-3.231 19.909l-23.679 23.685c-11.819 3.029-22.362 9.049-31.317 18.005l-27.765 27.773c-4.759 4.761-6.163 11.547-4.203 17.526l-24.387 24.394c-11.819 3.029-22.362 9.049-31.316 18.005l-27.765 27.773c-4.76 4.761-6.164 11.548-4.204 17.526l-24.386 24.393c-11.819 3.029-22.363 9.049-31.317 18.006l-53.44 53.456c-.005.005-.01.01-.015.015-40.96 40.973-12.707 106.094 20.438 139.249 34.352 34.361 99.179 60.49 139.214 20.445l53.455-53.471c9.405-9.407 15.152-20.09 18.037-31.364l24.723-24.73c6.073 1.683 13.524-.207 17.991-4.676l26.92-26.928c9.404-9.407 15.152-20.089 18.037-31.363l24.724-24.731c6.073 1.683 13.524-.207 17.991-4.676l26.92-26.928c9.404-9.407 15.152-20.089 18.037-31.363l25.85-25.858c5.272.611 11.462-1.499 15.186-5.224l20.47-20.48c18.458-18.465 24.54-43.608 17.591-72.714zm-142.8-33.143c15.588 6.469 31.212 16.866 42.868 28.525 31.144 31.152 39.96 69.415 34.98 91.739-.149.652-.197 1.31-.174 1.96l-11.809 11.812c-1.683-31.555-20.229-64.09-40.639-84.505-17.815-17.82-42.286-31.903-65.459-37.671-6.568-1.635-12.932-2.611-19.064-2.942l16.26-16.265c12.987-1.501 27.723.992 43.037 7.347zm-7.755 207.681-14.051 14.054c-1.683-31.555-20.229-64.09-40.639-84.506-21.937-21.943-53.123-38.919-84.523-40.613l13.993-13.997c32.211-5.951 67.681 13.102 89.851 35.278 30.237 30.247 39.424 67.189 35.369 89.784zm-87.669 87.695-14.053 14.056c-1.683-31.554-20.23-64.089-40.639-84.505-17.816-17.82-42.287-31.903-65.459-37.671-6.567-1.635-12.931-2.611-19.064-2.942l13.992-13.996c32.212-5.949 67.68 13.101 89.851 35.278 30.253 30.262 39.435 67.227 35.372 89.78zm-157.838 124.942c-20.643-5.138-42.502-17.744-58.475-33.721-16.065-16.069-28.713-37.943-33.833-58.512-4.194-16.848-5.274-40.851 13.395-59.525 15.875-15.88 38.478-18.515 59.523-13.277 20.643 5.138 42.502 17.744 58.474 33.721 16.065 16.07 28.713 37.943 33.833 58.513 4.194 16.847 5.274 40.851-13.395 59.525-18.587 18.592-42.628 17.48-59.522 13.276zm112.977-66.747-23.03 23.037c4.078-35.51-16.869-74.816-40.255-98.21-17.815-17.82-42.286-31.903-65.459-37.671-11.612-2.89-22.588-3.722-32.77-2.553l23.078-23.085c18.586-18.592 42.628-17.481 59.522-13.276 20.643 5.138 42.502 17.744 58.475 33.721 16.065 16.07 28.713 37.944 33.833 58.513 4.195 16.846 5.275 40.849-13.394 59.524zm87.672-87.698-26.921 26.928c-.122.122-.251.233-.388.333 1.794-15.531-1.067-32.799-8.414-50.435-7.299-17.52-18.61-34.463-31.851-47.708-24.702-24.711-62.521-44.303-98.287-40.168l27.425-27.432c18.587-18.593 42.628-17.482 59.522-13.277 20.643 5.138 42.502 17.744 58.475 33.721 16.064 16.07 28.713 37.944 33.833 58.513 4.195 16.847 5.275 40.851-13.394 59.525zm87.672-87.697-26.921 26.928s1.789-23.199-7.152-45.712c-7.638-19.23-18.867-37.461-33.501-52.099-24.703-24.71-62.521-44.303-98.287-40.167l27.424-27.432c18.589-18.593 42.629-17.481 59.523-13.277 20.643 5.138 42.502 17.744 58.475 33.721 16.064 16.07 28.713 37.943 33.833 58.512 4.195 16.847 5.275 40.851-13.394 59.526z"/><path d="m139.68 374.057c-14.739-14.743-32.35-24.998-49.59-28.877-18.472-4.155-34.471-.615-45.054 9.971-9.634 9.637-13.468 24.086-10.797 40.684.658 4.09 4.504 6.874 8.597 6.213 4.089-.658 6.871-4.507 6.213-8.597-1.886-11.718.456-21.554 6.596-27.695 6.815-6.818 17.879-8.927 31.153-5.942 14.504 3.263 29.518 12.088 42.274 24.848 25.025 25.033 33.68 58.671 18.9 73.455-6.815 6.819-17.878 8.929-31.152 5.942-14.504-3.263-29.518-12.087-42.274-24.848-6.313-6.315-11.688-13.223-15.974-20.533-2.095-3.573-6.688-4.773-10.263-2.677-3.573 2.095-4.771 6.69-2.677 10.264 4.931 8.41 11.09 16.334 18.306 23.551 14.739 14.743 32.35 24.999 49.59 28.877 15.533 3.495 33.269 1.816 45.053-9.971 10.581-10.584 14.121-26.588 9.967-45.062-3.878-17.243-14.13-34.859-28.868-49.603z"/></g></svg>