<svg id="Capa_1" enable-background="new 0 0 512 512" height="512" viewBox="0 0 512 512" width="512" xmlns="http://www.w3.org/2000/svg"><g><path d="m512 354.123c0-38.244-13.854-75.141-39.013-103.895-23.474-26.829-55.236-44.894-90.006-51.336v-47.512c8.811-2.64 15.254-10.813 15.254-20.472v-14.016c0-9.659-6.443-17.832-15.254-20.472v-88.92c0-4.142-3.357-7.5-7.5-7.5s-7.5 3.358-7.5 7.5v88.017h-27.817v-88.017c0-4.142-3.357-7.5-7.5-7.5s-7.5 3.358-7.5 7.5v88.92c-8.812 2.64-15.255 10.813-15.255 20.472v14.016c0 9.659 6.443 17.832 15.255 20.472v47.511c-13.915 2.578-27.349 7.016-39.962 13.135-23.796-32.331-59.058-54.471-98.367-61.759v-47.52c8.812-2.64 15.255-10.813 15.255-20.472v-14.015c0-9.659-6.443-17.832-15.255-20.472v-40.288c0-4.142-3.357-7.5-7.5-7.5s-7.5 3.358-7.5 7.5v39.384h-27.817v-39.384c0-4.142-3.357-7.5-7.5-7.5s-7.5 3.358-7.5 7.5v40.288c-8.811 2.64-15.254 10.813-15.254 20.472v14.016c0 9.659 6.443 17.832 15.254 20.472v47.512c-34.771 6.442-66.532 24.506-90.007 51.336-25.157 28.754-39.011 65.651-39.011 103.894 0 85.982 71.943 157.877 157.928 157.877 23.889 0 47.574-5.461 68.925-15.814 29.532 40.08 77.397 64.447 127.219 64.447 85.981 0 157.928-71.894 157.928-157.877zm-50.302-94.019c22.765 26.02 35.302 59.409 35.302 94.019 0 37.816-14.779 72.242-38.858 97.825l-9.456-19.852c17.52-21.208 28.057-48.383 28.057-77.973 0-56.814-39.07-105.969-93.762-119.189v-20.757c30.389 6.25 58.085 22.347 78.717 45.927zm-215.297 94.019c0-22.054 6.804-42.875 18.563-60.227.414 3.842.634 7.712.634 11.594 0 21.644-6.515 42.607-18.558 60.336-.418-3.845-.639-7.749-.639-11.703zm34.198-48.633c0-9.106-1.011-18.161-2.998-26.981 5.221-5.291 10.988-10.056 17.229-14.193 3.999 13.297 6.025 27.107 6.025 41.174 0 37.619-14.915 73.687-41.192 100.335-3.561-6.472-6.473-13.349-8.654-20.54 19.1-22.238 29.59-50.466 29.59-79.795zm-6.572 120.538c-.058-.068-.118-.135-.179-.202-2.052-2.292-4.01-4.669-5.862-7.13 30.497-29.653 47.869-70.526 47.869-113.206 0-16.673-2.577-33.025-7.663-48.706 5.644-2.672 11.566-4.869 17.727-6.538 2.211 7.403 9.075 12.819 17.189 12.819h21.931c8.116 0 14.982-5.42 17.191-12.827 46.537 12.569 79.514 54.988 79.514 103.884 0 27.524-10.393 52.663-27.456 71.714-.054.059-.107.119-.159.18-19.724 21.926-48.305 35.739-80.056 35.739-31.746 0-60.322-13.808-80.046-35.727zm93.954-273.744v92.841c0 1.621-1.32 2.94-2.943 2.94h-21.931c-1.623 0-2.943-1.319-2.943-2.94v-92.841zm-43.072-35.391c0-3.516 2.86-6.376 6.376-6.376h45.575c3.516 0 6.375 2.86 6.375 6.376v14.016c0 3.516-2.859 6.376-6.375 6.376h-45.575c-3.516 0-6.376-2.86-6.376-6.376zm-52.996 102.393c-5.778 3.524-11.34 7.418-16.642 11.672-17.051-22.168-41.386-38.071-68.435-44.656v-20.754c33.808 6.96 64.124 26.098 85.077 53.738zm-68.068 183.537c-14.283 6.747-30.035 10.3-45.917 10.3-31.751 0-60.332-13.813-80.056-35.739-.052-.061-.105-.12-.159-.18-17.062-19.052-27.456-44.191-27.456-71.714 0-48.641 33.068-91.288 79.516-103.876 2.211 7.403 9.075 12.819 17.189 12.819h21.931c8.119 0 14.986-5.423 17.193-12.833 22.954 6.255 43.499 20.189 57.919 39.32-3.061 2.974-6.017 6.074-8.846 9.308-25.158 28.754-39.013 65.651-39.013 103.895 0 16.988 2.708 33.354 7.699 48.7zm-32.009-299.171v92.841c0 1.621-1.32 2.94-2.943 2.94h-21.931c-1.623 0-2.943-1.319-2.943-2.94v-92.841zm-43.071-35.392c0-3.516 2.859-6.376 6.375-6.376h45.575c3.516 0 6.376 2.86 6.376 6.376v14.016c0 3.516-2.86 6.376-6.376 6.376h-45.575c-3.516 0-6.375-2.86-6.375-6.376zm-113.765 237.23c0-34.609 12.537-67.999 35.302-94.018 20.631-23.581 48.328-39.677 78.717-45.928v20.76c-54.583 13.229-93.762 62.666-93.762 119.186 0 29.589 10.537 56.765 28.057 77.973l-9.456 19.852c-24.079-25.583-38.858-60.009-38.858-97.825zm142.928 142.878c-35.314 0-67.672-12.876-92.639-34.169l9.064-19.029c21.922 20.431 51.311 32.953 83.574 32.953 17.696 0 35.257-3.867 51.251-11.231 2.714 6.236 5.817 12.263 9.282 18.052-18.832 8.796-39.593 13.424-60.532 13.424zm53.218-94.245c0-34.609 12.537-67.999 35.302-94.018 20.631-23.58 48.329-39.677 78.717-45.928v20.76c-54.106 13.112-93.763 63.394-93.763 119.186 0 28.278 10.058 56.185 28.058 77.973l-9.456 19.851c-24.08-25.583-38.858-60.009-38.858-97.824zm50.288 108.708 9.064-19.028c21.922 20.43 51.31 32.953 83.574 32.953s61.652-12.523 83.574-32.953l9.064 19.029c-24.966 21.292-57.324 34.168-92.638 34.168-35.313 0-67.671-12.876-92.638-34.169z"/></g></svg>