<svg id="Capa_1" enable-background="new 0 0 512 512" height="512" viewBox="0 0 512 512" width="512" xmlns="http://www.w3.org/2000/svg"><g><path d="m194.058 369.567h-12.062c-4.143 0-7.5 3.358-7.5 7.5s3.357 7.5 7.5 7.5h4.562v48.804c0 4.142 3.357 7.5 7.5 7.5s7.5-3.358 7.5-7.5v-56.304c0-4.142-3.358-7.5-7.5-7.5z"/><path d="m171.077 213.761c4.065.801 8.008-1.845 8.808-5.91.635-3.224 3.499-5.564 6.811-5.564 3.694 0 6.724 2.889 6.929 6.516l-.153 1.198c-.677 2.609-2.314 5.81-4.754 9.287-8.925 12.723-14.25 19.679-17.11 23.417-3.546 4.632-5.5 7.184-4.241 11.277.747 2.431 2.583 4.293 5.038 5.109 1.003.333 1.852.616 12.877.616 4.333 0 10.238-.043 18.34-.145 4.143-.052 7.458-3.452 7.405-7.594-.051-4.11-3.398-7.406-7.497-7.406-.032 0-.064 0-.096 0-4.87.061-10.006.104-14.521.122 3.008-4.047 6.97-9.489 12.085-16.782 3.688-5.256 6.099-10.247 7.165-14.831.058-.248.103-.498.135-.749l.278-2.178c.04-.315.061-.633.061-.951 0-12.08-9.842-21.907-21.939-21.907-10.458 0-19.512 7.43-21.527 17.666-.804 4.065 1.842 8.008 5.906 8.809z"/><path d="m188.026 95.553c-3.45 0-6.939-3.434-6.939-6.907 0-4.142-3.357-7.5-7.5-7.5s-7.5 3.358-7.5 7.5c0 11.783 10.106 21.907 21.939 21.907 12.098 0 21.94-9.828 21.94-21.907 0-5.513-2.054-10.553-5.433-14.407 3.379-3.855 5.433-8.894 5.433-14.407 0-12.08-9.843-21.907-21.94-21.907-10.459 0-19.513 7.43-21.526 17.666-.8 4.064 1.846 8.007 5.91 8.807 4.072.799 8.008-1.847 8.807-5.911.635-3.223 3.498-5.562 6.81-5.562 3.827 0 6.94 3.098 6.94 6.907s-3.113 6.907-6.94 6.907c-4.143 0-7.5 3.358-7.5 7.5s3.357 7.5 7.5 7.5c3.827 0 6.94 3.099 6.94 6.907s-3.113 6.907-6.941 6.907z"/><path d="m489.561 0c-133.637 0-267.273 0-400.91 0-4.143 0-7.5 3.358-7.5 7.5s3.357 7.5 7.5 7.5h268.222v118.477h-266.224l-71.468-71.469v-43.774c0-1.784 1.462-3.234 3.259-3.234h36.229c4.143 0 7.5-3.358 7.5-7.5s-3.357-7.5-7.5-7.5h-36.23c-10.068 0-18.258 8.18-18.258 18.234v475.519c0 10.061 8.186 18.247 18.247 18.247h367.126c10.068 0 18.259-8.18 18.259-18.234v-6.794c0-4.743 3.875-8.602 8.638-8.602h31.792c4.763 0 8.638 3.859 8.638 8.602v6.794c0 10.055 8.19 18.234 18.259 18.234h14.422c10.068 0 18.259-8.18 18.259-18.234v-40.468c0-4.142-3.357-7.5-7.5-7.5s-7.5 3.358-7.5 7.5v40.468c0 1.783-1.462 3.234-3.259 3.234h-14.422c-1.797 0-3.259-1.451-3.259-3.234v-6.794c0-13.014-10.604-23.602-23.638-23.602h-31.793c-13.034 0-23.638 10.587-23.638 23.602v6.794c0 1.783-1.462 3.234-3.259 3.234h-17.681v-183.496h120.946v109.862c0 4.142 3.357 7.5 7.5 7.5s7.5-3.358 7.5-7.5v-405.132c.001-10.054-8.189-18.234-18.257-18.234zm-32.681 298.438h-49.068v-9.962c0-4.743 3.875-8.602 8.639-8.602h31.792c4.763 0 8.638 3.858 8.638 8.602v9.962zm15 0v-9.962c0-13.014-10.604-23.602-23.638-23.602h-31.792c-13.034 0-23.639 10.587-23.639 23.602v9.962h-20.938v-149.961h120.946v149.961zm-452.699-50.188 50.188 50.188h-50.188zm437.699-114.773h-49.068v-10.029c0-4.743 3.875-8.602 8.639-8.602h31.792c4.763 0 8.638 3.859 8.638 8.602v10.029zm35.939-115.243v115.242h-20.939v-10.029c0-13.014-10.604-23.602-23.638-23.602h-31.792c-13.034 0-23.639 10.587-23.639 23.602v10.029h-20.938v-118.476h117.688c1.796 0 3.258 1.451 3.258 3.234zm-135.947 280.204h-266.289l-71.402-71.402v-78.559h337.691zm-287.437-164.961h-50.254v-50.255zm-50.254 360.276v-47.008l50.254 50.255h-47.007c-1.79 0-3.247-1.457-3.247-3.247zm71.468 3.247-71.468-71.468v-112.028h337.691v183.496z"/><path d="m448.242 429.553h-31.792c-4.143 0-7.5 3.358-7.5 7.5s3.357 7.5 7.5 7.5h31.792c4.143 0 7.5-3.358 7.5-7.5s-3.357-7.5-7.5-7.5z"/><path d="m448.242 397.882h-31.792c-4.143 0-7.5 3.358-7.5 7.5s3.357 7.5 7.5 7.5h31.792c4.143 0 7.5-3.358 7.5-7.5s-3.357-7.5-7.5-7.5z"/><path d="m448.242 366.212h-31.792c-4.143 0-7.5 3.358-7.5 7.5s3.357 7.5 7.5 7.5h31.792c4.143 0 7.5-3.358 7.5-7.5s-3.357-7.5-7.5-7.5z"/><path d="m448.242 334.542h-31.792c-4.143 0-7.5 3.358-7.5 7.5s3.357 7.5 7.5 7.5h31.792c4.143 0 7.5-3.358 7.5-7.5s-3.357-7.5-7.5-7.5z"/><path d="m448.242 231.642h-31.792c-4.143 0-7.5 3.358-7.5 7.5s3.357 7.5 7.5 7.5h31.792c4.143 0 7.5-3.358 7.5-7.5s-3.357-7.5-7.5-7.5z"/><path d="m448.242 199.972h-31.792c-4.143 0-7.5 3.358-7.5 7.5s3.357 7.5 7.5 7.5h31.792c4.143 0 7.5-3.358 7.5-7.5s-3.357-7.5-7.5-7.5z"/><path d="m448.242 168.301h-31.792c-4.143 0-7.5 3.358-7.5 7.5s3.357 7.5 7.5 7.5h31.792c4.143 0 7.5-3.358 7.5-7.5s-3.357-7.5-7.5-7.5z"/><path d="m416.45 80.941h31.792c4.143 0 7.5-3.358 7.5-7.5s-3.357-7.5-7.5-7.5h-31.792c-4.143 0-7.5 3.358-7.5 7.5s3.358 7.5 7.5 7.5z"/><path d="m416.45 49.271h31.792c4.143 0 7.5-3.358 7.5-7.5s-3.357-7.5-7.5-7.5h-31.792c-4.143 0-7.5 3.358-7.5 7.5s3.358 7.5 7.5 7.5z"/></g></svg>