<svg id="Capa_1" enable-background="new 0 0 512.01 512.01" height="512" viewBox="0 0 512.01 512.01" width="512" xmlns="http://www.w3.org/2000/svg"><g><path d="m198.266 464.574-.246.127c-13.137 6.745-28.824 6.746-41.948.007-3.695-1.369-8.272-.96-10.363 3.092-2.094 4.058.234 8.03 3.499 10.245 6.433 3.303 13.327 5.378 20.342 6.242v.003l1.061 20.601c.207 4.005 3.519 7.114 7.484 7.114.13 0 .261-.003.392-.01 4.137-.213 7.317-3.739 7.104-7.876l-1.021-19.839c7.004-.868 13.89-2.943 20.316-6.242 3.258-2.219 5.576-6.186 3.485-10.238-1.901-3.681-6.425-5.124-10.105-3.226z"/><path d="m183.507 351.345c-1.59-3.768-6.014-5.615-9.8-4.05-3.782 1.564-5.604 6.011-4.06 9.79 1.545 3.782 6.038 5.61 9.8 4.06 3.827-1.577 5.548-6.002 4.06-9.8z"/><path d="m494.787 342.265c-41.006-29.047-93.706-46.396-140.99-46.417l-.092-168.892c0-45.864-39.169-87.445-85.82-87.445h-34.925c-9.158-1.208-19.653-6.566-19.653-17.849v-14.157c0-4.143-3.358-7.5-7.5-7.5s-7.5 3.357-7.5 7.5v14.157c0 9.384 3.806 17.547 11.007 23.607 4.288 3.608 9.698 6.328 15.652 7.919v65.261c0 26.018-21.487 47.184-47.899 47.184s-47.899-21.166-47.899-47.184v-65.416c15.8-4.564 25.68-16.372 25.68-31.371v-14.157c0-4.143-3.358-7.5-7.5-7.5s-7.5 3.357-7.5 7.5v14.157c0 13.616-14.665 17.13-18.795 17.849h-34.803c-16.212 0-33.082 5.687-46.54 14.495-3.466 2.269-4.437 6.917-2.168 10.383 3.163 3.622 6.624 4.345 10.383 2.168 8.266-5.411 17.475-9.07 27.134-10.832l-28.052 76.366c-10.803 12.223-16.734 27.82-16.734 44.099 0 15.595 5.455 30.56 15.412 42.536v53.455c-14.094 18.291-23.878 36.48-30.656 53.203v-198.428c0-14.847 4.521-29.114 13.076-41.261 2.385-3.387 1.573-8.065-1.813-10.45s-8.065-1.574-10.45 1.813c-10.346 14.688-15.813 31.943-15.813 49.898 0 91.131-.006 274.602-.006 274.602-.112 5.017-.604 54.14 20.972 105.835 1.504 3.603 6.242 5.524 9.81 4.032 3.823-1.595 5.628-5.987 4.033-9.81-16.236-38.9-19.217-77.134-19.728-92.683h194.179l56.112 85.202c6.659 10.111 17.86 16.152 29.967 16.161h116.686c12.102-.009 23.302-6.05 29.961-16.161l10.617-16.121c2.278-3.459 1.321-8.11-2.139-10.389-3.458-2.277-8.111-1.321-10.389 2.139l-10.617 16.121c-3.878 5.888-10.399 9.406-17.439 9.411h-17.994c-.952-5.134-2.859-9.934-5.536-14.21l49.803-118.633c7.633-14.053-13.924-27.8-22.477-13.962l-70.488 114.116c-16.225 3.367-28.963 16.345-31.995 32.689h-17.989c-7.046-.005-13.567-3.523-17.445-9.411-21.037-31.943-42.074-63.885-63.11-95.828-7.796-11.838-4.948-27.455 6.483-35.553 38.592-27.337 88.09-43.658 132.407-43.658s93.815 16.321 132.407 43.658c11.432 8.098 14.28 23.715 6.483 35.553l-36.092 54.803c-2.278 3.459-1.321 8.11 2.139 10.389 3.458 2.277 8.11 1.321 10.389-2.139l36.092-54.803c12.269-18.626 7.727-43.243-10.338-56.041zm-78.67 34.33-38.876 92.604c-4.268-2.998-9.128-5.202-14.369-6.402zm-62.409 100.157c11.755 0 21.716 7.828 24.944 18.545h-49.889c3.229-10.717 13.19-18.545 24.945-18.545zm-15.003-349.792.092 169.454c-4.08.3-8.184.71-12.305 1.247-5.309-9.236-11.362-17.856-18.041-25.693v-53.242c9.957-11.977 15.412-26.942 15.412-42.537 0-16.278-5.931-31.876-16.734-44.099l-28.014-76.263c33.896 6.426 59.59 35.868 59.59 71.133zm-279.654 14.174c.672-.726 1.193-1.578 1.535-2.507l30.899-84.116h22.684v63.938c0 34.288 28.216 62.184 62.899 62.184s62.899-27.896 62.899-62.184v-63.938h22.684l30.899 84.116c.341.929.863 1.781 1.535 2.507 8.885 9.604 13.778 22.055 13.778 35.056 0 12.982-4.879 25.415-13.74 35.014-.062.062-.123.126-.183.19-9.988 10.712-24.172 16.855-38.915 16.855-4.142 0-7.5 3.357-7.5 7.5s3.358 7.5 7.5 7.5c13.387 0 26.409-3.976 37.427-11.176v35.173h-232.768v-35.173c11.018 7.199 24.04 11.176 37.427 11.176 4.142 0 7.5-3.357 7.5-7.5s-3.358-7.5-7.5-7.5c-14.743 0-28.927-6.144-38.915-16.855-.056-.061-.113-.119-.171-.178-8.868-9.6-13.752-22.037-13.752-35.026 0-13.001 4.893-25.452 13.778-35.056zm153.579 201.131c-16.684 11.819-21.822 33.716-12.849 51.669h-22.211-162.541v-.034c.631-17.405 5.881-64.45 41.832-111.653h240.658c4.724 5.598 9.103 11.641 13.088 18.049-34.476 6.892-69.121 21.528-97.977 41.969z"/><path d="m346.208 340.968v17.994c0 4.143 3.358 7.5 7.5 7.5s7.5-3.357 7.5-7.5v-17.994c0-4.143-3.358-7.5-7.5-7.5s-7.5 3.357-7.5 7.5z"/><path d="m314.982 337.244c-4.079.719-6.803 4.609-6.083 8.688l3.125 17.721c.656 3.718 4.972 6.742 8.689 6.083 4.079-.719 6.803-4.609 6.083-8.688l-3.125-17.721c-.719-4.079-4.605-6.806-8.689-6.083z"/><path d="m277.501 347.687c-3.892 1.417-5.899 5.721-4.482 9.613l6.155 16.909c1.329 3.65 6.001 5.795 9.613 4.482 3.892-1.417 5.899-5.721 4.482-9.613l-6.155-16.909c-1.417-3.892-5.722-5.898-9.613-4.482z"/><path d="m242.403 364.48c-3.587 2.071-4.816 6.658-2.745 10.245l8.998 15.584c3.037 3.796 6.452 4.711 10.245 2.745 3.587-2.071 4.816-6.658 2.745-10.245l-8.998-15.584c-2.071-3.588-6.658-4.815-10.245-2.745z"/><path d="m383.745 343.327-3.125 17.721c-.719 4.08 2.005 7.97 6.084 8.688 3.716.659 8.033-2.365 8.688-6.083l3.125-17.721c.719-4.08-2.005-7.97-6.084-8.688-4.076-.721-7.969 2.005-8.688 6.083z"/><path d="m458.762 390.309 8.998-15.584c2.071-3.587.842-8.174-2.745-10.245-3.587-2.07-8.174-.843-10.245 2.745l-8.998 15.584c-2.071 3.587-.842 8.174 2.745 10.245 3.792 1.965 7.207 1.05 10.245-2.745z"/></g></svg>