<svg id="Capa_1" enable-background="new 0 0 512.153 512.153" height="512" viewBox="0 0 512.153 512.153" width="512" xmlns="http://www.w3.org/2000/svg"><g><path d="m177.494 464.643c-13.157 6.814-29.35 6.817-42.506 0-3.683-1.896-8.206-.448-10.102 3.233-1.897 3.683-.449 8.206 3.233 10.103l.271.139c6.439 3.303 13.339 5.378 20.36 6.241v.003l1.062 20.601c.207 4.006 3.519 7.114 7.484 7.114.13 0 .261-.003.392-.01 4.137-.213 7.317-3.739 7.104-7.876l-1.022-19.838c7.01-.867 13.901-2.941 20.332-6.24l.26-.134c3.683-1.896 5.13-6.42 3.233-10.103-1.895-3.681-6.416-5.13-10.101-3.233z"/><path d="m162.7 351.416c-1.441-3.61-5.687-5.466-9.331-4.224-3.958 1.349-6.073 5.821-4.603 9.736 1.439 3.83 5.846 5.817 9.672 4.368 3.904-1.479 5.858-6.024 4.262-9.88z"/><path d="m494.929 342.336c-41.032-29.065-93.771-46.418-141.078-46.418-15.032 0-30.613 1.758-46.193 5.082v-200.332c0-33.091-26.621-60.102-59.696-61.041l-35.752-.045c-9.169-1.209-19.676-6.567-19.676-17.849v-14.157c0-4.143-3.358-7.5-7.5-7.5s-7.5 3.357-7.5 7.5v14.157c0 9.386 3.81 17.549 11.017 23.609 4.292 3.608 9.707 6.327 15.666 7.919v65.259c0 26.018-21.509 47.184-47.948 47.184-26.438 0-47.947-21.166-47.947-47.184v-65.413c15.813-4.564 25.703-16.372 25.703-31.373v-14.158c0-4.143-3.358-7.5-7.5-7.5s-7.5 3.357-7.5 7.5v14.157c0 13.615-14.682 17.13-18.816 17.849-11.702 0-35.41.029-35.41.029-10.187.291-20.162 3.086-28.954 8.136-3.592 2.063-4.831 6.647-2.768 10.239 3.032 3.802 6.445 4.725 10.239 2.769 4.498-2.583 9.411-4.378 14.507-5.342l-.468 77.839c-10.212 12.053-15.804 27.211-15.804 43.009 0 15.948 5.712 31.234 16.109 43.34v55.216c0 39.808-20.729 74.22-37.565 108.896v-283.045c0-7.604 1.904-15.136 5.506-21.781 1.974-3.642.622-8.194-3.02-10.168-3.643-1.973-8.194-.622-10.168 3.02-4.788 8.833-7.319 18.837-7.319 28.93v320.168c-7.422 25.39-8.424 53.682 8.602 87.142 1.784 3.506 6.6 5.058 10.086 3.283 3.691-1.879 5.162-6.395 3.283-10.086-16.126-31.692-13.979-63.828-.392-95.847h180.337l58.534 88.879c6.659 10.111 17.86 16.152 29.967 16.161h116.686c12.102-.009 23.302-6.05 29.961-16.161l13.164-19.988c2.278-3.459 1.321-8.11-2.139-10.389-3.459-2.277-8.11-1.321-10.389 2.139l-13.164 19.988c-3.878 5.888-10.399 9.406-17.439 9.411h-17.994c-1.854-9.995-7.338-18.725-15.033-24.774l-12.179-128.101c-1.431-15.06-24.739-15.655-26.284-.052l-12.74 128.606c-7.394 6.027-12.648 14.575-14.456 24.32h-17.989c-7.046-.005-13.567-3.523-17.445-9.411-21.037-31.943-42.074-63.885-63.11-95.828-7.796-11.838-4.948-27.455 6.483-35.553 38.592-27.337 88.09-43.658 132.407-43.658s93.815 16.321 132.407 43.658c11.432 8.098 14.28 23.715 6.483 35.553l-33.559 50.956c-2.278 3.459-1.321 8.11 2.139 10.389 3.458 2.278 8.11 1.32 10.389-2.139l33.559-50.956c12.268-18.628 7.726-43.245-10.34-56.043zm-141.126 19.997 9.566 100.616c-6.52-1.54-13.035-1.501-19.545.118zm.048 114.49c11.755 0 21.716 7.828 24.944 18.545h-49.889c3.228-10.716 13.189-18.545 24.945-18.545zm-61.193-376.155v204.021c-10.41 2.894-20.739 6.465-30.823 10.665-4.58-14.579-6.743-27.626-6.743-40.537v-56.165c9.887-11.953 15.3-26.86 15.3-42.392 0-15.788-5.584-30.938-15.785-42.987l.053-77.91c21.591 3.964 37.998 22.764 37.998 45.305zm-222.318 40.54c1.273-1.375 1.985-3.177 1.997-5.051l.491-81.575h20.495v63.938c0 34.288 28.238 62.184 62.947 62.184s62.948-27.896 62.948-62.184v-63.938h20.445l-.056 81.525c-.001 1.891.712 3.713 1.997 5.101 8.893 9.604 13.79 22.053 13.79 35.053 0 12.981-4.884 25.414-13.753 35.013-.062.062-.122.125-.182.188-9.998 10.714-24.197 16.858-38.956 16.858-4.142 0-7.5 3.357-7.5 7.5s3.358 7.5 7.5 7.5c13.452 0 26.536-4.008 37.591-11.263v35.26h-167.435v-34.738c10.883 6.924 23.657 10.741 36.782 10.741 4.142 0 7.5-3.357 7.5-7.5s-3.358-7.5-7.5-7.5c-14.759 0-28.958-6.145-38.957-16.858-.056-.06-.112-.118-.169-.176-8.877-9.6-13.766-22.037-13.766-35.025.001-13 4.898-25.448 13.791-35.053zm142.433 201.128c-15.56 11.023-21.076 30.812-14.471 47.992h-164.748c16.83-34.675 36.773-68.54 38.903-108.011h167.849c.714 12.536 3.238 25.281 7.759 39.241-12.386 6.01-24.265 12.967-35.292 20.778z"/><path d="m315.125 337.316c-4.079.719-6.803 4.609-6.083 8.688l3.125 17.721c.656 3.718 4.972 6.742 8.689 6.083 4.079-.719 6.803-4.609 6.083-8.688l-3.125-17.721c-.72-4.079-4.61-6.807-8.689-6.083z"/><path d="m277.643 347.758c-3.892 1.417-5.899 5.721-4.482 9.613l6.155 16.909c1.329 3.65 6.002 5.795 9.613 4.482 3.892-1.417 5.899-5.721 4.482-9.613l-6.155-16.909c-1.417-3.892-5.722-5.898-9.613-4.482z"/><path d="m242.545 364.551c-3.587 2.071-4.816 6.658-2.745 10.245l8.998 15.584c3.037 3.796 6.452 4.711 10.245 2.745 3.587-2.071 4.816-6.658 2.745-10.245l-8.998-15.584c-2.071-3.588-6.658-4.814-10.245-2.745z"/><path d="m383.887 343.399-3.125 17.721c-.719 4.08 2.005 7.97 6.084 8.688 3.716.659 8.033-2.365 8.688-6.083l3.125-17.721c.719-4.08-2.005-7.97-6.084-8.688-4.074-.722-7.968 2.004-8.688 6.083z"/><path d="m420.445 352.24-6.154 16.909c-1.417 3.893.59 8.196 4.483 9.613 3.611 1.312 8.284-.832 9.613-4.482l6.154-16.909c1.417-3.893-.59-8.196-4.483-9.613-3.893-1.415-8.197.591-9.613 4.482z"/><path d="m467.902 374.796c2.071-3.587.842-8.174-2.745-10.245-3.588-2.07-8.174-.843-10.245 2.745l-8.998 15.584c-2.071 3.587-.842 8.174 2.745 10.245 3.793 1.966 7.208 1.05 10.245-2.745z"/></g></svg>