<svg id="Capa_1" enable-background="new 0 0 512.608 512.608" height="512" viewBox="0 0 512.608 512.608" width="512" xmlns="http://www.w3.org/2000/svg"><g><path d="m475.318 286.185c-5.296-15.797-28.028-16.105-33.683-.413-1.635 4.54-3.543 8.794-5.694 12.69 3.481-73.02-20.226-97.232-43.161-120.65-6.492-6.629-12.625-12.891-18.18-20.297-9.659-12.879-15.354-28.45-16.926-46.282-1.467-16.668-24.468-22.196-33.147-7.55-13.363 22.549-20.371 45.261-20.829 67.504-1.309 3.406-3.153 3.724-5.532.951-8.118-21.331-10.814-45.438-8.013-71.651 6.054-56.651-16.722-84.379-36.894-97.663-12.173-8.014-29.186 2.11-27.552 16.795 2.946 26.457-10.699 45.657-36.911 71.833-2.931 2.927-2.935 7.675-.008 10.606s7.675 2.936 10.607.007c23.99-23.956 45.194-48.415 41.22-84.106.352-2.69 1.816-3.559 4.394-2.607 16.688 10.99 35.48 34.405 30.229 83.542-3.054 28.583-.057 55.021 8.909 78.58 6.827 17.938 34.153 13.217 34.548-5.978.405-19.626 6.709-39.868 18.737-60.165 2.357-2.189 4.125-1.783 5.302 1.219 1.82 20.66 8.505 38.816 19.867 53.966 6.147 8.196 12.917 15.108 19.463 21.792 21.87 22.33 42.526 43.421 38.78 111.682-.795 14.457 19.263 20.907 26.825 8.177 3.11-5.236 5.828-11.061 8.08-17.31 1.811-2.478 3.593-2.446 5.347.097 12.75 38.036 27.022 107.868-20.637 148.194-12.077 10.219-27.258 16.725-43.391 18.728v-70.74c0-19.038-15.489-34.527-34.528-34.527h-13.818c1.63-46.78-17.285-83.772-36.566-99.038-9.82-7.776-25.026-1.277-26.367 10.953-1.927 17.564-19.363 37.083-38.573 30.646-18.102-6.066-24.452-25.78-18.874-58.595 2.843-16.729-20.309-26.114-29.806-11.613-28.477 43.474-41.035 86.369-37.405 127.646h-11.551c-19.039 0-34.527 15.489-34.527 34.527v71c-22.134-2.125-42.517-12.692-56.369-29.375-30.56-36.807-19.969-85.436-6.576-126.743 9.584-29.561 19.495-60.127 10.02-91.58-.175-2.762 1.104-3.905 3.837-3.43 15.005 6.336 26.894 16.082 35.336 28.967 8.648 13.198 30.101 8.587 32.507-7.157 7.167-46.918 22.594-84.192 43.437-104.957 2.934-2.924 2.943-7.672.02-10.606-2.925-2.937-7.673-2.944-10.607-.021-16.339 16.278-37.875 49.152-47.678 113.318-1.202 2.73-2.912 3.131-5.132 1.202-9.962-15.203-24.501-27.155-42.047-34.564-13.474-5.692-28.299 7.418-24.035 21.574 8.123 26.962-.645 54.001-9.926 82.627-15.066 46.465-24.684 100.016 9.304 140.952 16.679 20.089 41.299 32.69 67.909 34.864v4.611c0 19.038 15.489 34.527 34.527 34.527l164.477.205h.01c4.138 0 7.495-3.352 7.5-7.49.005-4.143-3.349-7.505-7.49-7.51 0 0-160.185-.205-164.497-.205-10.768 0-19.527-8.76-19.527-19.527v-90.682c0-10.768 8.76-19.527 19.527-19.527h212.96c10.768 0 19.528 8.76 19.528 19.527v90.946c0 10.768-8.761 19.527-19.528 19.527-.921 0-7.781-.008-18.51-.021-.004 0-.007 0-.01 0-4.138 0-7.495 3.352-7.5 7.49-.005 4.143 3.349 7.505 7.49 7.51 10.74.014 17.607.021 18.529.021 19.039 0 34.528-15.489 34.528-34.527v-5.113c19.693-2.081 38.319-9.88 53.08-22.369 54.418-46.046 39.128-122.774 25.171-164.414zm-141.628 66.422h-157.487c-3.708-38.251 8.002-78.391 34.881-119.428 1.338-1.018 2.161-.724 2.47.881-8.726 51.334 10.897 69.3 28.896 75.331 28.24 9.463 55.275-16.125 58.249-43.233.374-1.099 1.089-1.375 2.146-.829 22.018 17.432 31.829 55.752 30.845 87.278z"/><path d="m327.304 411.122c-3.747 0-6.843 2.75-7.401 6.34-5.795-4.135-12.877-6.578-20.522-6.578-19.532 0-35.423 15.891-35.423 35.423 0 19.533 15.891 35.424 35.423 35.424 7.646 0 14.727-2.443 20.522-6.578.559 3.59 3.654 6.34 7.401 6.34 4.143 0 7.5-3.357 7.5-7.5v-55.372c0-4.142-3.358-7.499-7.5-7.499zm-27.924 55.609c-11.261 0-20.423-9.162-20.423-20.424 0-11.261 9.162-20.423 20.423-20.423 11.262 0 20.424 9.162 20.424 20.423 0 11.262-9.162 20.424-20.424 20.424z"/><path d="m236.051 481.606c8.946 0 17.53-3.659 23.306-10.549 2.661-3.174 2.246-7.904-.928-10.566-3.175-2.661-7.905-2.245-10.566.928-2.816 3.359-7.512 5.188-11.812 5.188-11.233 0-20.372-9.139-20.372-20.372s9.139-20.372 20.372-20.372c4.083 0 8.02 1.201 11.384 3.475 3.432 2.32 8.094 1.417 10.413-2.015s1.417-8.095-2.015-10.413c-5.854-3.956-12.694-6.047-19.783-6.047-19.504 0-35.372 15.868-35.372 35.372s15.869 35.371 35.373 35.371z"/><path d="m360.879 474.106v-83.122c0-4.143-3.357-7.5-7.5-7.5s-7.5 3.357-7.5 7.5v83.122c0 4.143 3.357 7.5 7.5 7.5s7.5-3.357 7.5-7.5z"/><path d="m158.742 383.484c-4.142 0-7.5 3.357-7.5 7.5v82.88c0 4.143 3.358 7.5 7.5 7.5s7.5-3.357 7.5-7.5v-17.375l22.616 22.888c3.527 2.95 7.062 2.971 10.606.063 2.946-2.911 2.975-7.66.063-10.606l-26.374-26.69 22.693-18.547c3.208-2.621 3.683-7.347 1.061-10.554-2.621-3.208-7.345-3.68-10.553-1.062l-20.114 16.438v-37.436c.002-4.142-3.356-7.499-7.498-7.499z"/></g></svg>