<svg id="Capa_1" enable-background="new 0 0 511.774 511.774" height="512" viewBox="0 0 511.774 511.774" width="512" xmlns="http://www.w3.org/2000/svg"><g><path d="m503.782 95.311-86.603-86.546c-10.855-10.845-28.515-10.846-39.369.001l-63.917 63.876-1.958-1.957c-5.887-5.885-15.214-6.844-22.174-2.286l-41.061 26.88c-7.378 4.831-10.047 14.629-6.19 22.501l-169.648 169.537c-.267.267-.581.47-.932.604l-27.664 10.61c-2.329.894-4.402 2.239-6.163 4l-32.989 32.968c-6.819 6.815-6.819 18.168 0 24.982l31.112 31.092c3.536 2.928 7.071 2.927 10.606-.003 2.929-2.93 2.927-7.679-.003-10.606l-31.112-31.093c-1.04-1.254-1.04-2.508 0-3.763l32.991-32.968c.265-.266.578-.469.93-.604l27.664-10.61c2.326-.893 4.398-2.237 6.162-3.999l24.701-24.685 212.996 46.76-107.795 107.725c-1.764 1.762-3.111 3.835-4.004 6.162l-10.617 27.644c-.135.352-.338.664-.604.931l-32.989 32.966c-1.041 1.042-2.737 1.043-3.778.001l-94.539-94.476c-2.931-2.929-7.68-2.927-10.606.003-2.929 2.93-2.927 7.679.003 10.606l94.539 94.477c6.808 6.803 18.178 6.803 24.985-.001l32.988-32.966c1.763-1.761 3.109-3.833 4.004-6.162l10.618-27.646c.134-.351.337-.662.604-.929l142.295-142.202c7.455 3.754 16.772 1.689 21.927-4.952l53.525-68.946c5.447-7.016 4.817-17.042-1.466-23.321l-.38-.38 22.487-22.472c2.93-2.928 2.932-7.677.003-10.606-2.927-2.931-7.676-2.932-10.606-.003l-22.493 22.478-104.759-104.688 63.91-63.868c5.007-5.005 13.155-5.003 18.162-.001l86.603 86.545c4.951 4.949 4.952 13.188 0 18.137l-20.355 20.342c-2.93 2.928-2.932 7.677-.003 10.606 2.927 2.931 7.676 2.932 10.606.003l20.355-20.341c10.644-10.637 10.67-28.696.001-39.357zm-383.018 165.341 130.19-130.104 105.136 154.549-22.33 22.315zm309.105-47.614-53.526 68.947c-1.486 1.42-2.926 1.375-4.319-.136l-113.693-167.126c-1.131-1.697-4.232-5.051-1.414-6.894l41.06-26.879c1.055-.692 2.466-.546 3.355.345l128.315 128.23c.946.947 1.042 2.456.222 3.513z"/><path d="m182.944 451.713c1.92 0 3.841-.733 5.306-2.199 2.928-2.93 2.926-7.679-.005-10.606l-115.994-115.891c-2.929-2.928-7.678-2.927-10.606.005-2.928 2.93-2.926 7.679.005 10.606l115.994 115.89c1.463 1.463 3.381 2.195 5.3 2.195z"/><path d="m40.872 343.795c-2.928 2.93-2.926 7.679.005 10.606l115.995 115.89c1.464 1.463 3.382 2.194 5.301 2.194 1.92 0 3.841-.733 5.306-2.199 2.928-2.93 2.926-7.679-.005-10.606l-115.996-115.89c-2.929-2.927-7.678-2.926-10.606.005z"/><path d="m444.756 116.9c1.919 0 3.839-.732 5.304-2.196 2.929-2.93 2.929-7.678 0-10.607l-41.667-41.667c-2.93-2.928-7.678-2.928-10.607 0-2.929 2.93-2.929 7.678 0 10.607l41.667 41.666c1.465 1.465 3.385 2.197 5.303 2.197z"/><path d="m369.786 90.43c-2.929 2.93-2.929 7.678 0 10.607l41.667 41.666c3.536 2.928 7.072 2.928 10.607 0 2.929-2.93 2.929-7.678 0-10.607l-41.667-41.666c-2.929-2.927-7.678-2.927-10.607 0z"/></g></svg>