<svg id="Capa_1" enable-background="new 0 0 511.99 511.99" height="512" viewBox="0 0 511.99 511.99" width="512" xmlns="http://www.w3.org/2000/svg"><g><path d="m511.876 428.348-15.954-205.088c-1.561-20.056-18.521-35.766-38.613-35.766h-7.832c-4.605-8.218-13.411-13.764-23.321-13.764h-23.484l.021-32.4c.024-14.283-6.021-27.979-16.586-37.576l-37.959-34.487c-9.148-8.31-20.674-13.759-32.854-15.62-1.405-6.725-7.377-11.794-14.513-11.794h-89.57c-7.272 0-13.326 5.267-14.578 12.184-11.343 2.162-22.021 7.438-30.599 15.231-3.066 2.785-3.294 7.528-.508 10.594 3.462 3.097 6.993 3.266 10.594.508 5.761-5.233 12.766-8.978 20.264-10.92v14.016c-2.306.824-4.457 2.073-6.322 3.725l-32.971 29.219c-6.708 5.943-9.969 13.069-9.969 21.785v97.857h-20.572l-.062-94.747c-.017-10.054 4.237-19.693 11.672-26.448l13.749-12.49c3.066-2.785 3.294-7.529.509-10.595-2.786-3.067-7.529-3.292-10.595-.509l-13.75 12.491c-10.563 9.599-16.609 23.294-16.585 37.568l.021 32.408h-23.486c-9.909 0-18.715 5.545-23.32 13.764h-10.022c-20.092 0-37.053 15.71-38.613 35.766l-15.954 205.088c-1.725 22.181 16.348 41.789 38.613 41.789h356.465c4.143 0 7.5-3.357 7.5-7.5s-3.357-7.5-7.5-7.5h-338.898l13.391-170.665h374.807l13.391 170.665h-31.889c-4.143 0-7.5 3.357-7.5 7.5s3.357 7.5 7.5 7.5h47.268c22.265 0 40.338-19.608 38.614-41.789zm-135.856-313.493c7.435 6.755 11.688 16.395 11.672 26.457l-.062 94.739h-20.793l.22-97.857c0-11.213-4.877-17.209-9.648-21.597l-31.721-29.169c-2.831-2.603-6.335-4.263-10.081-4.85v-13.644c8.321 1.742 16.132 5.693 22.453 11.435zm-164.638-58.003h89.227v35.078h-89.227zm-44.345 70.783 31.484-27.901c2.598 4.303 7.306 7.196 12.688 7.196h89.57c6.168 0 11.465-3.788 13.696-9.159.381.183.743.407 1.061.698l31.72 29.169c3.32 3.054 4.802 5.302 4.802 10.539l-.08 35.553h-189.858v-35.536c0-4.405 1.424-7.465 4.917-10.559zm-4.917 61.095h189.825l-.107 47.321h-189.718zm-123.393 266.407c-13.555 0-24.711-12.091-23.658-25.625l15.954-205.089c.956-12.297 11.349-21.93 23.658-21.93h6.392l-19.824 252.644zm37.622-255.589c.477-6.065 5.604-10.817 11.674-10.817h23.494l.031 47.321h-38.063zm-5.486 69.924 1.445-18.421h369.562l1.445 18.421zm331.768-33.42.031-47.321h23.494c6.07 0 11.197 4.751 11.674 10.817l2.864 36.504zm88.034 211.473c-4.618 4.992-10.971 7.608-17.735 7.612l-19.824-252.644h4.203c12.31 0 22.702 9.633 23.658 21.93l15.954 205.089c.52 6.693-1.702 13.09-6.256 18.013z"/><path d="m296.395 310.236h-80.801c-47.992 0-90.847 34.124-101.898 81.139-2.778 11.813 6.439 23.465 18.578 23.465h247.441c12.14 0 21.356-11.652 18.578-23.466-11.051-47.014-53.906-81.138-101.898-81.138zm86.52 88.056c-.458.578-1.482 1.548-3.199 1.548h-247.442c-2.946-.394-4.272-2.071-3.977-5.032 9.477-40.312 46.19-69.571 87.297-69.571h80.801c41.106 0 77.82 29.259 87.297 69.57.395 1.68-.317 2.905-.777 3.485z"/></g></svg>