<svg id="Capa_1" enable-background="new 0 0 512 512" height="512" viewBox="0 0 512 512" width="512" xmlns="http://www.w3.org/2000/svg"><g><path d="m494.504 0h-477.008c-9.647 0-17.496 7.849-17.496 17.496v134.956c0 4.087 4.211 7.75 8.216 7.47 4.042-.114 6.784-3.428 6.784-7.497 0-44.976 0-89.952 0-134.929 0-1.376 1.12-2.496 2.496-2.496h148.171v110.713h-15.785c-9.489 0-17.208 7.72-17.208 17.208v48.684c0 9.489 7.72 17.209 17.208 17.209h15.785v25.411h-150.667c0-17.267 0-34.533 0-51.8 0-4.076-2.752-7.393-6.803-7.497-3.998-.27-8.197 3.394-8.197 7.471v312.104c0 9.648 7.849 17.497 17.496 17.497h390.504c4.142 0 7.5-3.357 7.5-7.5s-3.358-7.5-7.5-7.5h-390.504c-1.376 0-2.496-1.12-2.496-2.496v-11.055h482v11.055c0 1.376-1.12 2.496-2.496 2.496h-54.104c-4.142 0-7.5 3.357-7.5 7.5s3.358 7.5 7.5 7.5h54.104c9.647 0 17.496-7.849 17.496-17.496v-477.008c0-9.647-7.849-17.496-17.496-17.496zm2.496 17.496v108.217h-16.04c-9.489 0-17.208 7.72-17.208 17.208v48.684c0 9.489 7.72 17.209 17.208 17.209h16.04v25.411h-150.667v-219.225h148.171c1.376 0 2.496 1.12 2.496 2.496zm-.255 123.217v53.101h-15.785c-1.218 0-2.208-.991-2.208-2.209v-48.684c0-1.218.991-2.208 2.208-2.208zm-165.412 53.1h-15.785c-1.218 0-2.209-.991-2.209-2.209v-48.684c0-1.218.991-2.208 2.209-2.208h15.785zm-181.451 0c-1.218 0-2.208-.991-2.208-2.209v-48.684c0-1.218.991-2.208 2.208-2.208h15.785v53.101zm30.785-178.813h150.667v110.713h-15.785c-9.489 0-17.209 7.72-17.209 17.208v48.684c0 9.489 7.72 17.209 17.209 17.209h15.785v25.411h-150.667zm-165.667 234.225h150.667v25.411h-15.785c-9.489 0-17.208 7.72-17.208 17.209v48.684c0 9.488 7.72 17.208 17.208 17.208h15.785v110.713h-150.667zm150.667 93.511h-15.785c-1.218 0-2.208-.99-2.208-2.208v-48.684c0-1.218.991-2.209 2.208-2.209h15.785zm15-93.511h150.667v25.411h-15.785c-9.489 0-17.209 7.72-17.209 17.209v48.684c0 9.488 7.72 17.208 17.209 17.208h15.785v110.713h-150.667zm150.666 93.511h-15.785c-1.218 0-2.209-.99-2.209-2.208v-48.684c0-1.218.991-2.209 2.209-2.209h15.785zm15-93.511h150.667v25.411h-16.04c-9.489 0-17.208 7.72-17.208 17.209v48.684c0 9.488 7.72 17.208 17.208 17.208h16.04v110.713h-150.667zm150.412 40.411v53.101h-15.785c-1.218 0-2.208-.99-2.208-2.208v-48.684c0-1.218.991-2.209 2.208-2.209z"/><path d="m71.309 55.558h35.284c4.142 0 7.5-3.357 7.5-7.5s-3.358-7.5-7.5-7.5h-35.284c-4.142 0-7.5 3.357-7.5 7.5s3.358 7.5 7.5 7.5z"/><path d="m71.309 80.031h35.284c4.142 0 7.5-3.357 7.5-7.5s-3.358-7.5-7.5-7.5h-35.284c-4.142 0-7.5 3.357-7.5 7.5s3.358 7.5 7.5 7.5z"/><path d="m106.593 403.418h-35.284c-4.142 0-7.5 3.357-7.5 7.5s3.358 7.5 7.5 7.5h35.284c4.142 0 7.5-3.357 7.5-7.5s-3.358-7.5-7.5-7.5z"/><path d="m106.593 427.892h-35.284c-4.142 0-7.5 3.357-7.5 7.5s3.358 7.5 7.5 7.5h35.284c4.142 0 7.5-3.357 7.5-7.5s-3.358-7.5-7.5-7.5z"/><path d="m273.642 40.558h-35.283c-4.142 0-7.5 3.357-7.5 7.5s3.358 7.5 7.5 7.5h35.283c4.142 0 7.5-3.357 7.5-7.5s-3.358-7.5-7.5-7.5z"/><path d="m273.642 65.031h-35.283c-4.142 0-7.5 3.357-7.5 7.5s3.358 7.5 7.5 7.5h35.283c4.142 0 7.5-3.357 7.5-7.5s-3.358-7.5-7.5-7.5z"/><path d="m273.642 403.418h-35.283c-4.142 0-7.5 3.357-7.5 7.5s3.358 7.5 7.5 7.5h35.283c4.142 0 7.5-3.357 7.5-7.5s-3.358-7.5-7.5-7.5z"/><path d="m273.642 427.892h-35.283c-4.142 0-7.5 3.357-7.5 7.5s3.358 7.5 7.5 7.5h35.283c4.142 0 7.5-3.357 7.5-7.5s-3.358-7.5-7.5-7.5z"/><path d="m405.407 55.558h35.284c4.142 0 7.5-3.357 7.5-7.5s-3.358-7.5-7.5-7.5h-35.284c-4.142 0-7.5 3.357-7.5 7.5s3.358 7.5 7.5 7.5z"/><path d="m405.407 80.031h35.284c4.142 0 7.5-3.357 7.5-7.5s-3.358-7.5-7.5-7.5h-35.284c-4.142 0-7.5 3.357-7.5 7.5s3.358 7.5 7.5 7.5z"/><path d="m440.691 403.418h-35.284c-4.142 0-7.5 3.357-7.5 7.5s3.358 7.5 7.5 7.5h35.284c4.142 0 7.5-3.357 7.5-7.5s-3.358-7.5-7.5-7.5z"/><path d="m440.691 427.892h-35.284c-4.142 0-7.5 3.357-7.5 7.5s3.358 7.5 7.5 7.5h35.284c4.142 0 7.5-3.357 7.5-7.5s-3.358-7.5-7.5-7.5z"/></g></svg>