<svg id="Capa_1" enable-background="new 0 0 512 512" height="512" viewBox="0 0 512 512" width="512" xmlns="http://www.w3.org/2000/svg"><g><path d="m493.41 22.884c-13.361-14.543-32.367-22.884-52.143-22.884h-370.537c-40.7 0-73.923 35.837-70.475 76.491l31.458 370.91c3.058 36.072 34.309 64.599 70.474 64.599h251.818c4.142 0 7.5-3.357 7.5-7.5s-3.358-7.5-7.5-7.5h-251.818c-28.426 0-53.123-22.492-55.529-50.866l-24.411-287.828h72.343c15.381 0 29.557 7.68 37.922 20.544l21.535 33.117c11.143 17.136 30.02 27.366 50.497 27.366h102.91c20.477 0 39.354-10.23 50.497-27.366l21.535-33.117c8.365-12.864 22.541-20.544 37.922-20.544h72.342l-24.411 287.828c-2.406 28.368-27.098 50.866-55.53 50.866h-25.856c-4.142 0-7.5 3.357-7.5 7.5s3.358 7.5 7.5 7.5h25.856c36.157 0 67.415-28.519 70.475-64.599l31.458-370.91c1.661-19.581-5.021-39.12-18.332-53.607zm-76.003 120.422c-20.477 0-39.354 10.23-50.497 27.366l-21.535 33.117c-8.365 12.864-22.541 20.544-37.921 20.544h-102.91c-15.38 0-29.557-7.68-37.921-20.544l-21.535-33.117c-11.143-17.136-30.021-27.366-50.497-27.366h-73.616l-5.774-68.082c-2.715-32.015 23.454-60.224 55.529-60.224h370.537c32.064 0 58.245 28.198 55.529 60.224l-5.774 68.082z"/><path d="m362.985 70.612c-31.106-21.972-71.101-35.089-106.986-35.089-16.474 0-34.354 2.811-51.708 8.128-3.96 1.214-6.187 5.408-4.974 9.368s5.408 6.188 9.368 4.974c15.948-4.887 32.309-7.47 47.313-7.47 32.902 0 69.662 12.09 98.332 32.341 7.743 5.47 9.669 16.022 4.384 24.024l-47.379 71.734c-2.565 3.883-6.879 6.202-11.538 6.205h-87.594c-4.662-.003-8.977-2.322-11.541-6.205l-47.38-71.734c-5.285-8.002-3.359-18.555 4.383-24.024 7.603-5.37 15.851-10.229 24.515-14.44 3.725-1.812 5.277-6.299 3.466-10.024-1.812-3.725-6.299-5.277-10.024-3.466-9.392 4.566-18.345 9.842-26.61 15.679-14.402 10.174-18.024 29.739-8.246 44.544l47.38 71.734c5.347 8.096 14.338 12.933 24.053 12.938h87.602c9.711-.005 18.702-4.842 24.05-12.938l47.38-71.734c9.778-14.805 6.155-34.371-8.246-44.545z"/><path d="m196.013 454.445c-4.142 0-7.5 3.357-7.5 7.5s3.358 7.5 7.5 7.5h119.971c4.142 0 7.5-3.357 7.5-7.5s-3.358-7.5-7.5-7.5z"/><path d="m212.181 85.383c-4.142 0-7.5 3.357-7.5 7.5v49.284c0 4.143 3.358 7.5 7.5 7.5s7.5-3.357 7.5-7.5v-9.561l15.436 14.949c3.559 2.872 7.094 2.815 10.605-.17 2.881-2.976 2.805-7.724-.17-10.605l-20.883-20.224 19.008-17.539c3.044-2.809 3.235-7.554.426-10.598s-7.554-3.236-10.598-.426l-13.825 12.756v-7.866c.001-4.143-3.356-7.5-7.499-7.5z"/><path d="m282.395 100.269c3.465 0 6.807 1.024 9.665 2.961 3.429 2.327 8.092 1.431 10.417-1.998 2.325-3.428 1.43-8.092-1.999-10.416-5.351-3.629-11.604-5.547-18.083-5.547-17.818 0-32.314 14.538-32.314 32.407 0 17.87 14.496 32.408 32.314 32.408 17.028 0 28.92-13.327 28.92-32.408 0-4.143-3.358-7.5-7.5-7.5h-14.846c-4.142 0-7.5 3.357-7.5 7.5s3.358 7.5 7.5 7.5h6.27c-1.727 5.517-5.673 9.908-12.845 9.908-9.547 0-17.314-7.81-17.314-17.408s7.768-17.407 17.315-17.407z"/></g></svg>