<svg id="Capa_1" enable-background="new 0 0 511.987 511.987" height="512" viewBox="0 0 511.987 511.987" width="512" xmlns="http://www.w3.org/2000/svg"><g><path d="m358.976 273.47c4.143 0 7.5-3.357 7.5-7.5v-17.536c0-4.143-3.357-7.5-7.5-7.5s-7.5 3.357-7.5 7.5v17.536c0 4.142 3.357 7.5 7.5 7.5z"/><path d="m398.457 321.258h.067c4.143-.037 7.47-3.425 7.434-7.566l-.172-19.33c-.037-4.12-3.388-7.434-7.499-7.434-.022 0-.045 0-.067 0-4.143.037-7.47 3.425-7.434 7.566l.172 19.33c.037 4.121 3.388 7.434 7.499 7.434z"/><path d="m319.494 286.928c-.022 0-.045 0-.067 0-4.143.037-7.47 3.425-7.434 7.566l.172 19.33c.037 4.12 3.388 7.434 7.499 7.434h.067c4.143-.037 7.47-3.425 7.434-7.566l-.172-19.33c-.037-4.121-3.387-7.434-7.499-7.434z"/><path d="m510.738 422.197-131.632-356.744c-6.608-17.907-32.738-17.907-39.346 0l-17.065 46.249c-4.037-5.124-9.131-9.422-15.266-12.847-7.452-4.162-15.851-5.886-24.731-5.143 3.595-23.397-3.524-43.651-19.201-52.404-12.278-6.854-27.769-5.241-42.19 3.934-2.19-5.855-5.032-11.685-8.345-17.059-6.354-10.304-14.05-18.242-22.258-22.957-9.44-5.424-19.687-6.656-29.63-3.558-3.955 1.232-6.163 5.437-4.931 9.392s5.438 6.16 9.391 4.931c6.021-1.875 11.809-1.141 17.698 2.241 13.06 7.503 23.333 26.39 26.732 41.169 2.621 5.993 6.727 7.293 12.319 3.9 11.787-10.581 24.779-13.989 33.901-8.896 11.796 6.586 15.696 25.825 9.484 46.788-.566 6.897 2.592 9.988 9.476 9.274 6.472-2.07 16.058-3.495 24.974 1.483 7.536 4.207 12.848 10.263 15.836 18.02l-42.427 114.984c-8.722-6.569-20.725-9.376-34.159-7.908 1.125-9.957.873-21.203-1.375-31.727l25.815-29.861c2.709-3.134 2.364-7.87-.769-10.579-3.133-2.708-7.869-2.364-10.579.769l-20.129 23.284c-3.012-5.886-7.397-11.454-12.768-15.359l-12.011-40.846 19.862-22.976c2.709-3.134 2.365-7.87-.769-10.579s-7.871-2.363-10.579.769l-13.547 15.671-5.939-20.197c-1.169-3.974-5.34-6.25-9.311-5.079-3.974 1.169-6.248 5.337-5.08 9.312l6.042 20.546-19.881-5.356c-4-1.075-8.115 1.292-9.192 5.291-1.078 4 1.291 8.115 5.291 9.193l28.744 7.743 8.707 29.609c-10.173-1.262-20.135 1.512-28.906 8.08-14.133 10.583-23.602 29.835-27.827 46.687-11.631-5.531-23.406-6.927-33.634-4.108-11.68-15.129-13.852-30.101-6.428-44.561 3.787-7.378 10.741-12.777 20.11-15.615 5.161-1.563 7.4-8.91 2.664-12.908-16.441-13.882-23.521-32.153-17.217-44.434 4.89-9.526 17.559-14.15 33.071-12.072 6.427-.306 9.111-3.631 8.052-9.978-4.346-12.051-6.672-31.55-1.513-45.884 1.403-3.897-.619-8.193-4.517-9.597-3.897-1.401-8.194.618-9.597 4.517-5.077 14.103-4.572 31.436-1.494 45.484-17.021.533-30.836 7.993-37.348 20.68-8.311 16.189-3.265 37.106 12.404 54.544-7.876 4.435-13.987 10.671-17.961 18.413-9.677 18.85-7.389 39.33 6.299 58.403-14.168 11.723-18.624 33.217-12.171 56.317-5.238.194-10.263 1.154-14.943 2.846-4.676-10.841-7.842-22.319-9.335-34.122-2.195-17.351-.755-34.636 4.279-51.374.876-2.912-.093-6.063-2.453-7.981l-10.435-8.479c-3.09-2.511-7.603-2.17-10.28.777-14.438 15.889-25.486 34.268-32.836 54.626-1.311 3.632-2.524 7.412-3.608 11.236 0 .001 0 .003-.001.004-9.114 32.17-8.251 65.857 2.496 97.419 8.645 25.39 23.163 47.967 42.408 66.163-7.458 1.879-13.097 5.561-15.264 11.567-.878 2.435-1.468 6.161.327 10.603-6.945.678-13.157 1.854-18.361 3.495-14.77 4.655-17.855 12.177-17.843 17.667s3.133 12.998 17.929 17.588c5.213 1.616 11.429 2.765 18.381 3.411-1.774 4.449-1.168 8.174-.279 10.604 5.021 13.719 28.164 15.19 49.659 10.741.702 2.725 2.008 4.738 3.104 6.047 2.984 3.561 8.666 7.787 18.819 7.787h.208c16.832-.096 39.794-12.028 53.992-24.743 10.287 15.342 27.782 25.463 47.601 25.463h163.631c4.143 0 7.5-3.357 7.5-7.5s-3.357-7.5-7.5-7.5h-163.631c-23.31 0-42.274-18.964-42.274-42.274 0-26.811 25.996-47.344 52.084-41.121l35.552 8.481v22.352c0 4.143 3.357 7.5 7.5 7.5s7.5-3.357 7.5-7.5v-18.773l46.805 11.166v20.12c0 4.143 3.357 7.5 7.5 7.5s7.5-3.357 7.5-7.5v-16.542l46.805 11.166v17.889c0 4.143 3.357 7.5 7.5 7.5s7.5-3.357 7.5-7.5v-14.31l39.379 9.394c.04.011.082.019.122.029l25.958 6.193c6.013 1.435 10.212 6.753 10.212 12.935 0 7.332-5.966 13.297-13.298 13.297h-52.767c-4.143 0-7.5 3.357-7.5 7.5s3.357 7.5 7.5 7.5h52.767c15.604 0 28.298-12.694 28.298-28.297 0-11.254-6.553-21.147-16.456-25.686 10.085-2.52 20.068-5.385 29.88-8.587 10.954-3.579 17.252-16.289 13.219-27.222zm-156.906-351.55c1.909-5.171 9.293-5.171 11.201 0l111.143 301.217c-56.892 16.214-117.303 20.396-175.927 12.194 5.99-11.519 4.815-25.836-3.4-36.236l-.147-.188c-10.013-12.675-27.543-16.243-41.793-8.889zm-258.388 225.631c6.824-.197 9.553-3.64 8.187-10.329-9.042-21.212-6.964-42.142 5.052-50.9 9.349-6.812 23.775-5.15 37.649 4.343 5.877 2.618 9.77.856 11.68-5.288 1.947-16.062 10.806-37.48 23.973-47.34 6.056-4.533 12.302-6.189 19.098-5.059 6.736 1.12 11.975 4.646 16.017 10.779 8.87 13.461 9.603 36.428 5.743 52.159-.356 6.531 2.727 9.539 9.247 9.025 15.557-4.219 29.05-1.7 35.813 6.528l-32.856 89.045c-18.658 8-38.799 11.304-58.843 9.725l8.476-46.4 30.036-12.391c3.829-1.58 5.652-5.965 4.073-9.794s-5.963-5.653-9.793-4.073l-21.109 8.709 4.168-22.814c.744-4.074-1.956-7.981-6.03-8.726-4.072-.74-7.981 1.955-8.726 6.03l-4.233 23.174-16.903-15.122c-3.087-2.762-7.828-2.497-10.59.589-2.762 3.088-2.498 7.829.589 10.591l23.744 21.241-8.57 46.912c-34.917-7.038-65.651-29.085-83.565-59.864 5.332-1.603 11.25-1.869 17.673-.75zm-46.264-98.523.974.792c-3.801 14.495-5.221 29.324-4.239 44.243l-22.177-.051c.084-.237.169-.474.254-.71 5.87-16.256 14.328-31.119 25.188-44.274zm58.594 298.512c-3.865-.024-8.872-.929-6.806-5.744 1.15-2.683.64-5.79-1.31-7.963-3.278-3.657-7.686-2.109-11.626-1.072-21.441 5.646-35.346 2.496-37.732.157.359-.929 1.917-3.265 6.287-6.302 7.645-5.314.629-13.639-6.291-13.639-21.803 0-32.412-4.423-34.897-6.65 2.488-2.251 13.173-6.758 35.218-6.808 6.885-.088 13.563-8.368 5.868-13.666-4.383-3.018-5.952-5.346-6.315-6.273 2.375-2.35 16.267-5.562 37.734-.013 3.946 1.019 8.358 2.546 11.621-1.125 1.939-2.182 2.436-5.291 1.273-7.969-2.479-5.708 6.455-6.655 10.357-6.444 14.126.756 33.331 11.464 43.881 24.064-3.757 11.484-3.797 24.037-.065 35.533-10.9 11.284-33.227 23.834-47.197 23.914zm66.187-86.508c-4.631 3.656-8.583 7.933-11.817 12.653-13.556-13.529-33.754-23.755-50.188-24.634-9.905-.539-17.924 2.357-23.21 8.352-1.165 1.321-2.557 3.384-3.271 6.221-4.205-.849-8.47-1.468-12.651-1.817-23.153-17.876-40.385-41.961-49.854-69.772-9.154-26.886-10.412-55.473-3.702-83.031l28.445.064c4.035 23.119 13.793 44.931 28.433 63.437 43.801 55.369 124.463 69.055 184.227 31.644 8.146-5.099 18.704-3.353 24.557 4.057l.147.187c5.068 6.417 5.308 15.53.581 22.163-7.549 10.592-16.472 20.122-26.53 28.401l-36.386-8.68c-17.156-4.099-34.937-.176-48.781 10.755zm322.477 22.284c-.722 1.491-1.991 2.597-3.574 3.113-18.811 6.14-38.273 11.002-57.87 14.479l-158.027-37.699c4.735-4.468 9.207-9.201 13.372-14.198 63.497 10.067 129.301 6.017 191.049-11.755l15.278 41.407c.564 1.531.483 3.183-.228 4.653z"/></g></svg>