<svg id="Capa_1" enable-background="new 0 0 512 512" height="512" viewBox="0 0 512 512" width="512" xmlns="http://www.w3.org/2000/svg"><g><path d="m474.789 175.257c-9.072-48.466-18.143-96.932-27.215-145.397-2.555-13.65-14.474-23.557-28.341-23.557-8.68 0-17.381 0-26.049 0-6.958 0-13.631 2.957-18.31 8.113l-102.377 112.841c-8.249 9.067-22.867 9.067-31.114-.002l-52.827-58.088c-2.787-3.064-7.531-3.288-10.595-.503-3.064 2.787-3.29 7.53-.503 10.595l18.063 19.863-16.012 16.012-44.184-48.895v-33.309l19.647 21.604c3.463 3.095 6.994 3.263 10.595.503 3.064-2.787 3.29-7.53.503-10.595l-26.107-28.707c-5.452-5.995-13.223-9.433-21.318-9.433-8.06 0-16.131 0-24.194 0-13.713 0-25.606 9.775-28.281 23.244-9.643 48.559-19.286 97.118-28.929 145.677-24.031 26.815-37.241 61.232-37.241 97.158 0 37.977 15.247 74.944 41.834 102.022v113.117c0 10.023 8.154 18.178 18.178 18.178h296.097c4.143 0 7.5-3.357 7.5-7.5s-3.357-7.5-7.5-7.5h-296.097c-1.752 0-3.178-1.426-3.178-3.178v-30.491h398.332v30.491c0 1.752-1.426 3.178-3.178 3.178h-66.006c-4.143 0-7.5 3.357-7.5 7.5s3.357 7.5 7.5 7.5h66.006c10.023 0 18.178-8.154 18.178-18.178v-113.117c26.582-27.079 41.834-64.038 41.834-102.022 0-35.912-13.197-70.314-37.211-97.124zm-410.465-59.408 46.247 21.954-56.07 27.511zm5.282-26.601 2.507-12.623h48.212v49.204l-52.988-25.154zm65.719-.637 76.771 84.686c10.012 11.01 12.322 24.733 11.903 38.979v41.047c-51.093-14.155-88.675-60.631-88.675-115.631v-49.081zm103.675 131.164h35.882v36.628c-5.935.886-12.009 1.349-18.189 1.349-6.009 0-11.915-.441-17.692-1.28v-36.697zm50.882-7.5c-.419-14.245 1.89-27.969 11.902-38.979l76.275-84.535v48.93c0 54.822-37.337 101.181-88.178 115.498v-40.914zm155.727-111.383-52.532 24.937v-49.204h47.99zm2.854 15.249 9.198 49.141-54.95-27.422zm-15.633-83.522 5.429 29.006h-45.2v-37.134c0-1.758 1.421-3.188 3.167-3.188h23.007c6.652 0 12.37 4.759 13.597 11.316zm-54.77.611v33.048l-44.61 49.814-16.028-16.028zm-121.12 115.913c10.298 0 19.517-4.658 26.661-11.802l23.728-26.154 16.059 16.059-32.702 35.959c-10.191 11.208-15.805 25.729-15.805 40.891v.68h-35.881v-.68c0-15.16-5.613-29.682-15.806-40.891l-33.598-36.944 16.029-16.029 24.66 27.115c6.817 7.496 16.532 11.796 26.655 11.796zm-162.49-127.84h22.707c1.747 0 3.168 1.431 3.168 3.188v37.134h-45.233l5.79-29.156c1.285-6.47 6.991-11.166 13.568-11.166zm367.846 339.645c-24.334 27.394-61.806 42.867-98.154 42.867-4.143 0-7.5 3.357-7.5 7.5s3.357 7.5 7.5 7.5c33.096 0 65.194-11.128 91.024-31.085v54.298h-398.332v-54.297c25.829 19.957 57.926 31.084 91.023 31.084 4.143 0 7.5-3.357 7.5-7.5s-3.357-7.5-7.5-7.5c-71.641 0-132.857-59.301-132.857-131.434 0-32.404 11.995-63.44 33.792-87.557l72.057-35.355c6.045 68.978 64.656 123.283 135.843 123.283 71.161 0 129.755-54.267 135.836-123.209l70.66 35.262c21.81 24.12 33.812 55.164 33.812 87.576 0 32.855-12.325 64.309-34.704 88.567z"/></g></svg>