<svg id="Capa_1" enable-background="new 0 0 511.992 511.992" height="512" viewBox="0 0 511.992 511.992" width="512" xmlns="http://www.w3.org/2000/svg"><g><path d="m248.114 187.504c-2.833-2.868-7.255-3.472-10.75-1.461-3.498 2.01-5.207 6.134-4.131 10.113l16.547 58.472c1.045 3.695 5.594 6.213 9.259 5.175 3.985-1.128 6.303-5.273 5.175-9.259l-9.529-33.671 24.46 26.698c2.44 2.669 7.319 3.479 10.459 1.923 3.445-1.705 5.397-5.407 4.858-9.213-.013-.089-.026-.178-.042-.266l-6.347-35.556 21.092 28.123c2.486 3.314 7.188 3.986 10.5 1.5 3.313-2.485 3.985-7.187 1.5-10.5l-36.584-48.778c-2.458-3.194-6.77-4.332-10.486-2.77-3.717 1.563-5.92 5.443-5.356 9.437.013.09.027.181.043.27l7.163 40.132-27.637-30.166c-.064-.069-.128-.136-.194-.203z"/><path d="m123.729 284.23c9.152 18.733 32.372 26.684 51.104 17.506 17.984-8.812 23.651-29.078 13.78-49.281-2.394-3.923-5.74-5.07-10.038-3.442l-16.507 8.089c-3.72 1.822-5.258 6.315-3.435 10.035 1.821 3.719 6.314 5.257 10.034 3.434l9.007-4.413c1.904 8.302.268 17.352-9.442 22.109-11.288 5.533-25.564.558-31.026-10.621-5.617-11.497-.828-25.438 10.676-31.074 4.179-2.049 8.807-2.795 13.394-2.155 4.089.571 7.892-2.291 8.463-6.395.571-4.103-2.292-7.892-6.395-8.463-7.557-1.049-15.186.174-22.062 3.542-18.923 9.272-26.797 32.209-17.553 51.129z"/><path d="m217.867 197.104c-4.112-.518-7.855 2.414-8.361 6.525l-2.959 24.005-20.935-12.467c-3.558-2.119-8.162-.953-10.281 2.605-2.12 3.56-.953 8.162 2.605 10.281l28.88 17.2 12.719 26.194c1.716 3.534 6.514 5.173 10.022 3.471 3.727-1.81 5.28-6.297 3.472-10.023l-12.73-26.219 4.094-33.211c.507-4.111-2.415-7.854-6.526-8.361z"/><path d="m248.135 151.758c-24.148-9.338-51.34-8.153-74.599 3.244-22.847 11.195-39.775 30.685-47.67 54.88-1.285 3.938.865 8.172 4.804 9.456 3.637 1.186 8.258-1.129 9.456-4.804 6.626-20.308 20.835-36.666 40.01-46.062 19.517-9.562 42.328-10.557 62.591-2.724 3.861 1.495 8.206-.427 9.699-4.291 1.494-3.863-.427-8.206-4.291-9.699z"/><path d="m178.563 317.087c-1.494 3.863.427 8.206 4.291 9.699 23.94 9.256 51.552 8.048 74.599-3.244 22.847-11.195 39.775-30.685 47.67-54.88 1.285-3.938-.865-8.172-4.804-9.456-3.938-1.285-8.172.866-9.456 4.804-6.626 20.308-20.835 36.666-40.011 46.062-19.517 9.562-42.329 10.556-62.59 2.724-3.861-1.492-8.206.428-9.699 4.291z"/><path d="m418.787 128.427-28.104-11.54c-3.831-1.572-8.213.257-9.786 4.089-1.574 3.831.257 8.213 4.089 9.786l28.104 11.54c.203.083.313.301.257.505l-8.154 29.324c-1.11 3.991 1.226 8.126 5.216 9.235 3.667 1.022 8.207-1.519 9.235-5.216l8.154-29.324c2.091-7.52-1.782-15.43-9.011-18.399z"/><path d="m496.455 363.886h-23.355v-7.221c0-8.567-6.97-15.537-15.537-15.537h-32.735c-8.567 0-15.538 6.97-15.538 15.537v44.902h-110.807v-42.449l199.175-97.592c12.318-6.036 17.443-20.969 11.425-33.287l-104.723-214.349c-5.849-11.969-21.247-17.324-33.313-11.412l-293.395 143.758c-3.72 1.823-5.258 6.315-3.436 10.035 1.823 3.72 6.315 5.256 10.035 3.436l131.375-64.371 157.947 64.855c.997.408 1.532 1.493 1.246 2.522l-45.812 164.747-35.821 17.551c-2.738-2.408-6.316-3.882-10.24-3.882h-32.736c-8.567 0-15.537 6.97-15.537 15.537v7.221h-23.355c-8.567 0-15.537 6.97-15.537 15.537v13.314l-61.822 30.292c-5.666 2.149-10.078.64-13.236-4.527l-29.263-59.896 14.977-53.86c2.321-8.346-1.978-17.123-10-20.418l-51.622-21.196-28.816-58.98c-2.393-4.896-.352-10.833 4.549-13.233l37.648-18.447c3.72-1.823 5.258-6.315 3.436-10.035s-6.314-5.256-10.035-3.436l-37.648 18.447c-12.319 6.037-17.445 20.97-11.427 33.288l104.723 214.348c5.889 12.052 21.263 17.319 33.313 11.414l55.223-27.058v64.197c0 8.567 6.97 15.537 15.537 15.537h23.355v7.221c0 8.567 6.97 15.537 15.537 15.537h32.735c8.567 0 15.537-6.97 15.537-15.537v-44.902h110.807v44.902c0 8.567 6.971 15.537 15.538 15.537h32.735c8.567 0 15.537-6.97 15.537-15.537v-7.221h23.355c8.567 0 15.537-6.97 15.537-15.537v-94.215c.001-8.567-6.968-15.537-15.536-15.537zm-405.717-65.682c.997.409 1.533 1.494 1.247 2.523l-10.448 37.571-26.813-54.882zm298.532-131.472c2.321-8.348-1.978-17.125-10-20.418l-145.64-59.8 144.017-70.566c5.666-2.149 10.078-.64 13.236 4.527l104.722 214.349c2.393 4.896.352 10.833-4.548 13.233l-144.026 70.57zm-177.952 307.443c-.296 0-.537-.241-.537-.537v-94.215c0-.296.241-.537.537-.537h23.355v95.289zm72.165 22.221c0 .296-.241.537-.537.537h-32.736c-.296 0-.537-.241-.537-.537v-139.73c0-.296.241-.537.537-.537h32.735c.296 0 .537.241.537.537v139.73zm15-59.903v-19.926h110.807v19.926zm198.509 37.145c0 .296-.241.537-.537.537h-23.355v-15.262c0-4.143-3.357-7.5-7.5-7.5s-7.5 3.357-7.5 7.5v37.482c0 .296-.241.537-.537.537h-32.735c-.297 0-.538-.241-.538-.537v-139.73c0-.296.241-.537.538-.537h32.735c.296 0 .537.241.537.537v72.289c0 4.143 3.357 7.5 7.5 7.5s7.5-3.357 7.5-7.5v-50.068h23.355c.296 0 .537.241.537.537z"/></g></svg>