<svg id="Capa_1" enable-background="new 0 0 512 512" height="512" viewBox="0 0 512 512" width="512" xmlns="http://www.w3.org/2000/svg"><g><path d="m57.1 219.5c1.919 0 3.839-.732 5.303-2.196l30.374-30.374c2.929-2.93 2.929-7.678 0-10.607-2.929-2.928-7.678-2.928-10.606 0l-30.374 30.374c-2.929 2.93-2.929 7.678 0 10.607 1.464 1.464 3.384 2.196 5.303 2.196z"/><path d="m51.797 260.07c3.535 2.928 7.071 2.928 10.606 0l73.14-73.141c2.929-2.93 2.929-7.678 0-10.607-2.929-2.928-7.678-2.928-10.606 0l-73.14 73.141c-2.929 2.93-2.929 7.678 0 10.607z"/><path d="m448.284 223.089-30.374 30.374c-2.929 2.93-2.929 7.678 0 10.607 3.535 2.928 7.071 2.928 10.606 0l30.374-30.374c2.929-2.93 2.929-7.678 0-10.607-2.929-2.928-7.678-2.928-10.606 0z"/><path d="m380.447 266.267c1.919 0 3.839-.732 5.303-2.196l73.14-73.141c2.929-2.93 2.929-7.678 0-10.607-2.929-2.928-7.678-2.928-10.606 0l-73.14 73.141c-2.929 2.93-2.929 7.678 0 10.607 1.464 1.463 3.383 2.196 5.303 2.196z"/><path d="m494.47 161.633c9.666 0 17.53-7.864 17.53-17.531v-126.572c0-9.666-7.864-17.53-17.53-17.53h-413.818c-4.142 0-7.5 3.357-7.5 7.5s3.358 7.5 7.5 7.5h413.818c1.395 0 2.53 1.135 2.53 2.53v126.571c0 1.396-1.135 2.531-2.53 2.531h-476.94c-1.395 0-2.53-1.136-2.53-2.531v-126.571c0-1.396 1.135-2.53 2.53-2.53h33.139c4.142 0 7.5-3.357 7.5-7.5s-3.358-7.5-7.5-7.5h-33.139c-9.666 0-17.53 7.864-17.53 17.53v126.571c0 9.667 7.864 17.531 17.53 17.531h3.637v115.818h-3.637c-9.666 0-17.53 7.864-17.53 17.53v199.49c0 9.667 7.864 17.53 17.53 17.53h409.811c4.142 0 7.5-3.357 7.5-7.5s-3.358-7.5-7.5-7.5h-33.448v-121.028h103.107v118.499c0 1.395-1.135 2.529-2.53 2.529h-37.182c-4.142 0-7.5 3.357-7.5 7.5s3.358 7.5 7.5 7.5h37.182c9.666 0 17.53-7.863 17.53-17.529v-199.491c0-9.666-7.864-17.53-17.53-17.53h-3.638v-115.817zm-479.47 332.838v-118.499h103.107v121.028h-100.577c-1.395 0-2.53-1.135-2.53-2.529zm162.372 2.529v-121.028h71.128v121.028zm86.128 0v-121.028h71.128v121.028zm86.128 0v-123.514c0-6.9-5.614-12.515-12.515-12.515h-162.226c-6.901 0-12.515 5.614-12.515 12.515v123.514h-29.264v-141.971c0-12.456 10.133-22.59 22.589-22.59h200.606c12.456 0 22.589 10.134 22.589 22.59v141.971zm147.372-202.02v65.991h-103.107v-5.942c0-20.728-16.862-37.59-37.589-37.59h-200.607c-20.727 0-37.589 16.862-37.589 37.59v5.942h-103.108v-65.991c0-1.396 1.135-2.53 2.53-2.53h476.94c1.395 0 2.53 1.135 2.53 2.53zm-21.167-17.53h-439.666v-115.817h439.665v115.817z"/><path d="m297.898 115.952 7.523-42.538 12.774 42.692c.026.09.055.178.085.267 1.252 3.681 4.69 6.139 8.573 6.139h.081c3.917-.034 7.352-2.563 8.549-6.293.027-.086.054-.173.078-.261l12.035-42.791 8.3 42.568c.793 4.066 4.732 6.723 8.797 5.926 4.065-.793 6.719-4.731 5.926-8.797l-13.105-67.211c-.835-4.024-4.285-6.986-8.389-7.204-4.102-.23-7.851 2.366-9.107 6.28-.028.087-.054.173-.078.261l-13.26 47.144-14.086-47.074c-.026-.089-.055-.177-.084-.265-1.323-3.893-5.108-6.425-9.213-6.118-4.103.289-7.502 3.314-8.281 7.442l-11.888 67.222c-.722 4.078 2 7.97 6.079 8.691 4.083.724 7.971-2 8.691-6.08z"/><path d="m183.159 54.226c5.425-.026 10.636 1.541 15.108 4.532 3.442 2.302 8.101 1.379 10.403-2.064 2.303-3.443 1.379-8.102-2.064-10.404-6.913-4.623-14.969-7.063-23.313-7.063-.068 0-.137 0-.205 0-23.156.11-41.928 19.03-41.845 42.177.082 22.817 19.452 41.793 42.164 41.793 21.948-.104 37.215-17.438 37.126-42.154-.447-4.573-2.959-7.064-7.536-7.473l-20.644.099c-4.142.02-7.484 3.394-7.464 7.536.02 4.13 3.374 7.464 7.499 7.464h.037 12.412c-1.967 10.139-8.302 19.466-21.502 19.528-14.637 0-27.039-12.107-27.092-26.848-.054-14.885 12.021-27.052 26.916-27.123z"/><path d="m277.609 40.169c-3.479-2.246-8.122-1.247-10.369 2.232l-15.504 24.01-15.837-24.034c-2.281-3.46-6.933-4.417-10.39-2.136-3.458 2.279-4.415 6.931-2.136 10.39l20.929 31.76.037 32.987c.005 4.139 3.361 7.491 7.5 7.491h.008c4.143-.005 7.497-3.366 7.492-7.509l-.038-33.016 20.539-31.806c2.248-3.479 1.249-8.122-2.231-10.369z"/></g></svg>