<svg id="Capa_1" enable-background="new 0 0 511.997 511.997" height="512" viewBox="0 0 511.997 511.997" width="512" xmlns="http://www.w3.org/2000/svg"><g><path d="m511.841 434.169-4.906-37.089c-.506-3.829-3.851-6.639-7.697-6.512-5.68.189-9.618 6.01-6.824 11.116l4.557 34.451c.172 1.304-.493 2.585-1.656 3.188-10.154 5.273-21.212 9.664-32.382 13.321l-11.874-89.776 31.982-32.055 5.119 38.703c.543 4.105 4.315 6.99 8.418 6.452 4.106-.544 6.995-4.312 6.452-8.419l-34.21-258.639c-1.388-10.493-9.646-18.642-19.842-20.177.219-1.126.342-2.286.342-3.475v-42.304c0-10.032-8.161-18.193-18.192-18.193h-283.204c-4.142 0-7.5 3.357-7.5 7.5s3.358 7.5 7.5 7.5h283.203c1.76 0 3.192 1.433 3.192 3.193v42.304c0 1.761-1.432 3.192-3.192 3.192h-125.434v-.795c0-17.121-13.905-31.05-30.997-31.05-4.142 0-7.5 3.357-7.5 7.5s3.358 7.5 7.5 7.5c8.82 0 15.997 7.2 15.997 16.05v.795h-69.39v-.795c0-8.85 7.176-16.05 15.997-16.05 4.142 0 7.5-3.357 7.5-7.5s-3.358-7.5-7.5-7.5c-17.092 0-30.997 13.929-30.997 31.05v.795h-125.433c-1.76 0-3.192-1.432-3.192-3.192v-42.304c0-1.761 1.432-3.193 3.192-3.193h37.141c4.142 0 7.5-3.357 7.5-7.5s-3.358-7.5-7.5-7.5h-37.141c-10.031 0-18.192 8.161-18.192 18.193v42.304c0 1.189.123 2.349.342 3.475-10.197 1.535-18.454 9.684-19.842 20.177l-43.022 325.259c-.998 7.542 2.866 14.963 9.613 18.468 31.068 16.133 64.956 23.074 99.447 27.371 50.713 6.32 97.51 7.569 125.179 3.34 8.387-1.281 14.84-8.362 15.345-16.836l6.258-104.972 6.258 104.972c.505 8.474 6.958 15.555 15.345 16.836 38.19 5.835 76.528 4.555 114.76-.209 55.604-6.929 90.437-20.412 109.866-30.502 6.749-3.505 10.612-10.926 9.614-18.468zm-63.263-90.051-6.105-46.159 31.982-32.055 6.105 46.159zm-3.074-240.668c4.255 0 7.886 3.193 8.446 7.427l18.025 136.277-31.982 32.054-23.247-175.758zm-387.457 7.427c.56-4.233 4.191-7.427 8.446-7.427h28.758l-23.246 175.758-31.982-32.054zm-20.505 155.027 31.982 32.055-6.105 46.159-31.982-32.055zm-22.516 170.231 13.931-105.321 31.982 32.055-11.888 89.88c-14.155-4.402-23.949-9.052-32.368-13.425-1.164-.604-1.829-1.885-1.657-3.189zm375.481 32.119c-54.402 6.778-85.326 4.134-110.64.266-1.464-.224-2.549-1.416-2.637-2.9l-8.42-141.234c-.002-.04-.005-.08-.008-.12-.521-6.884-5.906-11.881-12.803-11.881s-12.282 4.997-12.803 11.881c-.003.04-.006.08-.008.12l-8.42 141.234c-.088 1.484-1.173 2.677-2.637 2.9-9.884 1.512-47.824 5.73-121.059-3.396-19.447-2.423-34.85-5.276-47.422-8.348l12.645-95.603 8.585-64.91 25.503-192.812h95.922v34.964c0 8.85-7.176 16.05-15.997 16.05-10.809 1.126-10.486 13.056 0 15 17.092 0 30.997-13.929 30.997-31.05v-34.965h69.39v34.964c0 17.121 13.905 31.05 30.997 31.05 10.809-1.126 10.486-13.056 0-15-8.82 0-15.997-7.2-15.997-16.05v-34.964h95.922l25.503 192.812 8.585 64.91 12.676 95.833c-22.36 6.116-43.792 9.494-57.874 11.249z"/></g></svg>