<svg id="Capa_1" enable-background="new 0 0 512 512" height="512" viewBox="0 0 512 512" width="512" xmlns="http://www.w3.org/2000/svg"><g><path d="m494.5 224.438h-14.929c-5.036-29.013-17.041-56.213-35.461-79.923-2.542-3.272-7.254-3.861-10.524-1.321-3.271 2.542-3.862 7.253-1.321 10.524 22.907 29.483 35.015 64.853 35.015 102.282 0 92.006-74.853 166.858-166.858 166.858-17.833 0-35.309-2.788-52.049-8.282 1.134-4.902 1.976-9.915 2.517-15.015 15.896 5.505 32.521 8.297 49.532 8.297 83.735 0 151.858-68.123 151.858-151.858s-68.125-151.858-151.86-151.858c-85.123 0-155.305 73.337-151.707 158.338-4.96-.911-9.996-1.509-15.082-1.82-2.533-92.543 74.162-171.518 166.789-171.518 41.455 0 81.199 15.305 111.912 43.094 3.071 2.779 7.813 2.542 10.594-.529 2.779-3.071 2.542-7.814-.529-10.594-7.12-6.442-14.689-12.262-22.622-17.443l-22.831-83.428c-3.262-11.919-14.17-20.242-26.525-20.242h-99.999c-12.355 0-23.263 8.323-26.524 20.241l-22.86 83.536c-52.284 34.251-83.975 94.323-82.415 156.835-66.038 3.733-118.621 58.633-118.621 125.589 0 35.741 15.292 69.922 41.956 93.777 3.087 2.762 7.829 2.498 10.59-.589 2.762-3.087 2.499-7.829-.588-10.591-23.488-21.012-36.958-51.117-36.958-82.597 0-61.095 49.704-110.799 110.799-110.799 10.058 0 19.649 1.584 29.393 3.937 12.518 3.431 24.375 9.067 35.122 16.778 2.168 1.556 5 1.841 7.437.752l32.885-14.723-13.556 35.532c-.868 2.276-.577 4.832.78 6.854 12.258 18.262 18.738 39.586 18.738 61.669 0 61.095-49.704 110.799-110.799 110.799-17.896 0-34.979-4.137-50.773-12.295-3.681-1.901-8.206-.458-10.105 3.223-1.901 3.68-.458 8.204 3.222 10.105 17.69 9.137 37.628 13.967 57.656 13.967 36.552 0 69.507-15.675 92.512-40.649l5.585 20.408c3.261 11.918 14.169 20.241 26.524 20.241h99.999c12.355 0 23.263-8.323 26.524-20.241l22.86-83.536c41.229-27.01 70.877-70.295 79.727-120.661h14.97c9.649 0 17.5-7.851 17.5-17.5v-28.125c0-9.649-7.851-17.499-17.5-17.499zm-256.136-200.238c1.482-5.417 6.44-9.2 12.057-9.2h99.999c5.616 0 10.573 3.783 12.056 9.2l18.857 68.906c-24.921-12.387-52.548-18.965-80.912-18.965-29.06 0-56.543 6.863-80.932 19.035zm-7.763 241.528-22.712 10.168c-1.392-6.508-2.11-13.168-2.11-19.896 0-30.208 14.613-58.855 39.09-76.632 7.847-5.697-.969-17.838-8.814-12.137-28.35 20.59-45.275 53.774-45.275 88.769 0 8.172.905 16.264 2.68 24.158-9.262-5.928-19.161-10.568-29.502-13.856-5.839-78.254 57.93-147.16 136.463-147.16 75.464 0 136.858 61.395 136.858 136.858s-61.395 136.858-136.859 136.858c-16.851 0-33.274-3.038-48.863-9.021-.203-10.981-1.804-21.782-4.767-32.18 16.223 9.118 34.596 13.985 53.63 13.985 60.456 0 109.641-49.185 109.641-109.642s-49.185-109.642-109.641-109.642c-4.143 0-7.5 3.357-7.5 7.5s3.357 7.5 7.5 7.5c52.185 0 94.641 42.456 94.641 94.642s-42.456 94.642-94.641 94.642c-24.157 0-47.075-9.083-64.673-25.57-1.053-1.89-2.14-3.764-3.295-5.605l14.578-38.211c1.771-4.64.582-9.843-3.027-13.253-3.609-3.412-8.87-4.304-13.402-2.275zm131.874 222.072c-1.482 5.417-6.439 9.2-12.056 9.2h-99.999c-5.616 0-10.574-3.783-12.057-9.2l-8.487-31.013c5.836-8.578 10.639-17.91 14.232-27.819 18.125 5.901 37.03 8.891 56.312 8.891 29.059 0 56.542-6.863 80.931-19.034zm134.525-217.738c0 1.379-1.121 2.5-2.5 2.5h-12.984c.495-5.457.762-10.979.762-16.562 0-5.567-.255-11.09-.743-16.562h12.965c1.379 0 2.5 1.121 2.5 2.5z"/><path d="m290.463 281.896c6.057 3.747 13.825 3.78 19.919.102 14.208-8.573 38.01-26.359 37.789-49.145-.154-15.88-12.692-28.961-28.543-29.781-6.917-.35-13.683 1.694-19.192 5.65-5.075-3.673-11.207-5.691-17.635-5.691-16.616 0-30.134 13.518-30.134 30.134 0 22.058 23.681 40 37.796 48.731zm-7.662-63.866c4.594 0 8.889 2.057 11.783 5.642 3.891 3.719 7.781 3.719 11.672 0 3.089-3.826 7.689-5.88 12.597-5.62 7.819.404 14.242 7.109 14.318 14.947.159 16.352-23.335 31.809-30.539 36.155-1.327.804-2.966.796-4.277-.016-19.216-11.886-30.688-25.334-30.688-35.975 0-8.344 6.789-15.133 15.134-15.133z"/><path d="m314.451 303.79h-28.063c-4.143 0-7.5 3.357-7.5 7.5s3.357 7.5 7.5 7.5h28.063c4.143 0 7.5-3.357 7.5-7.5s-3.357-7.5-7.5-7.5z"/><path d="m84.383 345.266h-27.32c-6.709 0-12.167 5.458-12.167 12.167v59.129c0 6.709 5.458 12.167 12.167 12.167h27.319c6.709 0 12.167-5.458 12.167-12.167v-22.064h58.052v22.064c0 6.709 5.458 12.167 12.167 12.167h27.32c6.709 0 12.167-5.458 12.167-12.167v-59.129c0-6.709-5.458-12.167-12.167-12.167h-27.32c-6.708 0-12.167 5.458-12.167 12.167v22.064h-58.051v-22.064c0-6.709-5.458-12.167-12.167-12.167zm85.219 15h21.653v53.463h-21.653zm-88.052 53.463h-21.654v-53.463h21.654z"/></g></svg>