<svg id="Capa_1" enable-background="new 0 0 511.805 511.805" height="512" viewBox="0 0 511.805 511.805" width="512" xmlns="http://www.w3.org/2000/svg"><g><path d="m255.902 0c-35.168 0-69.343 9.98-98.83 28.861-3.488 2.234-4.506 6.872-2.272 10.36s6.874 4.506 10.36 2.272c27.069-17.332 58.446-26.493 90.742-26.493 92.918 0 168.513 75.594 168.513 168.512 0 60.545-21.574 125.306-64.123 192.483-34.81 54.958-74.789 97.169-95.522 117.438-4.86 4.751-12.741 4.717-17.567-.075-20.737-20.601-60.729-63.397-95.58-118.564-42.622-67.469-64.233-131.825-64.233-191.282 0-47.67 20.336-93.323 55.793-125.254 3.078-2.771 3.326-7.514.555-10.592-2.774-3.08-7.518-3.326-10.592-.555-38.611 34.771-60.756 84.486-60.756 136.4 0 62.338 22.391 129.39 66.552 199.294 35.638 56.416 76.501 100.147 97.689 121.195 10.402 10.331 28.121 10.427 38.625.16 21.2-20.727 62.085-63.896 97.708-120.139 44.094-69.616 66.451-137.078 66.451-200.51 0-101.188-82.323-183.511-183.513-183.511z"/><path d="m345.496 289.21c30.971-26.354 48.733-64.766 48.733-105.383 0-76.273-62.054-138.327-138.327-138.327s-138.327 62.054-138.327 138.327 62.054 138.326 138.327 138.326c22.076 0 44.045-5.335 63.531-15.429 3.679-1.904 5.115-6.431 3.211-10.108s-6.433-5.114-10.109-3.21c-17.612 9.122-36.666 13.747-56.633 13.747-68.003 0-123.327-55.324-123.327-123.326 0-68.003 55.324-123.327 123.327-123.327s123.328 55.324 123.328 123.327c0 36.213-15.839 70.459-43.454 93.959-3.154 2.685-3.536 7.418-.852 10.572 2.683 3.155 7.418 3.538 10.572.852z"/><path d="m327.428 214.378c.027-.086.054-.173.078-.26l9.849-34.747 6.662 34.516c.785 4.066 4.713 6.729 8.786 5.942 4.066-.785 6.728-4.719 5.942-8.786l-11.557-59.864c-.812-3.949-4.192-6.861-8.219-7.081-4.044-.211-7.708 2.308-8.945 6.147-.027.085-.054.17-.078.257l-11.116 39.221-11.655-39.217c-.026-.088-.055-.176-.084-.263-1.29-3.82-5-6.292-9.026-6.021-4.026.276-7.367 3.236-8.141 7.287l-10.701 59.819c-.729 4.077 1.984 7.974 6.062 8.703 4.074.732 7.974-1.985 8.703-6.062l6.162-34.445 10.314 34.708c.026.089.055.177.084.265 1.224 3.619 4.601 6.04 8.418 6.04h.062c3.843-.027 7.218-2.502 8.4-6.159z"/><path d="m152.924 182.799c.034 20.733 17.631 38.1 38.297 38.1 20.027-.058 33.987-15.802 33.95-38.286-.005-3.716-3.731-7.487-7.521-7.487l-18.382.052c-4.142.012-7.49 3.379-7.479 7.521.012 4.135 3.367 7.479 7.5 7.479h.021l10.029-.028c-1.92 8.298-7.351 15.719-18.162 15.75-12.582 0-23.234-10.47-23.254-23.124-.021-12.796 10.384-23.236 23.195-23.272h.069c4.63 0 9.094 1.355 12.914 3.921 3.439 2.309 8.1 1.394 10.408-2.045s1.394-8.099-2.045-10.408c-6.304-4.232-13.657-6.468-21.275-6.468-.038 0-.076 0-.114 0-21.071.058-38.186 17.237-38.151 38.295z"/><path d="m252.162 220.726h.006c4.14 0 7.497-3.354 7.5-7.494l.023-29.146 18.212-28.074c2.254-3.476 1.265-8.12-2.21-10.374-3.478-2.256-8.119-1.267-10.374 2.21l-13.163 20.292-13.371-20.37c-2.271-3.463-6.922-4.428-10.385-2.154-3.463 2.272-4.428 6.922-2.154 10.385l18.446 28.101-.023 29.118c-.004 4.142 3.351 7.503 7.493 7.506z"/><path d="m311.764 128.318c3.48 3.056 7.014 3.184 10.6.385 3.033-2.82 3.205-7.566.385-10.6-17.571-18.896-42.431-29.719-68.241-29.719-.087 0-.174 0-.261 0-25.44.072-49.19 10.191-66.874 28.495-2.878 2.979-2.797 7.727.183 10.604 2.979 2.88 7.728 2.797 10.604-.183 14.843-15.362 34.777-23.856 56.13-23.917h.219c21.654.002 42.513 9.082 57.255 24.935z"/><path d="m255.713 276.652h.261c25.44-.072 49.19-10.191 66.874-28.494 2.878-2.979 2.797-7.727-.183-10.604-2.979-2.88-7.728-2.797-10.604.183-14.844 15.362-34.777 23.855-56.13 23.916-.072 0-.146 0-.219 0-21.655 0-42.514-9.08-57.256-24.934-2.82-3.033-7.566-3.207-10.6-.385-3.033 2.82-3.205 7.566-.385 10.6 17.572 18.896 42.431 29.718 68.242 29.718z"/></g></svg>