<svg id="Capa_1" enable-background="new 0 0 512 512" height="512" viewBox="0 0 512 512" width="512" xmlns="http://www.w3.org/2000/svg"><g><path d="m511.894 413.818c-5.148-46.555-25.767-86.9-45.53-128.48-22.329-46.979-50.117-105.445-44.568-190.547.27-4.134-2.863-7.703-6.996-7.973-4.138-.268-7.702 2.862-7.973 6.996-5.802 88.995 22.915 149.414 45.989 197.962 1.984 4.175 3.91 8.229 5.762 12.189h-181.723c-23.745-24-71.708-40.163-128.392-40.522 18.169-43.837 34.821-98.041 30.835-169.558-1.271-22.819-4.956-46.886-11.599-75.741-.173-1.853.666-2.902 2.515-3.145h246.465c1.885.261 2.715 1.341 2.49 3.24-3.893 15.275-6.954 30.449-9.1 45.099-.601 4.099 2.235 7.907 6.334 8.508 4.097.597 7.907-2.235 8.508-6.334 2.07-14.137 5.028-28.795 8.793-43.568 2.794-10.961-5.703-21.944-17.026-21.944h-246.464c-11.137 0-19.631 10.653-17.132 21.51 6.445 28.002 10.017 51.265 11.239 73.21 4.005 71.872-13.812 125.75-32.273 169.064-41.395 2.004-132.046 17.603-132.046 74.928v98.008c0 62.391 101.694 75.28 146.533 75.28h238.17 38.767c10.207 0 18.511-8.304 18.511-18.511v-60.135h52.435c10.343 0 18.61-9.262 17.476-19.536zm-276.907-14.748c18.085-6.968 32.798-16.07 42.86-26.643v26.68zm-219.985 37.65v-64.56c5.353 5.692 12.093 11.018 20.13 15.825 3.554 2.127 8.159.969 10.286-2.587 2.126-3.555.968-8.16-2.587-10.286-17.788-10.64-27.585-23.567-27.585-36.401 0-32.675 60.123-60.279 131.289-60.279 33.879 0 131.29 16.568 131.29 60.279 0 32.676-60.123 60.281-131.29 60.281-28.171 0-55.1-4.18-77.873-12.087-3.918-1.363-8.187.713-9.545 4.625-1.358 3.913.712 8.187 4.625 9.545 24.298 8.437 52.875 12.901 82.65 12.916.009 0 .017.001.026.001l230.787.202v82.806h-39.554v-49.812c0-4.143-3.357-7.5-7.5-7.5s-7.5 3.357-7.5 7.5v49.812h-38.806v-20.156c0-4.143-3.357-7.5-7.5-7.5s-7.5 3.357-7.5 7.5v20.156h-38.807v-49.745c0-4.143-3.357-7.5-7.5-7.5s-7.5 3.357-7.5 7.5v49.745h-38.806v-20.156c0-4.143-3.357-7.5-7.5-7.5s-7.5 3.357-7.5 7.5v20.156h-13.811c-8.187-.978-16.732-.338-24.995-1.045v-50.417c0-4.143-3.357-7.5-7.5-7.5s-7.5 3.357-7.5 7.5v48.691c-13.18-1.936-26.211-4.913-38.807-9.269v-22.902c0-4.143-3.357-7.5-7.5-7.5s-7.5 3.357-7.5 7.5v16.845c-16.245-7.59-38.617-21.62-38.617-42.183zm411.98 56.769c0 1.936-1.575 3.511-3.511 3.511h-31.267v-82.799h31.267c1.936 0 3.511 1.575 3.511 3.511zm69.356-75.991c-.287.319-.918.856-1.921.856h-52.435v-.643c0-10.207-8.304-18.511-18.511-18.511-43.541 0-87.083-.042-130.624-.081v-60.409c-.076-6.86-1.803-13.619-4.921-19.746h177.979c15.101 27.133 27.719 66.109 31.079 96.501.112 1.014-.357 1.709-.646 2.033z"/><path d="m286.02 214.086v20.516c0 4.143 3.357 7.5 7.5 7.5s7.5-3.357 7.5-7.5v-20.516c0-4.143-3.357-7.5-7.5-7.5s-7.5 3.357-7.5 7.5z"/><path d="m146.79 376.629c31.658 0 52.747-6.059 64.865-11.142 17.061-7.156 26.845-16.916 26.845-26.775 0-9.86-9.784-19.62-26.845-26.776-12.117-5.083-33.207-11.142-64.865-11.142-56.961 0-92.219 19.683-92.219 37.918s35.258 37.917 92.219 37.917zm-58.952-51.012c15.444-6.335 36.38-9.823 58.952-9.823 55.401 0 76.613 19.031 76.71 22.916-.098 3.889-21.312 22.919-76.71 22.919-22.571 0-43.507-3.488-58.95-9.823-13.727-5.629-18.194-11.572-18.269-13.088.074-1.528 4.541-7.47 18.267-13.101z"/></g></svg>