<svg id="Capa_1" enable-background="new 0 0 512 512" height="512" viewBox="0 0 512 512" width="512" xmlns="http://www.w3.org/2000/svg"><g><path d="m511.961 159.731c-.406-9.291-8.071-16.731-17.461-16.731h-111.5v-74.5c0-37.771-30.729-68.5-68.5-68.5s-68.5 30.729-68.5 68.5v74.5h-60v-74.5c0-37.771-30.729-68.5-68.5-68.5-9.514 0-18.731 1.924-27.397 5.719-3.794 1.662-5.523 6.084-3.861 9.879 1.661 3.794 6.083 5.521 9.879 3.861 6.755-2.959 13.949-4.459 21.379-4.459 29.5 0 53.5 24 53.5 53.5v112.5h-15v-112.5c0-21.229-17.271-38.5-38.5-38.5s-38.5 17.271-38.5 38.5v74.5h-15v-74.5c0-12.664 4.525-24.957 12.742-34.614 2.684-3.155 2.302-7.889-.853-10.572-3.154-2.685-7.888-2.303-10.572.852-10.522 12.367-16.317 28.112-16.317 44.334v74.5h-31.5c-9.39 0-17.055 7.44-17.461 16.731-.026.253-.039.509-.039.769v54.408 99.704 60.888 119c0 9.649 7.851 17.5 17.5 17.5h405.242c4.142 0 7.5-3.357 7.5-7.5s-3.358-7.5-7.5-7.5h-405.242c-1.378 0-2.5-1.121-2.5-2.5v-119-45.224l12.647 10.18c17.123 13.781 41.979 13.781 59.104-.002 11.675-9.395 28.621-9.394 40.293.002 17.123 13.781 41.979 13.781 59.104-.002 11.674-9.395 28.62-9.394 40.292.001 17.123 13.781 41.98 13.78 59.103-.001 11.674-9.396 28.62-9.396 40.292 0 .019.016.039.03.058.046 17.122 13.738 41.941 13.723 59.047-.044.007-.006.014-.012.021-.017 11.673-9.383 28.606-9.376 40.273.013.024.02.049.04.075.06 17.12 13.728 41.933 13.711 59.033-.052l12.658-10.186v45.226 119c0 1.379-1.122 2.5-2.5 2.5h-41.846c-4.142 0-7.5 3.357-7.5 7.5s3.358 7.5 7.5 7.5h41.846c9.649 0 17.5-7.851 17.5-17.5v-119-60.888-99.704-54.408c0-.26-.013-.516-.039-.769zm-17.461-1.731c1.378 0 2.5 1.121 2.5 2.5v46.908h-98.085v-8.908c0-9.115-7.007-16.615-15.915-17.42v-23.08zm-141.5 127.297v-38.481h15v38.481zm-167 0v-38.481h152v38.481zm-30 0v-38.481h15v38.481zm225.415-53.482h-239.831c-1.378 0-2.5-1.121-2.5-2.5v-30.815c0-1.379 1.122-2.5 2.5-2.5h239.831c1.378 0 2.5 1.121 2.5 2.5v30.815c0 1.379-1.122 2.5-2.5 2.5zm-43.415-88.815h-47v-74.5c0-12.958 10.542-23.5 23.5-23.5s23.5 10.542 23.5 23.5zm-77-74.5c0-29.5 24-53.5 53.5-53.5s53.5 24 53.5 53.5v112.5h-15v-112.5c0-21.229-17.271-38.5-38.5-38.5s-38.5 17.271-38.5 38.5v74.5h-15zm-75 89.5h152v23h-152zm-92-89.5c0-12.958 10.542-23.5 23.5-23.5s23.5 10.542 23.5 23.5v74.5h-47zm-76.5 89.5h123.5v23.03c-9.378.312-16.916 8.018-16.916 17.47v8.908h-109.084v-46.908c0-1.379 1.122-2.5 2.5-2.5zm59.844 170.771c-11.673 9.397-28.619 9.396-40.292 0l-22.052-17.75v-88.613h109.084v6.907c0 9.452 7.538 17.158 16.916 17.47v38.541c-9.378.312-16.916 8.018-16.916 17.47v18.841c-15.403-5.968-33.411-3.593-46.74 7.134zm298.164.023c-11.673 9.372-28.6 9.362-40.263-.023-.02-.016-.041-.032-.061-.048-17.12-13.735-41.94-13.719-59.044.047-11.675 9.396-28.621 9.396-40.293 0-17.122-13.781-41.978-13.782-59.104.001-10.823 8.712-26.173 9.332-37.657 1.886v-27.86c0-1.379 1.122-2.5 2.5-2.5h239.831c1.378 0 2.5 1.121 2.5 2.5v20.603c-2.936 1.466-5.747 3.253-8.375 5.368-.013.008-.023.017-.034.026zm99.431-.02c-11.672 9.392-28.617 9.394-40.289 0-.025-.021-.051-.041-.077-.062-10.234-8.205-23.217-11.494-35.658-9.876v-16.04c0-9.115-7.007-16.615-15.915-17.42v-38.642c8.908-.805 15.915-8.305 15.915-17.42v-6.907h98.085v88.613z"/><path d="m375.54 382.765c-.011.009-.022.018-.033.026-11.655 9.358-28.546 9.366-40.209.021-.019-.015-.038-.03-.057-.046-17.123-13.781-41.979-13.78-59.102.001-3.317 2.671-3.764 7.586-.913 10.814 2.666 3.019 7.338 3.235 10.493.732 11.65-9.241 28.45-9.208 40.062.095.019.016.039.031.058.047 8.562 6.891 19.056 10.335 29.55 10.335s20.99-3.445 29.551-10.336c.01-.008.02-.017.03-.024 11.672-9.372 28.601-9.367 40.227-.009 3.082 2.324 7.47 3.228 10.641.156 3.354-4.273 2.905-8.304-1.2-11.813-17.119-13.779-41.975-13.779-59.098.001z"/><path d="m176.645 425.847c-11.67 9.315-28.555 9.29-40.196-.08-17.068-13.737-41.817-13.781-58.934-.134-2.626 1.988-3.713 5.556-2.43 8.763 1.733 4.333 8.127 5.906 11.667 3.057 11.672-9.396 28.619-9.396 40.293.001 8.562 6.892 19.056 10.337 29.551 10.336 10.494-.001 20.99-3.445 29.55-10.335 3.324-2.678 3.428-8.833.101-11.605-2.827-2.359-6.874-2.28-9.602-.003z"/></g></svg>