<svg id="Capa_1" enable-background="new 0 0 512 512" height="512" viewBox="0 0 512 512" width="512" xmlns="http://www.w3.org/2000/svg"><g><path d="m448.958 132.819 10.997-32.407c3.612-10.652-.017-22.049-7.971-29.657l9.229-9.197c6.764-6.74 6.784-17.985.044-24.749l-21.244-21.32c-6.684-6.708-18.042-6.725-24.749-.043l-9.229 9.196c-7.484-7.092-18.307-10.115-28.263-6.771l-34.547 11.245c-11.292-5.1-23.026-9.226-35.069-12.265-8.047-2.034-16.365 1.668-20.224 9.002-.027.051-.069.089-.098.137v-8.49c0-9.649-7.851-17.5-17.5-17.5h-28.667c-9.649 0-17.5 7.851-17.5 17.5v8.498c-.023-.037-.056-.066-.077-.104-.007-.014-.015-.028-.022-.042-3.859-7.333-12.187-11.032-20.251-8.993-10.403 2.627-20.571 6.063-30.422 10.233l-37.761-11.999c-10.634-3.574-21.994.062-29.582 7.996l-9.196-9.229c-6.683-6.706-18.043-6.727-24.749-.044l-21.32 21.244c-6.835 6.812-6.855 17.914-.043 24.749l9.197 9.229c-7.086 7.477-10.12 18.297-6.776 28.248l10.833 33.531c-14.349 29.473-21.587 61.842-21.164 95.483.603 47.888 17.711 94.754 48.175 131.964 23.488 28.691 54.163 50.831 88.328 64.135-15.515 8.364-26.085 24.767-26.085 43.594v38.507c0 4.143 3.358 7.5 7.5 7.5h30c4.142 0 7.5-3.357 7.5-7.5v-38.508c0-2.477 2.015-4.492 4.492-4.492h.764c2.977 11.967 13.81 20.864 26.686 20.864h51.616c12.876 0 23.709-8.897 26.686-20.864h.764c2.477 0 4.492 2.016 4.492 4.492v38.508c0 4.143 3.358 7.5 7.5 7.5h30c4.142 0 7.5-3.357 7.5-7.5v-38.508c0-18.797-10.534-35.178-26.008-43.555 34.592-13.436 65.551-35.905 89.129-65.083 30.511-37.757 47.314-85.269 47.314-133.783-.003-31.915-6.912-62.637-20.229-90.752zm-23.106-106.748c.979-.974 2.56-.973 3.536.006l21.245 21.32c.974 1.18.972 2.359-.006 3.535l-9.229 9.197-24.774-24.862zm-43.369 6.042c4.54-1.524 9.458-.365 12.836 3.025l47.448 47.617c3.376 3.389 4.52 8.308 2.983 12.837l-6.485 19.11c-4.768-7.963-10.081-15.674-15.941-23.089-16.922-21.411-37.846-39.343-61.276-52.85zm-140.816-17.113h28.667c1.378 0 2.5 1.121 2.5 2.5v9.888h-33.667v-9.888c0-1.379 1.121-2.5 2.5-2.5zm-180.299 34.22c-.974-1.18-.972-2.359.006-3.536l21.32-21.244c.977-.974 2.562-.971 3.536.007l9.196 9.229-24.861 24.773zm6.042 43.37c-1.525-4.538-.365-9.457 3.026-12.837 15.872-15.816 31.744-31.632 47.616-47.448 3.213-3.199 8.66-4.301 12.977-2.938l22.757 7.231c-25.354 13.93-47.918 32.988-65.901 56.023-5.072 6.497-9.722 13.218-13.961 20.127zm115.841 373.402v31.008h-15v-31.008c0-19.002 15.446-34.463 34.441-34.491v15.001c-10.724.028-19.441 8.759-19.441 19.49zm160.498 0v31.008h-15v-31.008c0-10.731-8.717-19.462-19.441-19.49v-15.001c18.995.028 34.441 15.489 34.441 34.491zm66.454-118.065c-27.704 34.283-66.349 58.606-108.919 68.6-3.896.271-6.975 3.508-6.975 7.474 0 .024.003.047.004.071 0 .014-.004.027-.004.042v30.752c0 6.893-5.607 12.5-12.5 12.5h-51.616c-6.893 0-12.5-5.607-12.5-12.5v-30.786c0-.01-.003-.02-.003-.03 0-.017.003-.033.003-.051 0-3.905-2.984-7.109-6.795-7.464-42.159-9.903-80.583-33.94-108.283-67.775-28.319-34.59-44.223-78.148-44.782-122.651-.565-44.906 14.251-88.872 41.876-124.258 27.109-34.724 65.387-59.743 107.782-70.45.248-.062.497-.093.742-.093 1.051 0 2.032.556 2.542 1.492.007.013.014.026.021.039 3.1 5.89 9.16 9.548 15.815 9.548h58.78c6.655 0 12.715-3.658 15.815-9.548.622-1.182 1.969-1.771 3.278-1.445h.001c41.991 10.599 80.017 35.288 107.072 69.521 27.535 34.84 42.628 78.213 42.628 122.656-.001 45.095-15.62 89.259-43.982 124.356z"/><path d="m256 50.388c-30.453 0-60.409 8.021-86.628 23.197-3.584 2.075-4.809 6.663-2.734 10.248 2.076 3.585 6.665 4.809 10.248 2.734 23.939-13.855 51.296-21.18 79.114-21.18 87.223 0 158.184 70.961 158.184 158.184 0 87.224-70.961 158.185-158.184 158.185s-158.184-70.961-158.184-158.185c0-46.616 20.437-90.646 56.07-120.798 3.162-2.676 3.556-7.408.88-10.57-2.675-3.161-7.408-3.556-10.57-.881-39.008 33.01-61.38 81.212-61.38 132.249 0 95.494 77.69 173.185 173.184 173.185s173.184-77.69 173.184-173.185-77.69-173.183-173.184-173.183z"/><path d="m358.689 146.935c3.292 3.417 6.792 3.921 10.499 1.511 3.316-2.481 3.993-7.183 1.511-10.498-18.011-24.067-43.639-42.219-72.163-51.109-3.953-1.23-8.159.974-9.392 4.929-1.233 3.954.974 8.159 4.928 9.392 25.534 7.957 48.482 24.214 64.617 45.775z"/><path d="m213.768 86.838c-28.524 8.891-54.152 27.042-72.163 51.109-2.481 3.315-1.805 8.017 1.511 10.498 3.707 2.41 7.206 1.906 10.499-1.511 16.134-21.561 39.083-37.817 64.617-45.776 3.955-1.232 6.161-5.438 4.928-9.392s-5.439-6.161-9.392-4.928z"/><path d="m145.5 198.396v70.35c0 15.163 12.336 27.5 27.5 27.5h112.067c4.142 0 7.5-3.357 7.5-7.5s-3.358-7.5-7.5-7.5h-112.067c-6.893 0-12.5-5.607-12.5-12.5v-70.35c0-6.893 5.607-12.5 12.5-12.5h166c6.893 0 12.5 5.607 12.5 12.5v70.35c0 6.893-5.607 12.5-12.5 12.5h-24.011c-4.142 0-7.5 3.357-7.5 7.5s3.358 7.5 7.5 7.5h24.011c15.164 0 27.5-12.337 27.5-27.5v-70.35c0-15.163-12.336-27.5-27.5-27.5h-166c-15.163 0-27.5 12.337-27.5 27.5z"/><path d="m229.334 325.054c-4.142 0-7.5 3.357-7.5 7.5s3.358 7.5 7.5 7.5h53.333c4.142 0 7.5-3.357 7.5-7.5s-3.358-7.5-7.5-7.5z"/><path d="m200.584 211.834h-19.333c-4.142 0-7.5 3.357-7.5 7.5s3.358 7.5 7.5 7.5h19.333c4.142 0 7.5-3.357 7.5-7.5s-3.358-7.5-7.5-7.5z"/><path d="m243.584 211.834h-19.333c-4.142 0-7.5 3.357-7.5 7.5s3.358 7.5 7.5 7.5h19.333c4.142 0 7.5-3.357 7.5-7.5s-3.358-7.5-7.5-7.5z"/><path d="m287.749 211.834h-19.333c-4.142 0-7.5 3.357-7.5 7.5s3.358 7.5 7.5 7.5h19.333c4.142 0 7.5-3.357 7.5-7.5s-3.358-7.5-7.5-7.5z"/><path d="m311.416 226.834h19.333c4.142 0 7.5-3.357 7.5-7.5s-3.358-7.5-7.5-7.5h-19.333c-4.142 0-7.5 3.357-7.5 7.5s3.358 7.5 7.5 7.5z"/><path d="m200.584 240.31h-19.333c-4.142 0-7.5 3.357-7.5 7.5s3.358 7.5 7.5 7.5h19.333c4.142 0 7.5-3.357 7.5-7.5s-3.358-7.5-7.5-7.5z"/><path d="m243.584 240.31h-19.333c-4.142 0-7.5 3.357-7.5 7.5s3.358 7.5 7.5 7.5h19.333c4.142 0 7.5-3.357 7.5-7.5s-3.358-7.5-7.5-7.5z"/><path d="m287.749 240.31h-19.333c-4.142 0-7.5 3.357-7.5 7.5s3.358 7.5 7.5 7.5h19.333c4.142 0 7.5-3.357 7.5-7.5s-3.358-7.5-7.5-7.5z"/><path d="m311.416 255.31h19.333c4.142 0 7.5-3.357 7.5-7.5s-3.358-7.5-7.5-7.5h-19.333c-4.142 0-7.5 3.357-7.5 7.5s3.358 7.5 7.5 7.5z"/></g></svg>