<svg id="Capa_1" enable-background="new 0 0 512 512" height="512" viewBox="0 0 512 512" width="512" xmlns="http://www.w3.org/2000/svg"><g><path d="m493.403 251.86c12.983-29.241 19.231-57.651 18.546-84.593-.921-36.182-16.193-71.131-43.005-98.41-26.801-27.268-61.47-43.151-97.619-44.725-42.785-1.86-84.147 14.9-113.523 45.989-1.211 1.039-2.421 1.03-3.629-.026-28.107-29.731-66.086-46.105-106.94-46.105-25.766 0-51.124 6.76-73.332 19.548-3.589 2.066-4.824 6.652-2.757 10.241 2.067 3.59 6.652 4.825 10.242 2.757 19.935-11.479 42.704-17.546 65.847-17.546 36.687 0 70.795 14.706 96.04 41.41 6.754 7.143 18.671 7.182 25.433.023 26.384-27.923 63.557-42.971 101.968-41.305 66.753 2.905 124.583 61.765 126.28 128.529.673 26.452-6.04 54.669-19.925 83.932h-33.944l-41.706-146.03c-8.197-28.677-51.44-27.444-57.944 1.709l-30.376 136.173-11.747-44.86c-7.792-29.766-52.859-28.075-58.358 2.245l-19.746 108.899-46.429-175.933c-6.998-26.513-45.605-29.381-56.405-4.148l-52.213 121.946h-32.269c-13.855-28.226-20.892-55.207-20.892-80.254 0-36.616 15.368-71.932 42.164-96.891 3.031-2.823 3.199-7.569.376-10.601-2.824-3.032-7.57-3.199-10.6-.376-29.831 27.787-46.94 67.104-46.94 107.868 0 25.416 6.52 52.425 19.369 80.429-10.901 1.349-19.369 10.671-19.369 21.941 0 12.193 9.912 22.114 22.095 22.114h22.135c59.999 90.102 165.251 166.075 196.396 187.416 9.201 6.305 21.504 6.382 30.782.202 31.559-21.014 138.125-96.048 197.846-187.618h20.651c12.183 0 22.095-9.921 22.095-22.114 0-11.003-8.071-20.152-18.597-21.836zm-3.498 28.95h-57.593c-6.618 0-12.512-4.452-14.332-10.828l-37.337-130.73c-2.088-7.309-12.876-6.995-14.532.427l-22.712 101.818c-.901 4.043 1.645 8.051 5.688 8.953 4.039.896 8.051-1.645 8.953-5.688l16.286-73.011 29.23 102.35c3.65 12.782 15.475 21.709 28.756 21.709h18.875c-59.008 85.45-158.094 155.157-188.094 175.134-4.27 2.842-9.759 2.808-13.989-.091-29.609-20.29-127.423-90.836-186.695-175.043h15.171c11.98 0 22.77-7.122 27.489-18.145l39.58-92.441 52.231 197.921c7.929 30.029 52.737 28.609 58.343-2.305l19.693-108.613 10.322 39.417c7.644 29.183 51.511 28.556 58.12-1.068l8.16-36.576c.901-4.043-1.645-8.051-5.688-8.953-4.042-.896-8.051 1.645-8.953 5.688l-8.158 36.575c-3.198 14.338-25.181 14.988-28.97.533l-18.908-72.209c-1.987-7.583-13.236-7.152-14.636.562l-25.741 141.968c-2.72 15.004-25.119 16.155-29.08 1.151l-57.795-219.003c-1.783-6.753-11.396-7.459-14.146-1.038l-48.163 112.487c-2.354 5.497-7.731 9.049-13.7 9.049h-55.485c-3.912 0-7.095-3.191-7.095-7.114 0-3.924 3.183-7.115 7.095-7.115 17.004.002 34.009 0 51.013 0 3.001 0 5.713-1.789 6.895-4.548l54.161-126.494c5.283-12.342 24.643-11.067 28.112 2.073l55.04 208.561c1.998 7.572 13.234 7.127 14.632-.576l25.766-142.104c2.667-14.707 25.227-15.871 29.088-1.121l19.586 74.793c1.915 7.322 12.897 7.253 14.575-.267l37.113-166.373c3.168-14.203 24.813-15.087 28.881-.854l43.259 151.469c.92 3.221 3.863 5.44 7.212 5.44 17.493 0 34.986.003 52.479 0 3.912 0 7.095 3.191 7.095 7.115-.002 3.924-3.185 7.115-7.097 7.115z"/></g></svg>