<svg id="Capa_1" enable-background="new 0 0 512 512" height="512" viewBox="0 0 512 512" width="512" xmlns="http://www.w3.org/2000/svg"><g><path d="m52.281 103.738h17.797c11.799 0 21.397-9.599 21.397-21.397s-9.599-21.397-21.397-21.397h-17.797c-11.799 0-21.398 9.599-21.398 21.397s9.599 21.397 21.398 21.397zm0-27.795h17.797c3.527 0 6.397 2.87 6.397 6.397s-2.87 6.397-6.397 6.397h-17.797c-3.528 0-6.398-2.87-6.398-6.397s2.87-6.397 6.398-6.397z"/><path d="m336.257 103.365c11.799 0 21.397-9.599 21.397-21.397s-9.599-21.397-21.397-21.397h-17.798c-11.799 0-21.397 9.599-21.397 21.397s9.599 21.397 21.397 21.397zm-24.195-21.397c0-3.527 2.87-6.397 6.397-6.397h17.798c3.527 0 6.397 2.87 6.397 6.397s-2.87 6.397-6.397 6.397h-17.798c-3.527 0-6.397-2.87-6.397-6.397z"/><path d="m504.5 200.527c4.143 0 7.5-3.357 7.5-7.5v-75.969c0-7.201-4.531-13.349-10.886-15.785v-80.83c0-11.272-9.171-20.443-20.443-20.443h-.704c-11.271 0-20.442 9.171-20.442 20.443v80.83c-6.355 2.437-10.887 8.584-10.887 15.786v131.661c0 14.784 10.392 27.178 24.253 30.284v198.745c0 10.615-8.636 19.251-19.251 19.251s-19.251-8.636-19.251-19.251v-196.624c0-22.182-18.046-40.229-40.228-40.229s-40.229 18.047-40.229 40.229v170.355c0 25.1-20.42 45.52-45.52 45.52h-83.075c-21.286 0-38.604-17.317-38.604-38.604s17.317-38.604 38.604-38.604c44.749 0 81.154-36.405 81.154-81.153v-43.3h3.892c8.322 0 15.094-6.771 15.094-15.094v-116.795c36.161-8.93 63.06-41.632 63.06-80.512 0-22.131-8.629-42.93-24.297-58.565-15.628-15.597-36.438-24.252-58.597-24.372h-.001c-.183-.001-.358-.001-.539-.001-48.774 0-82.227 35.681-91.341 46.651-3.4 4.094-5.272 9.259-5.272 14.545v43.167c0 5.214 1.808 10.301 5.089 14.324 12.765 15.656 32.236 33.489 58.929 42.056v119.503c0 8.322 6.771 15.094 15.094 15.094h3.892v43.3c0 36.478-29.677 66.153-66.154 66.153-29.557 0-53.604 24.047-53.604 53.604 0 15.152 6.33 28.845 16.471 38.604h-38.661c-28.948 0-52.5-23.552-52.5-52.5v-148.788h3.892c8.322 0 15.094-6.771 15.094-15.094v-119.503c26.694-8.567 46.165-26.399 58.931-42.055 3.28-4.024 5.087-9.111 5.087-14.324v-43.168c0-5.287-1.872-10.452-5.272-14.546-9.115-10.971-42.562-46.65-91.338-46.65-.18 0-.363 0-.543.001-11.23.061-22.119 2.306-32.368 6.671-3.811 1.624-5.584 6.029-3.961 9.84 1.624 3.81 6.025 5.584 9.84 3.961 8.405-3.581 17.344-5.422 26.568-5.472.144-.001.286-.001.431-.001 33.586 0 63.239 21.268 79.83 41.235 1.168 1.405 1.811 3.167 1.811 4.961v43.167c0 1.77-.608 3.49-1.713 4.846-15.498 19.007-42.026 41.664-80.399 41.664-37.46 0-67.936-30.475-67.936-67.935 0-17.8 6.866-34.619 19.333-47.36 2.897-2.96 2.846-7.709-.115-10.605-2.961-2.897-7.71-2.846-10.605.115-15.227 15.559-23.613 36.104-23.613 57.85 0 38.88 26.899 71.581 63.06 80.511v116.797c0 8.322 6.771 15.094 15.094 15.094h3.892v148.787c0 37.22 30.28 67.5 67.5 67.5h158.868c33.37 0 60.52-27.149 60.52-60.52v-170.355c0-13.911 11.317-25.229 25.229-25.229 13.91 0 25.228 11.317 25.228 25.229v196.624c0 18.886 15.365 34.251 34.251 34.251s34.251-15.365 34.251-34.251v-198.778c13.787-3.159 24.107-15.518 24.107-30.251v-25.745c0-4.143-3.357-7.5-7.5-7.5s-7.5 3.357-7.5 7.5v25.745c0 8.845-7.196 16.041-16.041 16.041h-1.279c-8.846 0-16.042-7.196-16.042-16.041v-131.661c0-1.057.86-1.916 1.917-1.916h1.47 26.59 1.47c1.057 0 1.916.859 1.916 1.916v75.969c-.001 4.142 3.356 7.499 7.499 7.499zm-279.297-91.319c-1.105-1.354-1.714-3.075-1.714-4.845v-43.167c0-1.793.644-3.555 1.811-4.96 16.592-19.969 46.242-41.236 79.832-41.236.143 0 .287 0 .429.001 37.482.203 67.977 30.679 67.977 67.937 0 37.46-30.476 67.937-67.936 67.937-38.373-.001-64.901-22.659-80.399-41.667zm62.304 171.038v-115.87c7.494 1.251 15.368 1.786 22.971 1.343v114.527c0 .053-.041.094-.094.094h-22.783c-.052 0-.094-.042-.094-.094zm-209.447.373v-114.528c7.603.443 15.476-.093 22.971-1.343v115.871c0 .053-.041.094-.094.094h-22.784c-.052 0-.093-.041-.093-.094zm396.464-180.476v-79.7c0-3.002 2.441-5.443 5.442-5.443h.704c3.002 0 5.443 2.441 5.443 5.443v79.699h-11.589z"/></g></svg>