<svg id="Capa_1" enable-background="new 0 0 512 512" height="512" viewBox="0 0 512 512" width="512" xmlns="http://www.w3.org/2000/svg"><g><path d="m465.205 140.694h-182.73v-93.194c0-26.191-21.309-47.5-47.5-47.5h-188.18c-25.803 0-46.795 21.017-46.795 46.85v32.723c0 4.143 3.357 7.5 7.5 7.5s7.5-3.357 7.5-7.5v-32.723c0-17.562 14.263-31.85 31.795-31.85h188.18c17.921 0 32.5 14.579 32.5 32.5v100.694c0 4.143 3.357 7.5 7.5 7.5h190.23c17.532 0 31.795 14.288 31.795 31.851v219.455c0 4.143 3.357 7.5 7.5 7.5s7.5-3.357 7.5-7.5v-219.455c0-25.834-20.992-46.851-46.795-46.851z"/><path d="m504.5 429.5c-4.143 0-7.5 3.357-7.5 7.5v60h-16.05v-309.467c0-8.682-7.063-15.744-15.745-15.744h-90.998c-4.143 0-7.5 3.357-7.5 7.5v317.711h-16.05v-317.711c0-4.143-3.357-7.5-7.5-7.5h-68.183c-4.143 0-7.5 3.357-7.5 7.5v317.711h-16.05v-450.406c0-8.547-6.953-15.5-15.5-15.5h-189.117c-8.688 0-15.757 7.068-15.757 15.756v450.15h-16.05v-387.58c0-4.143-3.357-7.5-7.5-7.5s-7.5 3.357-7.5 7.5v395.08c0 4.143 3.357 7.5 7.5 7.5h497c4.143 0 7.5-3.357 7.5-7.5v-67.5c0-4.143-3.357-7.5-7.5-7.5zm-325.272-212.257c8.439 0 15.306 6.881 15.306 15.339 0 8.457-6.866 15.338-15.306 15.338s-15.307-6.881-15.307-15.338c0-8.458 6.866-15.339 15.307-15.339zm-79.035 0c8.44 0 15.307 6.881 15.307 15.339 0 8.457-6.866 15.338-15.307 15.338s-15.307-6.881-15.307-15.338c.001-8.458 6.867-15.339 15.307-15.339zm-53.386-171.149h45.887v157.091c-13.095 3.35-22.807 15.259-22.807 29.397 0 16.729 13.596 30.338 30.307 30.338s30.307-13.609 30.307-30.338c0-14.138-9.711-26.047-22.807-29.397v-157.091h64.034v157.091c-13.095 3.35-22.807 15.259-22.807 29.397 0 16.729 13.596 30.338 30.307 30.338s30.306-13.609 30.306-30.338c0-14.138-9.711-26.047-22.806-29.397v-157.091h49.197c.275 0 .5.225.5.5v372.673h-190.375v-372.417c0-.396.36-.756.757-.756zm-.757 388.173h190.375v62.733h-190.375zm289.607-82.312v26.151h-53.183v-26.151zm-53.182-15v-26.15h53.183v26.15zm53.182 56.151v26.151h-53.183v-26.151zm0-97.301h-53.183v-26.151h53.183zm0-41.152h-53.183v-26.151h53.183zm-53.182 179.614h53.183v26.143h-53.183zm53.182-247.478v26.713h-53.183v-26.713zm-53.182 288.62h53.183v21.591h-53.183zm182.73-288.62c.411 0 .745.334.745.744v231.733h-84.243v-232.477zm-83.498 247.478h84.243v62.733h-84.243z"/></g></svg>